<svg height="100" width="100" 
  xmlns="http://www.w3.org/2000/svg">
  <circle cx="51.9" cy="15.4" r="1.6" fill="#ff2f00" stroke="#ff2f00" stroke-width="1"/>
  <path fill="#ff2f00" stroke="#ff2f00" stroke-width="2" d="M25.4 90.4H78c.6 0 1-.4 1-1V19.2c0-.6-.4-1-1-1H67.2c-.6-2.2-2.8-3.8-5.4-3.8h-2.9c-.5-3.4-3.4-6.1-7-6.1s-6.5 2.7-7 6.1H42c-2.6 0-4.8 1.6-5.4 3.8H25.4c-.6 0-1 .4-1 1v70.2c0 .6.4 1 1 1zm44.7-19.3h-9c-.6 0-1 .4-1 1v9H33.5v-61h2.9v5.4c0 .6.4 1 1 1h28.9c.6 0 1-.4 1-1v-5.4h2.9l-.1 51zm-1.4 2L62 79.8v-6.6h6.7zM38.4 19.3c0-1.6 1.6-2.9 3.5-2.9h3.9c.6 0 1-.4 1-1 0-2.8 2.3-5.1 5.1-5.1s5.1 2.3 5.1 5.1c0 .6.4 1 1 1h3.9c1.9 0 3.5 1.3 3.5 2.9v5.3h-27v-5.3zm-12 .9h5.1v62c0 .6.4 1 1 1H61c.1 0 .3 0 .4-.1.1-.1.2-.1.3-.2l10-10c.1-.1.1-.2.2-.3 0 0 .1-.3.1-.4v-.1l.1-51.9H77v68.2H26.4V20.2z"/>
</svg>
