<svg height="100" width="100" 
  xmlns="http://www.w3.org/2000/svg">
  <path fill="#ff2f00" stroke="#ff2f00" stroke-width="1" d="M5273.1 2400.1v-2c0-2.8-5-4-9.7-4s-9.7 1.3-9.7 4v2c0 1.8.7 3.6 2 4.9l5 4.9c.3.3.4.6.4 1v6.4c0 .4.2.7.6.8l2.9.9c.5.1 1-.2 1-.8v-7.2c0-.4.2-.7.4-1l5.1-5c1.3-1.3 2-3.1 2-4.9zm-9.7-.1c-4.8 0-7.4-1.3-7.5-1.8.1-.5 2.7-1.8 7.5-1.8s7.3 1.3 7.5 1.8c-.2.5-2.7 1.8-7.5 1.8z"/>
  <path fill="#ff2f00" stroke="#ff2f00" stroke-width="1" d="M5268.4 2410.3c-.6 0-1 .4-1 1s.4 1 1 1h4.3c.6 0 1-.4 1-1s-.4-1-1-1h-4.3zM5272.7 2413.7h-4.3c-.6 0-1 .4-1 1s.4 1 1 1h4.3c.6 0 1-.4 1-1s-.4-1-1-1zM5272.7 2417h-4.3c-.6 0-1 .4-1 1s.4 1 1 1h4.3c.6 0 1-.4 1-1 0-.5-.4-1-1-1z"/>
  <g>
    <path fill="#ff2f00" stroke="#ff2f00" stroke-width="1" d="M92.7 46v-7.6c0-5.4-4.4-9.8-9.8-9.8S73 33 73 38.4V46c-2.9 2.7-4.8 6.5-4.8 10.8 0 8.1 6.6 14.6 14.6 14.6s14.6-6.6 14.6-14.6c.1-4.3-1.8-8.1-4.7-10.8zM76 38.4c0-3.8 3.1-6.9 6.9-6.9 3.8 0 6.9 3.1 6.9 6.9v5.5c-2.1-1.1-4.4-1.8-6.9-1.8s-4.8.7-6.9 1.8v-5.5zm6.9 30.1c-6.5 0-11.7-5.3-11.7-11.7 0-6.5 5.3-11.7 11.7-11.7 6.5 0 11.7 5.3 11.7 11.7 0 6.4-5.3 11.7-11.7 11.7z"/>
    <path fill="#ff2f00" stroke="#ff2f00" stroke-width="1" d="M86.2 53l-4.4 4.4-2.2-2.2c-.6-.6-1.5-.6-2.1 0-.6.6-.6 1.5 0 2.1l3.3 3.3c.3.3.7.4 1 .4s.7-.1 1-.4l5.5-5.5c.6-.6.6-1.5 0-2.1-.6-.6-1.5-.6-2.1 0zM24.1 46.4c-.4-.7-1.3-.9-2-.5l-2.8 1.6v-3.2c0-.8-.7-1.5-1.5-1.5s-1.5.7-1.5 1.5v3.2l-2.8-1.6c-.7-.4-1.6-.2-2 .5-.4.7-.2 1.6.5 2l2.8 1.6-2.8 1.6c-.7.4-.9 1.3-.5 2 .3.5.8.7 1.3.7.2 0 .5-.1.7-.2l2.8-1.6v3.2c0 .8.7 1.5 1.5 1.5s1.5-.7 1.5-1.5v-3.2l2.8 1.6c.2.1.5.2.7.2.5 0 1-.3 1.3-.7.4-.7.2-1.6-.5-2L20.8 50l2.8-1.6c.7-.4.9-1.3.5-2zM42.9 46.4c-.4-.7-1.3-.9-2-.5l-2.8 1.6v-3.2c0-.8-.7-1.5-1.5-1.5s-1.5.7-1.5 1.5v3.2l-2.8-1.6c-.7-.4-1.6-.2-2 .5-.4.7-.2 1.6.5 2l2.8 1.6-2.8 1.6c-.7.4-.9 1.3-.5 2 .3.5.8.7 1.3.7.2 0 .5-.1.7-.2l2.8-1.6v3.2c0 .8.7 1.5 1.5 1.5s1.5-.7 1.5-1.5v-3.2l2.8 1.6c.2.1.5.2.7.2.5 0 1-.3 1.3-.7.4-.7.2-1.6-.5-2L39.6 50l2.8-1.6c.7-.4 1-1.3.5-2zM61.8 46.4c-.4-.7-1.3-.9-2-.5L57 47.5v-3.2c0-.8-.7-1.5-1.5-1.5s-1.5.7-1.5 1.5v3.2l-2.8-1.6c-.7-.4-1.6-.2-2 .5-.4.7-.2 1.6.5 2l2.8 1.6-2.8 1.6c-.7.4-.9 1.3-.5 2 .3.5.8.7 1.3.7.2 0 .5-.1.7-.2l2.8-1.6v3.2c0 .8.7 1.5 1.5 1.5s1.5-.7 1.5-1.5v-3.2l2.8 1.6c.2.1.5.2.7.2.5 0 1-.3 1.3-.7.4-.7.2-1.6-.5-2L58.4 50l2.8-1.6c.7-.4 1-1.3.6-2z"/>
    <path fill="#ff2f00" stroke="#ff2f00" stroke-width="1" d="M68.8 36.8c0-.8-.7-1.5-1.5-1.5H10.9c-4.7 0-8.4 3.8-8.4 8.4v12.5c0 4.7 3.8 8.4 8.4 8.4h52.4c.8 0 1.5-.7 1.5-1.5s-.7-1.5-1.5-1.5H10.9c-3 0-5.5-2.5-5.5-5.5V43.7c0-3 2.5-5.5 5.5-5.5h56.4c.8 0 1.5-.6 1.5-1.4z"/>
  </g>
</svg>
