<svg height="100" width="100" 
  xmlns="http://www.w3.org/2000/svg">
  <path fill="#ff2f00" d="M50 .423c-11.967 0-21.704 9.736-21.704 21.704v18.94h-7.148c-3.941 0-7.148 3.208-7.148 7.149v44.213c0 3.942 3.207 7.148 7.148 7.148h57.704c3.941 0 7.148-3.206 7.148-7.148V48.216c0-3.942-3.207-7.148-7.148-7.148h-7.148V22.127C71.704 10.159 61.968.423 50 .423zm0 4.765c9.34 0 16.938 7.6 16.938 16.939v18.94H33.061v-18.94c0-9.34 7.6-16.939 16.939-16.939zM21.148 45.833h57.704a2.385 2.385 0 0 1 2.382 2.383V92.43a2.386 2.386 0 0 1-2.382 2.382H21.148a2.385 2.385 0 0 1-2.382-2.382V48.216a2.386 2.386 0 0 1 2.382-2.383zM50 54.003c-5.425 0-9.84 4.415-9.84 9.84a9.882 9.882 0 0 0 3.071 7.145v8.884a6.777 6.777 0 0 0 6.77 6.77 6.777 6.777 0 0 0 6.768-6.77v-8.884a9.883 9.883 0 0 0 3.071-7.144c0-5.426-4.414-9.84-9.84-9.84zm0 4.766a5.08 5.08 0 0 1 5.074 5.075 5.028 5.028 0 0 1-1.592 3.694 4.689 4.689 0 0 0-1.478 3.395v8.94A2.005 2.005 0 0 1 50 81.875a2.006 2.006 0 0 1-2.003-2.004v-8.94a4.69 4.69 0 0 0-1.478-3.394 5.029 5.029 0 0 1-1.594-3.694A5.08 5.08 0 0 1 50 58.769z"/>
</svg>
