<svg height="100" width="100" 
  xmlns="http://www.w3.org/2000/svg" viewBox="0 0 50 50">
  <path fill-rule="evenodd" clip-rule="evenodd" fill="#ff2f00" d="M12.966 4.382c0 .853-.679 1.532-1.532 1.532a1.522 1.522 0 0 1-1.531-1.532c0-.853.678-1.531 1.531-1.531a1.52 1.52 0 0 1 1.532 1.531M5.56 50h38.88V20.009h-6.978a9.73 9.73 0 0 0-.804-2.764l-1.396-3.096c-1.208-2.615-3.157-4.815-5.821-6.301 1.334 2.617 2.379 5.423 2.277 8.98l1.222-.923 1.15 2.558c.227.505.385 1.023.48 1.545H20.018l-5.59-12.433c.887-.856 1.388-1.95 1.388-3.195A4.39 4.39 0 0 0 11.434 0a4.39 4.39 0 0 0-4.381 4.382 4.39 4.39 0 0 0 4.381 4.382l.405-.019 5.065 11.264H5.56V50zm19.439-11.757l16.591-8.659V47.15H8.41V29.583l16.589 8.66zM21.3 22.859h20.29v3.524l-16.591 8.66-16.59-8.66v-3.524h9.775l1.029 2.288a9.531 9.531 0 0 0 4.475 4.643c.277.752.761 1.25 1.311 1.25.861 0 1.56-1.222 1.56-2.73s-.699-2.73-1.56-2.73c-.474 0-.898.37-1.184.953a6.638 6.638 0 0 1-2.008-2.545l-.507-1.129z"/>
</svg>
