<svg xmlns="http://www.w3.org/2000/svg" viewBox="0 0 340 260" width="340" height="260" enable-background="new 0 0 340 260">
  <style></style>
  <path d="M203.3 169.8h-16.7v-9.3h16.7v9.3zm-15.6-1h14.7v-7.3h-14.7v7.3z"/>
  <path d="M187.7 161.5h14.6v8.4h-14.6v-8.4z" fill="#f7c989"/>
  <path d="M187.5 164.4c5.3 1.2 10.3 1.2 15 0v-2.6h-15"/>
  <path d="M174 170h13.1v-9c-.5.2-.9.2-1 0-7.9-9.2-16-15.1-16-20v-30.9c12.8 1.3 24.8-1.4 35.9-8.1-.1 1.3-.1 2.3 0 2.9 1.3 7.3 6.4 12.2 14 14v22c-7.6 9.7-13 16.4-16 20-.2.2-.8-.1-1 0v9h13c.2-9.8 6.8-15.4 19.9-16.8-5.2-11.2-7.9-21.4-8.1-30.7-.2-13.9-1.5-38.3-21.7-42.5-4.4.9-7.3 2.1-8.5 3.3 1.1-4.1-2.7-6.2-11.2-6.2-12.8 0-26.8 11.7-27.8 35.5 6.6 21.8 5.8 36-2.5 42.8l3.5.1c7.1 1.1 11.5 4.5 13.2 10l1.2 4.6z" fill="#111130"/>
  <g>
    <path d="M170.3 141.6v-31.2c5.4.6 10.8.3 16-.9 5.3-1.2 11.9-3.5 19.6-7.1 0 8.3 4.8 14 14.2 17v22.3h-.1c-.3 13.1-11.3 20.5-24.9 20.5-13.5-.1-24.5-7.5-24.8-20.6z" fill="#f7c989"/>
    <path d="M195.2 162.6c-14.7 0-24.9-8.2-25.4-20.5v-32.3l.6.1c5.3.6 10.6.3 15.9-.9 5.3-1.2 11.8-3.5 19.5-7.1l.7-.3v.8c0 8.2 4.6 13.6 13.9 16.5l.3.1v23.2h-.1c-.5 12.2-10.7 20.4-25.4 20.4zm-24.4-21.2v.2c.3 12 10.1 20 24.4 20s24.1-8.1 24.4-20l.1-.5v-21.5c-9.1-3-13.9-8.5-14.2-16.6-7.4 3.4-13.8 5.7-19 6.9-5.1 1.1-10.4 1.5-15.6 1v30.5z"/>
  </g>
  <defs>
    <filter id="Adobe_OpacityMaskFilter" filterUnits="userSpaceOnUse" x="181.8" y="143.3" width="26.9" height="6.5">
      <feColorMatrix values="1 0 0 0 0 0 1 0 0 0 0 0 1 0 0 0 0 0 1 0"/>
    </filter>
  </defs>
  <mask maskUnits="userSpaceOnUse" x="181.8" y="143.3" width="26.9" height="6.5" id="f_1_">
    <g filter="url(#Adobe_OpacityMaskFilter)">
      <path id="e_2_" d="M170.3 141.6v-31.2c5.4.6 10.8.3 16-.9 5.3-1.2 11.9-3.5 19.6-7.1 0 8.3 4.8 14 14.2 17v22.3h-.1c-.3 13.1-11.3 20.5-24.9 20.5-13.5-.1-24.5-7.5-24.8-20.6z" fill="#fff"/>
    </g>
  </mask>
  <g mask="url(#f_1_)">
    <path d="M195.2 149.7c-6.2 0-10.6-1.6-13.2-4.8-.3-.4-.3-1.1.1-1.4.4-.3 1.1-.3 1.4.1 2.2 2.7 6.1 4.1 11.7 4.1s9.5-1.4 11.7-4.1c.3-.4 1-.5 1.4-.1.4.3.5 1 .1 1.4-2.5 3.2-7 4.8-13.2 4.8z"/>
  </g>
  <path d="M171.2 144.5c.7.7 2.1-30.6 2.7-30.6 11 .8 20.9-1.2 31.2-6.2 2.5 6.9 8 11.8 15 13.9v-2.2c-8.7-3.7-13.8-9.4-13.8-16.9-10 5.8-22.4 8-35.7 8-.6 21.7.1 33.6.6 34z"/>
  <path d="M195.2 137.6c-1.6 0-2.9-.4-3.7-1.3-.8-.8-1.2-2.1-1.2-3.7 0-.3.2-.5.5-.5s.5.2.5.5c0 1.3.3 2.3 1 3 .6.6 1.6 1 3 1 2.7 0 4-1.3 4-4 0-.3.2-.5.5-.5s.5.2.5.5c-.2 3.3-1.9 5-5.1 5zm-17.5-20.9l-.5-1.9 10.7-2.7.5 1.9-10.7 2.7zm34.1-.1l-8.9-3.6.7-1.9 8.9 3.6-.7 1.9z"/>
  <path d="M182.8 119.7c-1.7 0-3.2 1.4-3.2 3.2s1.4 3.2 3.2 3.2 3.2-1.4 3.2-3.2-1.5-3.2-3.2-3.2zm24.9 0c-1.7 0-3.2 1.4-3.2 3.2s1.4 3.2 3.2 3.2 3.2-1.4 3.2-3.2-1.5-3.2-3.2-3.2z" fill="#373c50"/>
  <path d="M173.9 170.7c-.2 0-.5-.2-.5-.4-1.2-9.3-6.8-13.8-17.3-13.8-.2 0-.4-.1-.5-.3-.1-.2-.1-.4.1-.5 4.6-5.5 7-11.7 7-18.4 0-5.6-1.3-10.7-2.5-15.2-1-3.8-1.9-7.4-1.9-10.7 0-8.9 5.3-34.4 29-34.4 7 .9 10.5 2.2 11.2 4.1.1.3.1.6.1 1 2.6-1.6 5.3-2.4 8.3-2.4 6.1 0 21 11.1 21 31.7 0 21.4 9 41.6 9 41.9 0 .5-.4.5-.7.5-4.7.5-20 3-20 16.4 0 .3-.2.5-.5.5s-.5-.2-.5-.5c0-13.4 14.1-16.6 19.8-17.3-3.2-4.2-8.3-23.3-8.3-41.6 0-21.2-15.3-30.7-20-30.7-3.4 0-6.6 1.2-9.5 3.5-.2.2-.5.1-.7-.1-.2-.2-.2-.5 0-.7.7-.8 1-1.4.8-2-.4-1-2.4-2.5-10.3-3.4-22.8 0-27.9 24.8-27.9 33.4 0 3.1.9 6.7 1.9 10.4 1.2 4.6 2.5 9.8 2.5 15.5 0 6.6-2.2 12.8-6.6 18.3 10.3.3 16.1 5.3 17.3 14.7.2.2 0 .4-.3.5z"/>
  <path d="M1 53.2h168.8M14.3 30.9H192M62.3 96.1h84.4M14.3 74.7H152m-75.5-42v18.5m64-18.5v18.5m-96 3.8v18.5m32 3V95m32-40v18.5m32 3V95" opacity=".1" fill="none" stroke="#373c50" stroke-width="2" stroke-linecap="round" stroke-linejoin="round" enable-background="new"/>
  <g transform="translate(295 207)">
    <path d="M1 8v27c4.6 4 10.6 6 18 6s13.1-2 17-6V8.2c-4.2 3.4-9.6 5-16.1 5C13.4 13.2 7.1 11.5 1 8z" fill="#f7f9f9"/>
    <ellipse cx="18.5" cy="6.5" rx="17.5" ry="6.5" fill="#d3d7df" stroke="#e2e5ec"/>
    <ellipse cx="18.8" cy="8.8" rx="14.2" ry="2.8" fill="#9e6939"/>
    <path d="M1 7v27M36 7v27" fill="none" stroke="#e2e5ec"/>
    <path d="M37 29V14c3.9 0 7 3.6 7 7.5S40.9 29 37 29z" fill="none" stroke="#e2e5ec" stroke-width="2" stroke-linecap="round" stroke-linejoin="round"/>
    <path d="M1 35c4.1 4 9.9 6 17.5 6s13.4-2 17.5-6" fill="none" stroke="#e2e5ec" stroke-linecap="round"/>
    <path d="M1 8v26.3c.9.7 1.9 1.3 3 1.7V10.2L1 8z" opacity=".1" fill="#9da5b2" enable-background="new"/>
  </g>
  <g transform="translate(118 170.156)">
    <path id="a" d="M10.2 0h135.1c5.5 0 10 4.5 10 10 0 .7-.1 1.3-.2 1.9l-13.8 69.3c-.9 4.7-5 8.1-9.8 8.1H24c-4.8 0-8.9-3.4-9.8-8.1L.4 11.9C-.6 6.5 2.9 1.3 8.3.2 8.9.1 9.6 0 10.2 0z" fill="#e2e5ec"/>
    <path d="M10.2.5C5 .5.7 4.8.7 10c0 .6.1 1.2.2 1.8l13.8 69.3c.9 4.4 4.8 7.6 9.3 7.7h107.6c4.5 0 8.4-3.2 9.3-7.7l13.8-69.3c1-5.1-2.3-10.1-7.5-11.2-.6-.1-1.2-.2-1.9-.2H10.2z" fill="none" stroke="#bac1d3"/>
    <path d="M146.8 1c4.4 2.2 6.6 4.6 6.6 7.1-2-3.4-4.4-5.1-7.1-5.1H8C4.3 4 2 5.7 1 8.1c1.6-4 3.7-6.4 6.2-7.1h139.6z" opacity=".25" fill="#fff" enable-background="new"/>
    <path d="M21.5 88.4h112.1c4.4-2.2 6.6-4.6 6.6-7.1-2 2.4-4.4 3.6-7.2 3.6H22.4c-3.8.1-6.2-1.1-7.1-3.6 1 4 2.8 6.4 5.4 7.2l.8-.1z" opacity=".05" fill="#373c50" enable-background="new"/>
    <ellipse cx="78" cy="44.6" rx="8.9" ry="8.9" opacity=".497" fill="#9da5b2" enable-background="new"/>
  </g>
  <path d="M53.8 236.5h7.1m10.6 0h57.8m133.9 0h8.9m8.7 0h13.3" opacity=".1" fill="none" stroke="#373c50" stroke-width="2" stroke-linecap="round" stroke-linejoin="round" enable-background="new"/>
  <path d="M309.3 6.2L257.2 6c-5.1 0-9.9 3.8-10.9 8.6l-8.8 43.5-2.8 13.9-1.7 8.6c-.4 2 1.9 3 3.7 1.6l12.8-10.1 46.1.2c5 0 9.9-3.8 10.9-8.6l9.9-49.1c1-4.6-2.2-8.3-7.1-8.4z" fill="#f7f9f9" stroke="#373c50" stroke-opacity=".246"/>
  <path d="M276.6 54.3c-1.2.5-2.6.2-3.5-.6-.9-.8-1.2-2.1-.7-3.2s1.7-1.8 3-1.8c.8 0 1.7.3 2.3.9.6.6 1 1.3 1 2.1-.1 1.1-.9 2.1-2.1 2.6zm-7.3-23.9c.8-.3 1.5-.8 1.8-1.5.8-1.4 2.3-2.4 4.1-2.4 2.5 0 4.5 1.8 4.6 4.1.1 1.8-1.2 3.5-3.1 4.1-2.8.8-4.7 3.2-4.7 5.8v2.3c0 1.6 1.4 2.9 3.2 2.9s3.2-1.3 3.2-2.9v-2.3c0-.2.3-.3.3-.3 2.2-.7 4.2-2 5.5-3.8 1.3-1.8 2-3.9 2-6-.1-2.6-1.3-5.1-3.4-6.9-2.1-1.8-4.8-2.9-7.7-2.9h-.1c-2.1 0-4.1.6-5.8 1.6-1.7 1-3.1 2.4-4 4.1-.4.7-.4 1.5-.1 2.2.3.7.9 1.3 1.6 1.7.9.4 1.8.4 2.6.2z" opacity=".75" fill="#373c50" enable-background="new"/>
</svg>
