<svg xmlns="http://www.w3.org/2000/svg" viewBox="0 0 499 260" width="499" height="260">
  <style></style>
  <path d="M115.7 130.3c-1.8 5.8-7.8 11.8-4.5 11.3 2.8-.4 13.7-2.3 15.8-5" fill="#6c41db"/>
  <path d="M110.8 142.2c-.3 0-.7-.1-1-.4-.5-.8.3-2.2 1.8-4.6 1.2-2 2.8-4.5 3.6-7l1 .3c-.8 2.6-2.4 5.2-3.7 7.2-.8 1.4-1.9 3-1.8 3.5h.4c4.6-.7 13.7-2.6 15.5-4.8l.8.6c-2.5 3.1-14.8 5-16.1 5.2h-.5z"/>
  <path d="M171.5 130.3c1.8 5.8 7.8 11.8 4.5 11.3-2.8-.4-13.7-2.3-15.8-5" fill="#6c41db" stroke="#000" stroke-miterlimit="10"/>
  <path d="M151.2 172h-15.7c-.3 0-.5-.2-.5-.5v-8.3c0-.3.2-.5.5-.5h15.7c.3 0 .5.2.5.5v8.3c0 .3-.3.5-.5.5zm-15.2-1h14.7v-7.3H136v7.3z"/>
  <path d="M136 163.2h14.7v8.9H136v-8.9z" fill="#ffdbc3"/>
  <path d="M135.7 166.5c5.3 1.2 10.3 1.2 15 0v-2.6h-15"/>
  <path d="M168.1 111.6v32.1h-.1c-.5 12.9-11.4 20.5-24.7 20.5s-24.3-7.6-24.8-20.5v-32.1h.1c.7-13.7 7.6-20.5 20.7-20.5 10.2 0 7.5 6.2 15.3 6.2s5.1-4 9 .9c3.6 4.5 4.4 10.3 4.5 13.4z" fill="#ffdbc3"/>
  <path d="M143.3 164.8c-14.4 0-24.8-8.6-25.3-20.9v-32.2c0-.1 0-.2.1-.3.8-13.8 7.9-20.7 21.1-20.7 5.6 0 7.5 1.9 9.2 3.6 1.4 1.4 2.7 2.6 6.1 2.6 3.3 0 4.6-.7 5.4-1.1 1.5-.8 1.9-.4 4 2.2 3.9 4.9 4.5 11.1 4.6 13.6v32.2c0 .1 0 .2-.1.3-.4 12.2-10.8 20.7-25.1 20.7zM119 143.6c0 .1 0 .1 0 0 .5 12.1 10.2 20.2 24.3 20.2s23.8-8.1 24.2-20.1c0-.1 0-.2.1-.2v-31.9c-.1-2.4-.7-8.4-4.4-13.1-1.9-2.4-1.9-2.4-2.8-2-.9.5-2.4 1.3-5.9 1.3-3.8 0-5.4-1.5-6.8-2.9-1.6-1.6-3.3-3.3-8.5-3.3-12.9 0-19.5 6.6-20.2 20 0 .1 0 .2-.1.2l.1 31.8z"/>
  <path d="M116.3 122.5c-2.2-7.7-1.7-10.8-1.7-13.6 0-4.2 3.2-26.5 27.7-26.6 33.6-.1 28.3 26.1 28.7 41.4 0 .4-.5.5-.7.1 0 0-1.6-.9-4.5-5-.8-.5-27-7.4-34.3-22.5-5 3.1-6.9 9.2-9 16.2-.7 2.3-3.8 9-3.8 9l-2.4 1z"/>
  <path d="M143.3 151.9c-6.2 0-10.6-1.6-13.2-4.8-.3-.4-.3-1.1.2-1.4.4-.3 1.1-.3 1.4.2 2.2 2.7 6.1 4.1 11.6 4.1s9.4-1.4 11.6-4.1c.3-.4 1-.5 1.4-.2s.5 1 .2 1.4c-2.6 3.2-7 4.8-13.2 4.8zm0-11.2c-1.6 0-2.8-.4-3.7-1.3-.8-.8-1.2-2.1-1.2-3.7 0-.3.2-.5.5-.5s.5.2.5.5c0 1.3.3 2.3 1 3 .6.6 1.6 1 3 1 2.7 0 3.9-1.3 3.9-4 0-.3.2-.5.5-.5s.5.2.5.5c-.1 3.3-1.8 5-5 5z" fill="#7f4953"/>
  <path d="M130.9 119.8c-1.7 0-3.2 1.4-3.2 3.2s1.4 3.2 3.2 3.2 3.2-1.4 3.2-3.2-1.4-3.2-3.2-3.2zm24.9 0c-1.7 0-3.2 1.4-3.2 3.2s1.4 3.2 3.2 3.2 3.2-1.4 3.2-3.2-1.4-3.2-3.2-3.2z" fill="#373c50"/>
  <path transform="rotate(-9.556 130.9 113.9)" d="M125.5 112.9h10.8v2h-10.8z" fill="#7f4953"/>
  <path transform="rotate(-69.88 155.664 115.084)" d="M154.7 109.9h2v10.4h-2z" fill="#7f4953"/>
  <path d="M118.5 132.1v-13.4c-3.4 0-6.2 3.2-6.2 6.7 0 1.4.4 2.7 1.2 3.8 1.1 1.8 2.9 2.9 5 2.9z" fill="#ffdbc3"/>
  <path d="M118.5 132.6c-2.1 0-4.1-1.2-5.4-3.1-.8-1.2-1.3-2.7-1.3-4.1 0-3.8 3.1-7.2 6.7-7.2.3 0 .5.2.5.5v13.4c0 .1-.1.3-.1.4s-.3.1-.4.1zm-.5-13.3c-2.8.3-5.2 3-5.2 6.2 0 1.2.4 2.5 1.1 3.6 1 1.5 2.5 2.4 4.1 2.6v-12.4z"/>
  <path d="M114.8 119.6c-2.3-7.9-1.8-11.1-1.8-14 0-4.4 3.3-27.3 28.5-27.4 34.6-.1 29.1 26.9 29.6 42.7 0 .4-.5.5-.7.1 0 0-1.6-.9-4.6-5.1-.8-.5-26-6.5-33.5-22-5.3 2.3-9.8 8.4-11.2 15.8l-2.7 8.6-3.6 1.3z" fill="#6c41db"/>
  <path d="M170.8 121.8c-.3 0-.5-.1-.7-.3-.4-.3-2-1.5-4.6-5.1-.2-.1-.7-.2-1.2-.4-16.8-5.3-27.6-12.4-32.2-21.4-5.1 2.5-9.2 8.4-10.4 15.3l-2.8 8.9-4.4 1.5-.1-.5c-2-6.9-1.9-10.2-1.8-12.9v-1.2c0-7.2 5.3-27.8 29-27.9h.2c10.5 0 18 2.4 22.9 7.4 7.4 7.5 7.2 19.6 7.1 29.3 0 2.3-.1 4.5 0 6.5 0 .4-.2.7-.6.8h-.4zm.1-.9zm-38.3-27.6l.2.4c4.3 8.9 15 16 31.8 21.3 1 .3 1.4.4 1.5.5l.1.1c2.6 3.6 4.1 4.7 4.4 4.9v-6.2c.2-10 .3-21.3-6.8-28.6-4.7-4.8-12-7.1-22.2-7.1h-.2c-22.9.1-28 19.9-28 26.9v1.3c-.1 2.5-.1 5.7 1.6 12.1l2.9-1 2.6-8.3c1.3-7.3 5.8-13.7 11.4-16.1l.7-.2z"/>
  <path d="M168.3 131.8c3.4 0 6.2-3.3 6.2-6.7 0-3.5-2.8-6.7-6.2-6.7v13.4z" fill="#ffdbc3" stroke="#000" stroke-linecap="round" stroke-linejoin="round"/>
  <path d="M362.3 170.8h-16.7v-9.3h16.7v9.3zm-15.6-1h14.7v-7.3h-14.7v7.3z"/>
  <path d="M346.6 162h14.7v8.8h-14.7V162z" fill="#d89556"/>
  <path d="M346.4 165.4c5.3 1.2 10.4 1.2 15.2 0v-2.6h-15.2"/>
  <path d="M378.8 110.8v31.9h-.1c-.5 12.8-11.4 20.4-24.7 20.4s-24.3-7.6-24.8-20.4v-31.9h.1c.7-13.6 7.6-20.4 20.7-20.4 10.2 0 7.5 6.2 15.3 6.2s5.1-4 9 .9c3.5 4.4 4.4 10.2 4.5 13.3z" fill="#d89556"/>
  <path d="M354 163.6c-14.2 0-24.6-8.4-25.3-20.4v-32.9h.1c.9-13.5 8-20.4 21.1-20.4 5.6 0 7.5 1.9 9.2 3.5 1.4 1.4 2.7 2.6 6.1 2.6 3.3 0 4.6-.7 5.4-1.1 1.5-.8 1.9-.4 4 2.2 3.7 4.6 4.5 10.4 4.6 13.1v32.9h-.1c-.6 12.2-10.9 20.5-25.1 20.5zm-24.3-21.1v.2c.4 11.9 10.2 19.9 24.3 19.9 14.1 0 23.8-8 24.2-19.9l.1-.5v-31.4c-.1-2.4-.7-8.3-4.4-13-1.9-2.4-1.9-2.4-2.8-2-.9.5-2.4 1.3-5.9 1.3-3.8 0-5.4-1.5-6.8-2.9-1.6-1.6-3.3-3.2-8.5-3.2-12.9 0-19.5 6.5-20.2 19.9l-.1.5.1 31.1z"/>
  <path d="M354 142.1v-.2c21 0 21-6 21-8 0-1.3 1-2 3.1-2v15.5c-2.5 9.2-10.5 14.4-24.1 15.5v.2c-13.5-1.1-21.6-6.2-24.1-15.5v-15.5c2.1 0 3.1.7 3.1 2 0 2 0 8 21 8z" fill="#825059" opacity=".153"/>
  <path d="M331 115c.8-11.3 4.4-18.2 10.7-20.6 6.3-2.4 11-2.4 14.1 0 4 2.6 7.5 3.8 10.3 3.7 4.2-.2 6.5-3.2 7.5-1.2-.9-1.6-1.5-2.4-1.8-2.4-.4 0-3.2 1.9-6.2 1.7-3-.2-6.5-2.3-9.8-5.3-2.2-2-7.5-1.7-15.8.8-5.3 3.1-8.5 7.3-9.7 12.4-1.2 5.2-2 10.7-1 12.8-.1 0 1.7-1.9 1.7-1.9z"/>
  <path d="M354 150.7c-6.2 0-10.6-1.6-13.2-4.8-.3-.4-.3-1.1.2-1.4.4-.3 1.1-.3 1.4.2 2.2 2.7 6.1 4.1 11.6 4.1s9.4-1.4 11.6-4.1c.3-.4 1-.5 1.4-.2s.5 1 .2 1.4c-2.6 3.2-7.1 4.8-13.2 4.8zm0-11.2c-1.6 0-2.8-.4-3.7-1.3-.8-.8-1.2-2.1-1.2-3.7 0-.3.2-.5.5-.5s.5.2.5.5c0 1.3.3 2.3 1 3 .6.6 1.6 1 3 1 2.7 0 3.9-1.3 3.9-4 0-.3.2-.5.5-.5s.5.2.5.5c-.1 3.3-1.8 5-5 5z" fill="#7f4953"/>
  <path d="M325.5 118.5c-2.3-7.9-3.4-13.4-3.4-16.3 0-4.4 2.2-24.8 30.1-28.1 5.4 2 11.3 2 17.6 0 9.4-3 11.6 6.5 5.8 8.8 5.1 3 7.1 18.6 6.3 36.9 0 .4-.5.5-.7.1l-1.9-.1c-.3-6.9-.8-14.9-1.2-16.2-.4-1.3-2.1-4-5.1-8.2-.8-.5-1.6-.5-2.2 0-1 .8-6.2 2.3-9.5 0s-5.4-5.9-13-5.2c-7.6.7-17.6 3.7-18.9 18.1l-.2 8.9-3.7 1.3z" fill="#703424"/>
  <path d="M342.5 116.7h4.4l-4.4 10.7H338l4.5-10.7zm-4.7 0h2l-4.4 10.7h-2l4.4-10.7zm35.7 0h4.4l-4.4 10.7H369l4.5-10.7zm-4.5 0h2l-4.4 10.7h-2l4.4-10.7z" fill="#f7f9f9" opacity=".2"/>
  <path d="M329.2 131v-13.4c-3.4 0-6.2 3.2-6.2 6.7 0 1.4.4 2.7 1.2 3.8 1.1 1.7 2.9 2.9 5 2.9z" fill="#d89556"/>
  <path d="M328.7 118.1c-2.8.3-5.2 3-5.2 6.2 0 1.2.4 2.5 1.1 3.6 1 1.5 2.5 2.4 4.1 2.6v-12.4zm1 13.4h-.5c-2.1 0-4.1-1.2-5.4-3.1-.8-1.2-1.3-2.7-1.3-4.1 0-3.8 3.1-7.2 6.7-7.2h.5v14.4z"/>
  <ellipse cx="339.8" cy="122.1" rx="2.7" ry="2.7" fill="#373c50"/>
  <ellipse cx="368.2" cy="122.1" rx="2.7" ry="2.7" fill="#373c50"/>
  <path d="M377.3 130.1h-17.2v-1h17.2v1zm-29.2 0h-17.2v-1h17.2v1zm10.6-7.1h-9.2v-1h9.2v1z" fill="#707482"/>
  <path d="M382 119c-.3 0-.5-.2-.5-.5.5-18.2-1.2-30.3-4.7-34-.8-.8-1.6-1.2-2.5-1.2-.2 0-.4-.2-.5-.4s.1-.5.3-.6c3.4-1.3 5.2-3.4 4.6-5.2-.7-2.3-5-3.8-11.4-2.1-6.3 1.7-8.9 1.2-11.3.7-2-.4-4-.8-8.3.3-11.2 2.8-18.7 7.7-22.4 14.6-3.8 7-3.6 16.4.5 27.7.1.3 0 .5-.3.6s-.5 0-.6-.3c-4.2-11.6-4.3-21.2-.4-28.5 3.8-7.1 11.6-12.2 23-15.1 4.5-1.1 6.6-.7 8.7-.3 2.3.5 4.7 1 10.8-.7 7.1-1.8 11.7 0 12.6 2.8.5 1.7-.2 4-3.7 5.8.6.2 1.1.6 1.6 1.2 4.8 5 5.4 21.6 5 34.7 0 .3-.2.5-.5.5z"/>
  <path d="M332.1 115.8h14.6c1.1 0 2 .9 2 2v8.5c0 1.1-.9 2-2 2h-14.6c-1.1 0-2-.9-2-2v-8.5c0-1.1.8-2 2-2z" fill="#f7f9f9" opacity=".05"/>
  <path d="M346.7 129.3h-14.6c-1.7 0-3-1.3-3-3v-8.5c0-1.7 1.3-3 3-3h14.6c1.7 0 3 1.3 3 3v8.5c0 1.7-1.4 3-3 3zm-14.6-12.5c-.6 0-1 .4-1 1v8.5c0 .6.4 1 1 1h14.6c.6 0 1-.4 1-1v-8.5c0-.6-.4-1-1-1h-14.6z" fill="#373c50"/>
  <path d="M379 130.6c3.4 0 6.2-3.3 6.2-6.7 0-3.5-2.8-6.7-6.2-6.7v13.4z" fill="#d89556"/>
  <path d="M379 131.1h-.5v-14.4h.5c3.6 0 6.7 3.4 6.7 7.2 0 3.9-3.2 7.2-6.7 7.2zm.5-13.3v12.3c2.8-.3 5.2-3.1 5.2-6.2s-2.4-5.8-5.2-6.1z"/>
  <path d="M361.3 115.8h14.6c1.1 0 2 .9 2 2v8.5c0 1.1-.9 2-2 2h-14.6c-1.1 0-2-.9-2-2v-8.5c0-1.1.9-2 2-2z" fill="#f7f9f9" opacity=".05"/>
  <path d="M375.9 129.3h-14.6c-1.7 0-3-1.3-3-3v-8.5c0-1.7 1.3-3 3-3h14.6c1.7 0 3 1.3 3 3v8.5c0 1.7-1.3 3-3 3zm-14.6-12.5c-.6 0-1 .4-1 1v8.5c0 .6.4 1 1 1h14.6c.6 0 1-.4 1-1v-8.5c0-.6-.4-1-1-1h-14.6z" fill="#373c50"/>
  <g>
    <path d="M348.7 120.3h10.6v1.8h-10.6v-1.8z" fill="#373c50"/>
  </g>
  <g>
    <path d="M372.2 111.4l-9.7-3.6.7-1.9 9.7 3.6-.7 1.9zm-35.8-1.7l-.3-2 10.6-1.8.3 2-10.6 1.8z" fill="#7f4953"/>
  </g>
  <path d="M159 53.2h168.8M172.3 30.9H350M220.3 96.1h84.4M172.3 74.7H310m-75.5-42v18.5m64-18.5v18.5m-96 3.8v18.5m32 3V95m32-40v18.5m32 3V95" opacity=".1" fill="none" stroke="#373c50" stroke-width="2" stroke-linecap="round" stroke-linejoin="round"/>
  <g transform="translate(452 207)">
    <path d="M1.9 8v27c4.6 4 10.6 6 18 6S33 39 37 35V8.1c-4.2 3.4-9.6 5.1-16.2 5.1C14.3 13.2 8 11.5 1.9 8z" fill="#f7f9f9"/>
    <ellipse cx="19.6" cy="6.7" rx="17.7" ry="6.7" fill="#d3d7df" stroke="#e2e5ec"/>
    <ellipse cx="19.8" cy="10.6" rx="14.2" ry="2.8" fill="#9e6939"/>
    <path d="M1.9 7.1v27m35.4-27v27" fill="none" stroke="#e2e5ec"/>
    <path d="M38.2 29.5V14.2c3.9 0 7.1 3.7 7.1 7.6 0 4-3.2 7.7-7.1 7.7z" fill="none" stroke="#e2e5ec" stroke-linecap="round" stroke-width="2" stroke-linejoin="round"/>
    <path d="M1.9 34.7C6.1 38.9 12 41 19.6 41c7.7 0 13.6-2.1 17.7-6.2" fill="none" stroke="#e2e5ec" stroke-linecap="round"/>
    <path d="M1.8 7.8v26.5c.9.7 2 1.3 3.1 1.7V10L1.8 7.8z" opacity=".2" fill="#9da5b2"/>
  </g>
  <g transform="translate(276 170.156)">
    <path d="M10.2 0h135.1c5.5 0 10 4.5 10 10 0 .7-.1 1.3-.2 1.9l-13.8 69.3c-.9 4.7-5 8.1-9.8 8.1H24c-4.8 0-8.9-3.4-9.8-8.1L.4 11.9C-.6 6.5 2.9 1.3 8.3.2 8.9.1 9.6 0 10.2 0z" fill="#e2e5ec"/>
    <path d="M10.2.5C5 .5.7 4.8.7 10c0 .6.1 1.2.2 1.8l13.8 69.3c.9 4.4 4.8 7.6 9.3 7.7h107.6c4.5 0 8.4-3.2 9.3-7.7l13.8-69.3c1-5.1-2.3-10.1-7.5-11.2-.6-.1-1.2-.2-1.9-.2L10.2.5z" fill="none" stroke="#bac1d3"/>
    <path d="M146.8 1c4.4 2.2 6.6 4.6 6.6 7.1-2-3.4-4.4-5.1-7.1-5.1H8C4.3 4 2 5.7 1 8.1c1.6-4 3.7-6.4 6.2-7.1h139.6z" opacity=".25" fill="#fff"/>
    <path d="M21.5 88.4h112.1c4.4-2.2 6.6-4.6 6.6-7.1-2 2.4-4.4 3.6-7.2 3.6H22.4c-3.8.1-6.2-1.1-7.1-3.6 1 4 2.8 6.4 5.4 7.2l.8-.1z" opacity=".05" fill="#373c50"/>
    <ellipse cx="78" cy="44.6" rx="8.9" ry="8.9" opacity=".497" fill="#9da5b2"/>
  </g>
  <path d="M211.8 236.5h7.1m10.6 0h57.8m133.9 0h8.9m8.7 0h13.3m-406.1 0h7.1m9.8 0h14.2" opacity=".2" fill="none" stroke="#373c50" stroke-width="2" stroke-linecap="round" stroke-linejoin="round"/>
  <g transform="translate(66 170)">
    <path d="M10.2 0h135.1c5.5 0 10 4.5 10 10 0 .7-.1 1.3-.2 1.9l-13.8 69.3c-.9 4.7-5 8.1-9.8 8.1H24c-4.8 0-8.9-3.4-9.8-8.1L.4 11.9C-.6 6.5 2.9 1.3 8.3.2 8.9.1 9.6 0 10.2 0z" fill="#e2e5ec"/>
    <path d="M10.2.5C5 .5.7 4.8.7 10c0 .6.1 1.2.2 1.8l13.8 69.3c.9 4.4 4.8 7.6 9.3 7.7h107.6c4.5 0 8.4-3.2 9.3-7.7l13.8-69.3c1-5.1-2.3-10.1-7.5-11.2-.6-.1-1.2-.2-1.9-.2L10.2.5z" fill="none" stroke="#bac1d3"/>
    <path d="M21.5 88.4h112.1c4.4-2.2 6.6-4.6 6.6-7.1-2 2.4-4.4 3.6-7.2 3.6H22.4c-3.8.1-6.2-1.1-7.1-3.6 1 4 2.8 6.4 5.4 7.2l.8-.1z" opacity=".05" fill="#373c50"/>
    <path d="M147.4 1c4.4 2.2 6.6 4.6 6.6 7.1-2-3.4-4.4-5.1-7.1-5.1H8.7C5 4 2.6 5.7 1.7 8.1c1.6-4 3.7-6.4 6.2-7.1h139.5z" opacity=".25" fill="#fff"/>
    <ellipse cx="78" cy="44.6" rx="8.9" ry="8.9" opacity=".497" fill="#9da5b2"/>
  </g>
  <path d="M469.3 6.2L417.2 6c-5.1 0-9.9 3.8-10.9 8.6l-8.8 43.5-2.8 13.9-1.7 8.6c-.4 2 1.9 3 3.7 1.6l12.8-10.1 46.1.2c5 0 9.9-3.8 10.9-8.6l9.9-49.1c1-4.6-2.2-8.3-7.1-8.4zM26.1 14.6L36 63.7c1 4.8 5.9 8.6 10.9 8.6l46.1-.2 12.8 10.1c1.8 1.4 4.1.4 3.7-1.6l-1.7-8.6-2.8-13.9-8.8-43.5C95.2 9.8 90.4 6 85.3 6l-52 .2c-4.9.1-8.1 3.8-7.2 8.4z" fill="#f7f9f9" stroke="#373c50" stroke-opacity=".246"/>
  <path d="M65.1 33.3c1.2-3.2.5-6.8-2-9.2-1.6-1.6-3.8-2.5-6.2-2.5-1 0-2 .2-2.9.5l-.4.1 4.3 4.3-.7 3.5-4.2 1.4-4.2-4.4-.1.4c-1.1 3.1-.3 6.6 2.1 9 1.6 1.6 3.8 2.5 6.2 2.5 1.2 0 2.3-.2 3.4-.7l16 15.5c.6.5 1.3.8 2.1.8s1.5-.3 2.1-.9l.7-.7c1.1-1.1 1.1-2.9 0-4.1L65.1 33.3zm371.5 21c-1.2.5-2.6.2-3.5-.6s-1.2-2.1-.7-3.2 1.7-1.8 3-1.8c.8 0 1.7.3 2.3.9.6.6 1 1.3 1 2.1-.1 1.1-.9 2.1-2.1 2.6zm-7.3-23.9c.8-.3 1.5-.8 1.8-1.5.8-1.4 2.3-2.4 4.1-2.4 2.5 0 4.5 1.8 4.6 4.1.1 1.8-1.2 3.5-3.1 4.1-2.8.8-4.7 3.2-4.7 5.8v2.3c0 1.6 1.4 2.9 3.2 2.9s3.2-1.3 3.2-2.9v-2.3c0-.2.3-.3.3-.3 2.2-.7 4.2-2 5.5-3.8s2-3.9 2-6c-.1-2.6-1.3-5.1-3.4-6.9s-4.8-2.9-7.7-2.9h-.1c-2.1 0-4.1.6-5.8 1.6-1.7 1-3.1 2.4-4 4.1-.4.7-.4 1.5-.1 2.2s.9 1.3 1.6 1.7c.9.4 1.8.4 2.6.2z" opacity=".75" fill="#373c50"/>
  <path d="M44.3 216.4v27c-4.6 4-10.6 6-18 6s-13.1-2-17-6v-26.8c4.2 3.4 9.6 5 16.1 5 6.5 0 12.8-1.7 18.9-5.2z" fill="#f7f9f9"/>
  <ellipse cx="26.8" cy="214.9" rx="17.5" ry="6.5" fill="#d3d7df" stroke="#e2e5ec"/>
  <ellipse cx="26.3" cy="217.9" rx="15" ry="3.5" fill="#9e6939"/>
  <path d="M44.3 215.4v27m-35-27v27" fill="none" stroke="#e2e5ec"/>
  <path d="M8.3 237.4v-15c-3.9 0-7 3.6-7 7.5 0 3.8 3.1 7.5 7 7.5z" fill="none" stroke="#e2e5ec" stroke-linecap="round" stroke-width="2" stroke-linejoin="round"/>
  <path d="M44.3 243.4c-4.1 4-9.9 6-17.5 6s-13.4-2-17.5-6" fill="none" stroke="#e2e5ec" stroke-linecap="round"/>
</svg>
