<svg xmlns="http://www.w3.org/2000/svg" viewBox="0 0 48.4 53.5" width="53.5" height="53.5" class="ragtag-r-mark">
    <path d="M19.1 35.1l7 18.5 16.8-1.8-8.7-19.1.3-.2c6.5-4.4 9.8-9.5 9.8-15.1 0-3.9-1.4-7.1-4.1-9.5C35 3.3 25 2.1 10.4 4.3l-1 .2L0 52.7h15.7l3.4-17.6zm1.5-7.6l2.1-11h.4c2.8 0 4.2.6 4.8 1.2.6.5.8 1.2.8 2.1 0 1.6-.8 4.1-7.3 7.2l-.8.5z" fill="#fff"/>
    <path d="M48.4 14.6c0-4.1-1.5-7.4-4.3-9.9C38.8.1 28.6-1.1 13.9 1.1l-1.4.2L3 50.5h16.7l3.2-16.3 6.5 17.2 17.9-1.9-8.8-19.3c6.6-4.6 9.9-9.8 9.9-15.6zm-17.2.8c.3.3.7.7.7 1.8 0 1.5-.8 3.8-7 6.8l1.9-9.6c2.7-.1 3.9.6 4.4 1z"/>
</svg>
