<svg xmlns="http://www.w3.org/2000/svg" viewBox="0 0 268 60.7" width="268" height="60.7" class="ragtag-mark">
  <title>Ragtag</title>
  <style>
    .ragtag-mark-shadow {
      fill: #fff;
      stroke: #000;
      stroke-miterlimit: 10;
    }
    .ragtag-mark-type {
      fill: #000;
    }
  </style>
  <path
    class="ragtag-mark-shadow"
    d="M19.1 35.4l7 18.5 16.8-1.8L34.2 33l.3-.2c6.5-4.4 9.8-9.5 9.8-15.1 0-3.9-1.4-7.1-4.1-9.5C35 3.6 25 2.4 10.4 4.6l-1 .2L0 53h15.7l3.4-17.6zm1.5-7.5l2.1-11h.4c2.8 0 4.2.6 4.8 1.2.6.5.8 1.2.8 2.1 0 1.6-.8 4.1-7.3 7.2l-.8.5zM66.1 43.8H76v.5c0 2.3.1 5 .1 7.7v1.6l16.2-1-.1-1.6c-1-15.5-2.1-30.9-3.4-45.5l-.1-1.4H68.5L68 5c-7.5 15.5-14.6 31-21 46l-.9 2h15.3l1-.1.4-1c1-2.7 2.1-5.3 3.1-7.9l.2-.2zm9.6-12.2H71l.3-.7c1.1-2.7 2.1-5.2 3.1-7.6l.9-2.1.1 2.2c.1 2.5.2 5 .3 7.6v.6zM117.6 53.7l-1.6 7 14.6-.3 7-29.5-14.9.4-2 8.7h-.4c-2.7.2-4.7-.2-6-1.3-1.4-1.2-2.1-3.3-2.1-6.3 0-7.1 3.7-15 8.6-15 1.5 0 2.6.5 2.7 6.8v1.5l14.7-.2.1-1.4c.4-8.2-1-13.9-4.2-17.2-2.5-2.6-5.9-3.8-10.6-3.8-14.5 0-27.3 14.7-27.3 31.5 0 6.4 2 11.6 5.8 14.9 3.6 3.1 8.7 4.6 15 4.2h.6zM147.5 53h16.3l6.8-35.3h11.5l2.7-13.6h-39.3l-2.7 13.6h11.5L147.5 53zM192 43.8h9.9v.5c0 2.4.1 5.1.1 7.7v1.6l16.2-1-.1-1.5c-1-15.5-2.1-30.9-3.4-45.5l-.1-1.4h-20.2l-.4.8c-7.5 15.5-14.6 31-21 46l-1 2h16.3l.5-1.4c1-2.5 2-5 3-7.6l.2-.2zm9.6-12.2h-4.7l.3-.7c1.1-2.7 2.1-5.2 3.1-7.6l.9-2.1.1 2.2c.1 2.5.2 5 .3 7.6v.6zM243.5 53.7l-1.6 7 14.6-.3 7-29.5-14.9.4-2 8.7h-.4c-2.7.2-4.7-.2-6-1.3-1.4-1.2-2.1-3.3-2.1-6.3 0-7.1 3.7-15 8.6-15 1.5 0 2.6.5 2.7 6.8v1.5l14.7-.2.1-1.4c.4-8.2-1-13.9-4.2-17.2-2.5-2.6-5.9-3.8-10.6-3.8-14.5 0-27.3 14.7-27.3 31.5 0 6.4 2 11.6 5.8 14.9 3.6 3.1 8.7 4.6 15 4.2h.6z"/>
  <path
    class="ragtag-mark-type"
    d="M48.4 14.9c0-4.1-1.5-7.4-4.3-9.9C38.8.4 28.6-.8 13.9 1.4l-1.4.2L3 50.8h16.7l3.2-16.3 6.5 17.2 17.9-1.9-8.8-19.3c6.6-4.5 9.9-9.8 9.9-15.6zm-17.2.9c.3.3.7.7.7 1.8 0 1.5-.8 3.8-7 6.8l1.9-9.6c2.7-.1 3.9.5 4.4 1zM92.5 2.8L92.3 1h-21l-.5 1.1c-7.5 15.5-14.6 31-21 46l-1.2 2.8h16.1l1.4-.1.5-1.3c1-2.6 2.1-5.2 3.1-7.9h9.1c0 2.5.1 5.1.1 7.7v2.1L96 50.3l-.1-2c-1-15.5-2.1-30.8-3.4-45.5zM78.4 28.4H75c1.1-2.7 2.1-5.2 3.1-7.6.1 2.5.2 5 .3 7.6zM126.6 0c-14.8 0-27.8 14.9-27.8 32 0 6.6 2.1 11.8 6 15.3 3.7 3.2 8.9 4.7 15.3 4.3l-1.6 7 15.7-.3 7.2-30.5-16 .5-2 8.7c-2.5.2-4.4-.2-5.6-1.2-1.3-1.1-1.9-3.1-1.9-5.9 0-6.7 3.5-14.5 8.1-14.5 1 0 2.1 0 2.2 6.3v2l15.6-.2.1-1.9c.4-8.4-1.1-14.1-4.4-17.6-2.5-2.7-6-4-10.9-4zM188.6.9h-40.3l-2.8 14.6H157l-6.8 35.3h17.2l6.8-35.3h11.6zM218.4 2.8l-.2-1.8h-21l-.5 1.1c-7.5 15.5-14.6 31-21 46l-1.2 2.8h17.4l.6-1.6c1-2.6 2-5.1 3-7.7h9.1c.1 2.5.1 5.1.1 7.7v2.1l17.2-1.1-.1-2c-1-15.5-2.1-30.9-3.4-45.5zm-14.1 25.6h-3.4c1.1-2.7 2.1-5.2 3.1-7.6.1 2.5.2 5 .3 7.6zM263.6 4c-2.6-2.7-6.2-4-11-4-14.8 0-27.8 14.9-27.8 32 0 6.6 2.1 11.8 6 15.3 3.7 3.2 8.9 4.7 15.3 4.3l-1.6 7 15.7-.3 7.2-30.5-16 .5-2 8.7c-2.5.2-4.4-.2-5.6-1.2-1.3-1.1-1.9-3.1-1.9-5.9 0-6.7 3.5-14.5 8.1-14.5 1 0 2.1 0 2.2 6.3v2l15.6-.2.1-1.9c.4-8.4-1-14.2-4.3-17.6z"/>
</svg>
