<svg xmlns="http://www.w3.org/2000/svg" width="499" height="260">
    <style/>
    <path d="M170.8 156.4c1.1-.9 1.9-2.6 1.9-4.6 0-2.4-1.1-4.3-2.6-5 2.2-6.7 3.5-15.8 2.5-29.1-.2-13.9-1-34.3-29-33.7-28.6.7-26.6 21.9-27.6 45.7.4 5.4 1.2 10.2 2.2 14.3-1.3.8-2.2 2.4-2.2 4.2s.9 3.4 2.3 4.2c0 .2-.1.4-.1.6v.2c-1.4.8-2.3 2.2-2.3 3.7 0 1.7 1.1 3.1 2.7 3.9-.7.7-1.2 1.7-1.2 2.7 0 2.2 2 4 4.4 4 .5 0 1-.1 1.5-.3.4 1.9 1.9 3.3 3.6 3.3 1 0 1.9-.5 2.6-1.2.3 1 1.4 1.7 2.8 1.7 1 0 1.9-.4 2.4-1h2.3v-9c-.5.2-1-.5-1.2-.7-4.2-4.8-8.2-8-11.3-11.4 0-.2.1-.5.1-.7 0-2.6-1.8-4.6-4.1-4.8-.4-.8-.6-1.6-.6-2.4l2.3-34.7c9 6.3 30 6 42 0L170 141c-7.6 9.7-13 15.6-16 19.2-.2.2-.7.7-.9.8v9h5c.6.5 1.2.7 2 .7 1.1 0 2.1-.6 2.7-1.6 2.6.8 5.1.3 6-1.4.5-1 .4-2.3-.3-3.6 2.6-.3 4.5-2.1 4.5-4.3 0-1.4-.9-2.7-2.2-3.4z" fill="#2b1f21"/>
    <path d="M132.4 171.5c-1.3 0-2.4-.6-3-1.4-.7.6-1.5.9-2.4.9-1.8 0-3.3-1.3-4-3.2-3.1.7-6-1.5-6-4.3 0-.9.3-1.8.9-2.6-1.5-.9-2.4-2.4-2.4-4 0-1.5.8-3 2.3-3.9v-.2c-1.4-1-2.3-2.7-2.3-4.5s.8-3.4 2.1-4.4c-1-4.4-1.7-9.1-2.1-14.1.1-2.1.1-4 .2-6 .7-21.2 1.2-39.6 28-40.2 9.5-.2 16.7 2 21.5 6.6 7.6 7.3 7.9 19.5 8 27.6.9 11.5.1 21-2.4 28.8 1.5.9 2.5 2.9 2.5 5.2 0 1.8-.6 3.5-1.6 4.5 1.2.9 1.9 2.2 1.9 3.6 0 2.2-1.8 4.1-4.3 4.7.5 1.2.5 2.4 0 3.4-1 1.8-3.5 2.5-6.3 1.8-.8 1-1.8 1.5-2.9 1.5-.8 0-1.5-.3-2.2-.7h-5.3v-9.9l.4-.1c.1-.1.6-.4.7-.6.9-1.1 2-2.4 3.4-4 3.1-3.6 7.2-8.4 12.5-15.1l-5.5-33.8c-12.3 5.8-32 5.8-41.2.1l-2.2 33.8c0 .5.1 1.2.4 1.9 2.4.3 4.2 2.6 4.2 5.3v.6c1.2 1.3 2.6 2.7 4.1 4.1 2.1 2 4.6 4.3 7 7.2l.1.1c.4.5.5.5.6.5l.7-.2v10.2h-2.6c-.8.4-1.8.8-2.8.8zm-2.6-3.3l.2.9c.2.8 1.2 1.3 2.3 1.3.8 0 1.6-.3 2-.8l.2-.2h2v-8c-.5-.2-.8-.6-1-.8-2.5-2.8-4.9-5.1-7-7.2-1.6-1.5-3-2.9-4.3-4.3l-.2-.2v-.2c0-.2.1-.4.1-.7 0-2.3-1.6-4.2-3.6-4.3h-.3l-.1-.3c-.4-.9-.6-1.8-.6-2.6l2.4-35.6.7.5c8.7 6.1 29.2 6.1 41.5 0l.6-.3 5.8 35.6-.1.2c-5.3 6.8-9.6 11.7-12.7 15.3-1.3 1.5-2.4 2.8-3.3 3.9-.1.1-.5.5-.8.7v8.2h4.7l.1.1c1.2 1 3 .7 4-.7l.2-.3.4.1c2.5.7 4.7.3 5.5-1.2.4-.9.3-2-.3-3.1l-.4-.7.8-.1c2.3-.3 4.1-1.9 4.1-3.8 0-1.2-.7-2.4-1.9-3.1l-.6-.4.6-.4c1.1-.8 1.7-2.4 1.7-4.2 0-2.1-.9-4-2.3-4.5l-.4-.2.1-.4c2.6-7.8 3.4-17.3 2.5-28.9-.1-7.9-.4-19.9-7.7-26.9-4.6-4.4-11.6-6.5-20.8-6.3-25.8.6-26.3 17.7-27 39.2-.1 2-.1 3.9-.2 5.9.4 5 1.1 9.8 2.2 14.2l.1.3-.3.2c-1.2.8-2 2.2-2 3.8s.8 3.1 2.1 3.8l.3.2-.1.3c0 .2-.1.3-.1.5v.4l-.3.2c-1.3.8-2 2-2 3.2 0 1.4.9 2.7 2.5 3.5l.7.3-.5.5c-.7.6-1 1.5-1 2.4 0 2.3 2.5 4.1 5.2 3.2l.5-.2.1.5c.4 1.7 1.7 2.9 3.1 2.9.8 0 1.6-.4 2.2-1.1l.4-.3z"/>
    <path d="M153.3 169.8h-16.7v-9.3h16.7v9.3zm-15.6-1h14.7v-7.3h-14.7v7.3z"/>
    <path d="M137.6 161h14.7v8.8h-14.7V161z" fill="#a9621e"/>
    <path d="M137.2 164.8c5.3 1.2 10.8 1.1 15.5-.1v-3.1l-15.7-.2" opacity=".14"/>
    <g id="e_7_">
        <path d="M120.3 141.6l1.4-39.5c12 3.6 33 3.4 44.2-1.5l4.1 41h-.1c-.3 13.1-11.3 20.5-24.9 20.5-13.4 0-24.4-7.4-24.7-20.5z" fill="#a9621e"/>
        <path d="M145.2 162.6c-14.7 0-24.9-8.2-25.4-20.5l1.5-40.6.6.2c11.3 3.4 32.4 3.5 43.9-1.5l.6-.3 4.3 42.2h-.1c-.5 12.3-10.7 20.5-25.4 20.5zm-24.4-21.1c.3 12 10.1 20.1 24.4 20.1s24.1-8.1 24.4-20v-.4l-4-39.8c-11.9 4.8-32 4.7-43.3 1.4l-1.5 38.7z"/>
    </g>
    <path d="M145.2 149.7c-6.2 0-10.6-1.6-13.2-4.8-.3-.4-.3-1.1.1-1.4.4-.3 1.1-.3 1.4.1 2.2 2.7 6.1 4.1 11.7 4.1s9.5-1.4 11.7-4.1c.3-.4 1-.5 1.4-.1.4.3.5 1 .1 1.4-2.5 3.2-7 4.8-13.2 4.8zm0-12.1c-1.6 0-2.9-.4-3.7-1.3-.8-.8-1.2-2.1-1.2-3.7 0-.3.2-.5.5-.5s.5.2.5.5c0 1.3.3 2.3 1 3 .6.6 1.6 1 3 1 2.7 0 4-1.3 4-4 0-.3.2-.5.5-.5s.5.2.5.5c-.2 3.3-1.9 5-5.1 5z"/>
    <path d="M132.8 119.7c-1.7 0-3.2 1.4-3.2 3.2s1.4 3.2 3.2 3.2 3.2-1.4 3.2-3.2-1.5-3.2-3.2-3.2zm24.9 0c-1.7 0-3.2 1.4-3.2 3.2s1.4 3.2 3.2 3.2 3.2-1.4 3.2-3.2-1.5-3.2-3.2-3.2z" fill="#373c50"/>
    <path d="M127.7 116.7l-.5-1.9 10.7-2.7.5 1.9-10.7 2.7zm34.1-.1l-8.9-3.6.7-1.9 8.9 3.6-.7 1.9z"/>
    <path d="M121.8 102.6c12.4 5.4 32.2 6.5 43.8-.7" id="e_8_"/>
    <path d="M332.8 96.1l9.7-3.6c-.6-1.3.7-7.5-2.1-11.8-3.9-6.1-11.5-11.3-13.3-10.6-1.9.8-3.4 9.9-1.8 17 1 5 6.9 7.7 7.5 9z" fill="#fff"/>
    <path d="M332.8 96.6c-.2 0-.4-.1-.5-.3-.1-.3-.9-.9-1.7-1.5-2.1-1.6-5.2-4-6-7.6-1.6-7.2-.1-16.6 2.1-17.5 2.3-.9 10 4.6 14 10.7 2 3.1 2 7.1 2 9.7 0 1 0 1.9.1 2.2.1.1.1.3 0 .4l-.3.3-9.7 3.6c.1 0 0 0 0 0zm-5.3-26.1c-.1 0-.2 0-.3.1-1.5.6-3.1 9.4-1.5 16.4.7 3.3 3.7 5.5 5.6 7.1.8.6 1.4 1.1 1.7 1.5l8.9-3.3c-.1-.5-.1-1.2-.1-2.1 0-2.5 0-6.3-1.9-9.2-3.7-5.7-10.5-10.5-12.4-10.5z"/>
    <path d="M334.8 95l5.4-1.8c-.4-.9-.6-4.8-2.4-7.9-2.5-4.3-6.8-8.2-7.8-7.8-.9.4-1.2 6.3.1 11.1 1 3.3 4.3 5.5 4.7 6.4zm13.3-4s-6.6-20.8-5.8-22.5c.8-1.7 14.5-3.6 17.3.2.7 1-1.5 4.9-.4 5.2 1.3.5 1.2-5.3 2.6-5.8 1.1-.4 3.7 1.5 4.1 2.8 1.6 5-6.5 20-6.5 20h-11.3v.1z"/>
    <path d="M372.9 96c.5-1.3 6.5-4 7.6-9 1.6-7.1 0-16.2-1.8-17-1.9-.8-9.4 4.5-13.3 10.6-2.8 4.4-1.6 10.5-2.1 11.8l9.6 3.6z" fill="#fff"/>
    <path d="M372.9 96.5h-.2l-9.7-3.6c-.1 0-.2-.1-.3-.3-.1-.1-.1-.3 0-.4.1-.3.1-1.2.1-2.2 0-2.6 0-6.6 2-9.7 4-6.2 11.7-11.7 14-10.7 2.2.9 3.7 10.3 2.1 17.5-.8 3.6-3.9 6-6 7.6-.8.6-1.5 1.2-1.7 1.5.1.1-.1.3-.3.3zm-9.1-4.5l8.9 3.3c.3-.4.9-.9 1.7-1.5 1.9-1.5 4.9-3.8 5.6-7.1 1.6-7-.1-15.8-1.5-16.4-1.5-.6-8.8 4.3-12.7 10.4-1.9 2.9-1.9 6.7-1.9 9.2 0 .9 0 1.6-.1 2.1z"/>
    <path d="M370.9 94.8c.4-.9 3.7-3.1 4.6-6.5 1.3-4.8 1.1-10.7.1-11.1-.9-.4-5.3 3.6-7.8 7.8-1.8 3.1-2 7-2.4 7.9l5.5 1.9zm-24-4.1c-2.6-3.1-4.8-11.2-9.4-16.1-1.3-1.4 2.2-.6 3.2.3 3.7 3.2 10.5 16.9 10.5 16.9s-3.4-.1-4.3-1.1z"/>
    <path d="M334.1 107.2l39.3.3-.5 64.3-39.3-.3.5-64.3z" fill="#fff"/>
    <path d="M333.5 159.5c13.9 8.1 27 8.1 39.5 0l-.1-17.1h-39.6" opacity=".2"/>
    <path d="M378.1 109.4v32.1h-.1c-.5 12.9-11.4 20.5-24.7 20.5s-24.3-7.6-24.8-20.5l.1-32.1c.7-13.7 7.6-20.5 20.7-20.5 10.1 0 27.5-2.7 28.8 20.5z" fill="#fff"/>
    <path d="M353.3 162.6c-14.4 0-24.8-8.6-25.3-20.9v-.1l.1-32.1c.7-14 7.8-21 21.2-21h2.9c10-.2 25.2-.6 26.5 20.9v32.2c0 .1 0 .2-.1.3-.6 12.2-11 20.7-25.3 20.7zM329 141.5v.1c.4 12 10.2 20.1 24.3 20.1 14.1 0 23.8-8.1 24.2-20.1 0-.1 0-.2.1-.2v-31.9c-1.2-20.6-15.2-20.3-25.5-20.1h-2.9c-12.9 0-19.5 6.6-20.2 20v32.1z"/>
    <path d="M353.5 136.5c21.2-.2 22 9.8 24.1 9.8l-.1.8c-2.5 8.8-10.5 13.6-24.1 14.6v.2c-13.5-1-21.6-5.9-24.1-14.6l-.4-1.2c2.1.2 3.6-9.4 24.6-9.6z" opacity=".55"/>
    <path d="M332.1 97s4.9-3.5 12.6-5.8c1.8-.7.6 1.3 2.6 1 4.2-.6 8.6-.4 11.7 0 .6.1 1.3-1.3 1.8-1.2 5.1.9 12.6 4.3 13.6 6.2-4.4-11.9-26.9-9.1-35.2-6.5-5.3 3.1-7.1 6.3-7.1 6.3zm21.9 61.7c-3.2 0-5.5-1.3-6.9-3.8-.3-.5-.1-1.1.4-1.4.5-.3 1.1-.1 1.4.4 1 1.8 2.7 2.7 5.1 2.7s4.1-.9 5.1-2.7c.3-.5.9-.7 1.4-.4s.7.9.4 1.4c-1.4 2.6-3.7 3.8-6.9 3.8zm-12.7-11.5h-1c0-5.1 2.9-6.2 5.4-6.2 1.6 0 2.9.5 3.8 1.4 1 1 1.6 2.7 1.5 4.8h-1c0-1.9-.4-3.3-1.3-4.1-.7-.7-1.7-1.1-3.1-1.1-2.9 0-4.2 1.7-4.3 5.2zm15.7 0h-1c0-5.1 2.9-6.2 5.4-6.2 1.6 0 2.9.5 3.8 1.4 1 1 1.6 2.7 1.5 4.8h-1c0-1.9-.4-3.3-1.3-4.1-.7-.7-1.7-1.1-3.1-1.1-2.9-.1-4.3 1.6-4.3 5.2z"/>
    <ellipse cx="338.1" cy="113.1" rx="2.7" ry="2.7" fill="#373c50"/>
    <ellipse cx="369.5" cy="113.1" rx="2.7" ry="2.7" fill="#373c50"/>
    <path d="M334.5 171.5h-1v-16.4h1v16.4zm38.7-.2h-1V155h1v16.3zm-29.9-81.9s2.8 5.8 3.7 10.3c.8 3.5 3.4 31.8 6.2 31.8 3 0 5.5-28.4 6.1-32 .6-3.8 3.9-10.5 3.9-10.5m14.9 24.2c-.1-7-16.1-13.3-16.1-14.9 0-1.2 12.1-4.1 14 .7 1.3 3.4 2.1 14.2 2.1 14.2zm-49.5 0c.1-7 16.1-13.3 16.1-14.9 0-1.2-12.1-4.1-14 .7-1.3 3.4-2.1 14.2-2.1 14.2zm49.2 3.3c-1.3 4.2-18 5.3-17.8 7.1.1 1.4 16.5 2.7 18.6 0"/>
    <path d="M378.2 124.6c-1.9 6.6-21 6.5-20.6 8.3.3 1.4 18.2 6.7 20.5 3.7"/>
    <path d="M329 116.5c1.3 4.2 18 5.3 17.8 7.1-.1 1.4-16.5 2.7-18.6 0m43.9 38.6c-1.2 3.7-12.4 4.7-12.2 6.3.1 1.2 11.1 2.4 12.9 0m-38.4-6.3c1.2 3.7 12.4 4.7 12.2 6.3-.1 1.2-11.1 2.4-12.9 0" opacity=".8"/>
    <path d="M328.5 124.6c1.9 6.6 21 6.5 20.6 8.3-.3 1.4-18.2 6.7-20.5 3.7" opacity=".8"/>
    <path d="M375.1 111.7l-8.7-4.4.9-1.8 8.7 4.4-.9 1.8zm-43-1.2l-.5-1.9 9.5-2.2.5 1.9-9.5 2.2z"/>
    <path d="M159 53.2h168.8M172.3 30.9H350M220.3 96.1h84.4M172.3 74.7H310m-75.5-42v18.5m64-18.5v18.5m-96 3.8v18.5m32 3V95m32-40v18.5m32 3V95" opacity=".1" fill="none" stroke="#373c50" stroke-width="2" stroke-linecap="round" stroke-linejoin="round"/>
    <g transform="translate(452 207)">
        <path d="M1.9 8v27c4.6 4 10.6 6 18 6S33 39 37 35V8.1c-4.2 3.4-9.6 5.1-16.2 5.1C14.3 13.2 8 11.5 1.9 8z" fill="#f7f9f9"/>
        <ellipse cx="19.6" cy="6.7" rx="17.7" ry="6.7" fill="#d3d7df" stroke="#e2e5ec"/>
        <ellipse cx="19.8" cy="10.6" rx="14.2" ry="2.8" fill="#9e6939"/>
        <path d="M1.9 7.1v27m35.4-27v27" fill="none" stroke="#e2e5ec"/>
        <path d="M38.2 29.5V14.2c3.9 0 7.1 3.7 7.1 7.6 0 4-3.2 7.7-7.1 7.7z" fill="none" stroke="#e2e5ec" stroke-linecap="round" stroke-width="2" stroke-linejoin="round"/>
        <path d="M1.9 34.7C6.1 38.9 12 41 19.6 41c7.7 0 13.6-2.1 17.7-6.2" fill="none" stroke="#e2e5ec" stroke-linecap="round"/>
        <path d="M1.8 7.8v26.5c.9.7 2 1.3 3.1 1.7V10L1.8 7.8z" opacity=".2" fill="#9da5b2"/>
    </g>
    <g transform="translate(276 170.156)">
        <path id="a" d="M10.2 0h135.1c5.5 0 10 4.5 10 10 0 .7-.1 1.3-.2 1.9l-13.8 69.3c-.9 4.7-5 8.1-9.8 8.1H24c-4.8 0-8.9-3.4-9.8-8.1L.4 11.9C-.6 6.5 2.9 1.3 8.3.2 8.9.1 9.6 0 10.2 0z" fill="#e2e5ec"/>
        <path d="M10.2.5C5 .5.7 4.8.7 10c0 .6.1 1.2.2 1.8l13.8 69.3c.9 4.4 4.8 7.6 9.3 7.7h107.6c4.5 0 8.4-3.2 9.3-7.7l13.8-69.3c1-5.1-2.3-10.1-7.5-11.2-.6-.1-1.2-.2-1.9-.2L10.2.5z" fill="none" stroke="#bac1d3"/>
        <path d="M146.8 1c4.4 2.2 6.6 4.6 6.6 7.1-2-3.4-4.4-5.1-7.1-5.1H8C4.3 4 2 5.7 1 8.1c1.6-4 3.7-6.4 6.2-7.1h139.6z" opacity=".25" fill="#fff"/>
        <path d="M21.5 88.4h112.1c4.4-2.2 6.6-4.6 6.6-7.1-2 2.4-4.4 3.6-7.2 3.6H22.4c-3.8.1-6.2-1.1-7.1-3.6 1 4 2.8 6.4 5.4 7.2l.8-.1z" opacity=".05" fill="#373c50"/>
        <ellipse cx="78" cy="44.6" rx="8.9" ry="8.9" opacity=".497" fill="#9da5b2"/>
    </g>
    <path d="M211.8 236.5h7.1m10.6 0h57.8m133.9 0h8.9m8.7 0h13.3m-406.1 0h7.1m9.8 0h14.2" opacity=".2" fill="none" stroke="#373c50" stroke-width="2" stroke-linecap="round" stroke-linejoin="round"/>
    <g transform="translate(66 170)">
        <path id="d" d="M10.2 0h135.1c5.5 0 10 4.5 10 10 0 .7-.1 1.3-.2 1.9l-13.8 69.3c-.9 4.7-5 8.1-9.8 8.1H24c-4.8 0-8.9-3.4-9.8-8.1L.4 11.9C-.6 6.5 2.9 1.3 8.3.2 8.9.1 9.6 0 10.2 0z" fill="#e2e5ec"/>
        <path d="M10.2.5C5 .5.7 4.8.7 10c0 .6.1 1.2.2 1.8l13.8 69.3c.9 4.4 4.8 7.6 9.3 7.7h107.6c4.5 0 8.4-3.2 9.3-7.7l13.8-69.3c1-5.1-2.3-10.1-7.5-11.2-.6-.1-1.2-.2-1.9-.2L10.2.5z" fill="none" stroke="#bac1d3"/>
        <path d="M21.5 88.4h112.1c4.4-2.2 6.6-4.6 6.6-7.1-2 2.4-4.4 3.6-7.2 3.6H22.4c-3.8.1-6.2-1.1-7.1-3.6 1 4 2.8 6.4 5.4 7.2l.8-.1z" opacity=".05" fill="#373c50"/>
        <path d="M147.4 1c4.4 2.2 6.6 4.6 6.6 7.1-2-3.4-4.4-5.1-7.1-5.1H8.7C5 4 2.6 5.7 1.7 8.1c1.6-4 3.7-6.4 6.2-7.1h139.5z" opacity=".25" fill="#fff"/>
        <ellipse cx="78" cy="44.6" rx="8.9" ry="8.9" opacity=".497" fill="#9da5b2"/>
    </g>
    <path d="M469.3 6.2L417.2 6c-5.1 0-9.9 3.8-10.9 8.6l-8.8 43.5-2.8 13.9-1.7 8.6c-.4 2 1.9 3 3.7 1.6l12.8-10.1 46.1.2c5 0 9.9-3.8 10.9-8.6l9.9-49.1c1-4.6-2.2-8.3-7.1-8.4zM26.1 14.6L36 63.7c1 4.8 5.9 8.6 10.9 8.6l46.1-.2 12.8 10.1c1.8 1.4 4.1.4 3.7-1.6l-1.7-8.6-2.8-13.9-8.8-43.5C95.2 9.8 90.4 6 85.3 6l-52 .2c-4.9.1-8.1 3.8-7.2 8.4z" fill="#f7f9f9" stroke="#373c50" stroke-opacity=".246"/>
    <path d="M65.1 33.3c1.2-3.2.5-6.8-2-9.2-1.6-1.6-3.8-2.5-6.2-2.5-1 0-2 .2-2.9.5l-.4.1 4.3 4.3-.7 3.5-4.2 1.4-4.2-4.4-.1.4c-1.1 3.1-.3 6.6 2.1 9 1.6 1.6 3.8 2.5 6.2 2.5 1.2 0 2.3-.2 3.4-.7l16 15.5c.6.5 1.3.8 2.1.8s1.5-.3 2.1-.9l.7-.7c1.1-1.1 1.1-2.9 0-4.1L65.1 33.3zm371.5 21c-1.2.5-2.6.2-3.5-.6s-1.2-2.1-.7-3.2 1.7-1.8 3-1.8c.8 0 1.7.3 2.3.9.6.6 1 1.3 1 2.1-.1 1.1-.9 2.1-2.1 2.6zm-7.3-23.9c.8-.3 1.5-.8 1.8-1.5.8-1.4 2.3-2.4 4.1-2.4 2.5 0 4.5 1.8 4.6 4.1.1 1.8-1.2 3.5-3.1 4.1-2.8.8-4.7 3.2-4.7 5.8v2.3c0 1.6 1.4 2.9 3.2 2.9s3.2-1.3 3.2-2.9v-2.3c0-.2.3-.3.3-.3 2.2-.7 4.2-2 5.5-3.8s2-3.9 2-6c-.1-2.6-1.3-5.1-3.4-6.9s-4.8-2.9-7.7-2.9h-.1c-2.1 0-4.1.6-5.8 1.6-1.7 1-3.1 2.4-4 4.1-.4.7-.4 1.5-.1 2.2s.9 1.3 1.6 1.7c.9.4 1.8.4 2.6.2z" opacity=".75" fill="#373c50"/>
    <path d="M44.3 215.1v27c-4.6 4-10.6 6-18 6s-13.1-2-17-6v-26.8c4.2 3.4 9.6 5 16.1 5 6.5 0 12.8-1.7 18.9-5.2z" fill="#f7f9f9"/>
    <ellipse cx="26.8" cy="213.6" rx="17.5" ry="6.5" fill="#d3d7df" stroke="#e2e5ec"/>
    <ellipse cx="26.3" cy="216.6" rx="15" ry="3.5" fill="#9e6939"/>
    <path d="M44.3 214.1v27m-35-27v27" fill="none" stroke="#e2e5ec"/>
    <path d="M8.3 236.1v-15c-3.9 0-7 3.6-7 7.5 0 3.8 3.1 7.5 7 7.5z" fill="none" stroke="#e2e5ec" stroke-linecap="round" stroke-width="2" stroke-linejoin="round"/>
    <path d="M44.3 242.1c-4.1 4-9.9 6-17.5 6s-13.4-2-17.5-6" fill="none" stroke="#e2e5ec" stroke-linecap="round"/>
</svg>
