<svg xmlns="http://www.w3.org/2000/svg" viewBox="0 0 340 260" width="340" height="260" enable-background="new 0 0 340 260"><path d="M221.8 157.4c1.1-.9 1.9-2.6 1.9-4.6 0-2.4-1.1-4.3-2.6-5 2.2-6.7 3.5-15.8 2.5-29.1-.2-13.9-1-34.3-29-33.7-28.6.7-26.6 21.9-27.6 45.7.4 5.4 1.2 10.2 2.2 14.3-1.3.8-2.2 2.4-2.2 4.2 0 1.8.9 3.4 2.3 4.2 0 .2-.1.4-.1.6v.2c-1.4.8-2.3 2.2-2.3 3.7 0 1.7 1.1 3.1 2.7 3.9-.7.7-1.2 1.7-1.2 2.7 0 2.2 2 4 4.4 4 .5 0 1-.1 1.5-.3.4 1.9 1.9 3.3 3.6 3.3 1 0 1.9-.5 2.6-1.2.3 1 1.4 1.7 2.8 1.7 1 0 1.9-.4 2.4-1h2.3v-9c-.5.2-1-.5-1.2-.7-4.2-4.8-8.2-8-11.3-11.4 0-.2.1-.5.1-.7 0-2.6-1.8-4.6-4.1-4.8-.4-.8-.6-1.6-.6-2.4l2.3-34.7c9 6.3 30 6 42 0L221 142c-7.6 9.7-13 15.6-16 19.2-.2.2-.7.7-.9.8v9h5c.6.5 1.2.7 2 .7 1.1 0 2.1-.6 2.7-1.6 2.6.8 5.1.3 6-1.4.5-1 .4-2.3-.3-3.6 2.6-.3 4.5-2.1 4.5-4.3 0-1.4-.9-2.7-2.2-3.4z" fill="#2b1f21"/><path d="M183.4 172.5c-1.3 0-2.4-.6-3-1.4-.7.6-1.5.9-2.4.9-1.8 0-3.3-1.3-4-3.2-3.1.7-6-1.5-6-4.3 0-.9.3-1.8.9-2.6-1.5-.9-2.4-2.4-2.4-4 0-1.5.8-3 2.3-3.9v-.2c-1.4-1-2.3-2.7-2.3-4.5 0-1.8.8-3.4 2.1-4.4-1-4.4-1.7-9.1-2.1-14.1.1-2.1.1-4 .2-6 .7-21.2 1.2-39.6 28-40.2 9.5-.2 16.7 2 21.5 6.6 7.6 7.3 7.9 19.5 8 27.6.9 11.5.1 21-2.4 28.8 1.5.9 2.5 2.9 2.5 5.2 0 1.8-.6 3.5-1.6 4.5 1.2.9 1.9 2.2 1.9 3.6 0 2.2-1.8 4.1-4.3 4.7.5 1.2.5 2.4 0 3.4-1 1.8-3.5 2.5-6.3 1.8-.8 1-1.8 1.5-2.9 1.5-.8 0-1.5-.3-2.2-.7h-5.3v-9.9l.4-.1c.1-.1.6-.4.7-.6.9-1.1 2-2.4 3.4-4 3.1-3.6 7.2-8.4 12.5-15.1l-5.5-33.8c-12.3 5.8-32 5.8-41.2.1l-2.2 33.8c0 .5.1 1.2.4 1.9 2.4.3 4.2 2.6 4.2 5.3v.6c1.2 1.3 2.6 2.7 4.1 4.1 2.1 2 4.6 4.3 7 7.2l.1.1c.4.5.5.5.6.5l.7-.2v10.2h-2.6c-.8.4-1.8.8-2.8.8zm-2.6-3.3l.2.9c.2.8 1.2 1.3 2.3 1.3.8 0 1.6-.3 2-.8l.2-.2h2v-8c-.5-.2-.8-.6-1-.8-2.5-2.8-4.9-5.1-7-7.2-1.6-1.5-3-2.9-4.3-4.3l-.2-.2v-.2c0-.2.1-.4.1-.7 0-2.3-1.6-4.2-3.6-4.3h-.3l-.1-.3c-.4-.9-.6-1.8-.6-2.6l2.4-35.6.7.5c8.7 6.1 29.2 6.1 41.5 0l.6-.3 5.8 35.6-.1.2c-5.3 6.8-9.6 11.7-12.7 15.3-1.3 1.5-2.4 2.8-3.3 3.9-.1.1-.5.5-.8.7v8.2h4.7l.1.1c1.2 1 3 .7 4-.7l.2-.3.4.1c2.5.7 4.7.3 5.5-1.2.4-.9.3-2-.3-3.1l-.4-.7.8-.1c2.3-.3 4.1-1.9 4.1-3.8 0-1.2-.7-2.4-1.9-3.1l-.6-.4.6-.4c1.1-.8 1.7-2.4 1.7-4.2 0-2.1-.9-4-2.3-4.5l-.4-.2.1-.4c2.6-7.8 3.4-17.3 2.5-28.9-.1-7.9-.4-19.9-7.7-26.9-4.6-4.4-11.6-6.5-20.8-6.3-25.8.6-26.3 17.7-27 39.2-.1 2-.1 3.9-.2 5.9.4 5 1.1 9.8 2.2 14.2l.1.3-.3.2c-1.2.8-2 2.2-2 3.8 0 1.6.8 3.1 2.1 3.8l.3.2-.1.3c0 .2-.1.3-.1.5v.4l-.3.2c-1.3.8-2 2-2 3.2 0 1.4.9 2.7 2.5 3.5l.7.3-.5.5c-.7.6-1 1.5-1 2.4 0 2.3 2.5 4.1 5.2 3.2l.5-.2.1.5c.4 1.7 1.7 2.9 3.1 2.9.8 0 1.6-.4 2.2-1.1l.4-.3z"/><path d="M204.3 170.8h-16.7v-9.3h16.7v9.3zm-15.6-1h14.7v-7.3h-14.7v7.3z"/><path d="M188.6 162h14.7v8.8h-14.7V162z" fill="#a9621e"/><path d="M188.2 165.8c5.3 1.2 10.8 1.1 15.5-.1v-3.1l-15.7-.2" opacity=".14" enable-background="new"/><path d="M171.3 142.6l1.4-39.5c12 3.6 33 3.4 44.2-1.5l4.1 41h-.1c-.3 13.1-11.3 20.5-24.9 20.5-13.4 0-24.4-7.4-24.7-20.5z" fill="#a9621e"/><path d="M196.2 163.6c-14.7 0-24.9-8.2-25.4-20.5l1.5-40.6.6.2c11.3 3.4 32.4 3.5 43.9-1.5l.6-.3 4.3 42.2h-.1c-.5 12.3-10.7 20.5-25.4 20.5zm-24.4-21.1c.3 12 10.1 20.1 24.4 20.1s24.1-8.1 24.4-20v-.4l-4-39.8c-11.9 4.8-32 4.7-43.3 1.4l-1.5 38.7z"/><defs><filter id="a" filterUnits="userSpaceOnUse" x="182.8" y="144.3" width="26.9" height="6.5"><feColorMatrix values="1 0 0 0 0 0 1 0 0 0 0 0 1 0 0 0 0 0 1 0"/></filter></defs><mask maskUnits="userSpaceOnUse" x="182.8" y="144.3" width="26.9" height="6.5" id="b"><path d="M171.3 142.6v-31.2c5.4.6 10.8.3 16-.9 5.3-1.2 11.9-3.5 19.6-7.1 0 8.3 4.8 14 14.2 17v22.3h-.1c-.3 13.1-11.3 20.5-24.9 20.5-13.5-.1-24.5-7.5-24.8-20.6z" fill="#fff" filter="url(#a)"/></mask><g mask="url(#b)"><path d="M196.2 150.7c-6.2 0-10.6-1.6-13.2-4.8-.3-.4-.3-1.1.1-1.4.4-.3 1.1-.3 1.4.1 2.2 2.7 6.1 4.1 11.7 4.1s9.5-1.4 11.7-4.1c.3-.4 1-.5 1.4-.1.4.3.5 1 .1 1.4-2.5 3.2-7 4.8-13.2 4.8z"/></g><path d="M196.2 138.6c-1.6 0-2.9-.4-3.7-1.3-.8-.8-1.2-2.1-1.2-3.7 0-.3.2-.5.5-.5s.5.2.5.5c0 1.3.3 2.3 1 3 .6.6 1.6 1 3 1 2.7 0 4-1.3 4-4 0-.3.2-.5.5-.5s.5.2.5.5c-.2 3.3-1.9 5-5.1 5z"/><path d="M183.8 120.7c-1.7 0-3.2 1.4-3.2 3.2s1.4 3.2 3.2 3.2 3.2-1.4 3.2-3.2-1.5-3.2-3.2-3.2zm24.9 0c-1.7 0-3.2 1.4-3.2 3.2s1.4 3.2 3.2 3.2 3.2-1.4 3.2-3.2-1.5-3.2-3.2-3.2z" fill="#373c50"/><path d="M178.7 117.7l-.5-1.9 10.7-2.7.5 1.9-10.7 2.7zm34.1-.1l-8.9-3.6.7-1.9 8.9 3.6-.7 1.9z"/><path d="M172.8 103.6c12.4 5.4 32.2 6.5 43.8-.7" opacity=".17" enable-background="new"/><path d="M1 53.2h168.8M14.3 30.9H192M62.3 96.1h84.4M14.3 74.7H152m-75.5-42v18.5m64-18.5v18.5m-96 3.8v18.5m32 3V95m32-40v18.5m32 3V95" opacity=".1" fill="none" stroke="#373c50" stroke-width="2" stroke-linecap="round" stroke-linejoin="round" enable-background="new"/><g transform="translate(295 207)"><path d="M1 8v27c4.6 4 10.6 6 18 6s13.1-2 17-6V8.2c-4.2 3.4-9.6 5-16.1 5C13.4 13.2 7.1 11.5 1 8z" fill="#f7f9f9"/><ellipse cx="18.5" cy="6.5" rx="17.5" ry="6.5" fill="#d3d7df" stroke="#e2e5ec"/><ellipse cx="18.8" cy="8.8" rx="14.2" ry="2.8" fill="#9e6939"/><path d="M1 7v27M36 7v27" fill="none" stroke="#e2e5ec"/><path d="M37 29V14c3.9 0 7 3.6 7 7.5S40.9 29 37 29z" fill="none" stroke="#e2e5ec" stroke-width="2" stroke-linecap="round" stroke-linejoin="round"/><path d="M1 35c4.1 4 9.9 6 17.5 6s13.4-2 17.5-6" fill="none" stroke="#e2e5ec" stroke-linecap="round"/><path d="M1 8v26.3c.9.7 1.9 1.3 3 1.7V10.2L1 8z" opacity=".1" fill="#9da5b2" enable-background="new"/></g><g transform="translate(118 170.156)"><path d="M10.2 0h135.1c5.5 0 10 4.5 10 10 0 .7-.1 1.3-.2 1.9l-13.8 69.3c-.9 4.7-5 8.1-9.8 8.1H24c-4.8 0-8.9-3.4-9.8-8.1L.4 11.9C-.6 6.5 2.9 1.3 8.3.2 8.9.1 9.6 0 10.2 0z" fill="#e2e5ec"/><path d="M10.2.5C5 .5.7 4.8.7 10c0 .6.1 1.2.2 1.8l13.8 69.3c.9 4.4 4.8 7.6 9.3 7.7h107.6c4.5 0 8.4-3.2 9.3-7.7l13.8-69.3c1-5.1-2.3-10.1-7.5-11.2-.6-.1-1.2-.2-1.9-.2H10.2z" fill="none" stroke="#bac1d3"/><path d="M146.8 1c4.4 2.2 6.6 4.6 6.6 7.1-2-3.4-4.4-5.1-7.1-5.1H8C4.3 4 2 5.7 1 8.1c1.6-4 3.7-6.4 6.2-7.1h139.6z" opacity=".25" fill="#fff" enable-background="new"/><path d="M21.5 88.4h112.1c4.4-2.2 6.6-4.6 6.6-7.1-2 2.4-4.4 3.6-7.2 3.6H22.4c-3.8.1-6.2-1.1-7.1-3.6 1 4 2.8 6.4 5.4 7.2l.8-.1z" opacity=".05" fill="#373c50" enable-background="new"/><ellipse cx="78" cy="44.6" rx="8.9" ry="8.9" opacity=".497" fill="#9da5b2" enable-background="new"/></g><path d="M53.8 236.5h7.1m10.6 0h57.8m133.9 0h8.9m8.7 0h13.3" opacity=".1" fill="none" stroke="#373c50" stroke-width="2" stroke-linecap="round" stroke-linejoin="round" enable-background="new"/><path d="M309.3 6.2L257.2 6c-5.1 0-9.9 3.8-10.9 8.6l-8.8 43.5-2.8 13.9-1.7 8.6c-.4 2 1.9 3 3.7 1.6l12.8-10.1 46.1.2c5 0 9.9-3.8 10.9-8.6l9.9-49.1c1-4.6-2.2-8.3-7.1-8.4z" fill="#f7f9f9" stroke="#373c50" stroke-opacity=".246"/><path d="M276.6 54.3c-1.2.5-2.6.2-3.5-.6-.9-.8-1.2-2.1-.7-3.2s1.7-1.8 3-1.8c.8 0 1.7.3 2.3.9.6.6 1 1.3 1 2.1-.1 1.1-.9 2.1-2.1 2.6zm-7.3-23.9c.8-.3 1.5-.8 1.8-1.5.8-1.4 2.3-2.4 4.1-2.4 2.5 0 4.5 1.8 4.6 4.1.1 1.8-1.2 3.5-3.1 4.1-2.8.8-4.7 3.2-4.7 5.8v2.3c0 1.6 1.4 2.9 3.2 2.9s3.2-1.3 3.2-2.9v-2.3c0-.2.3-.3.3-.3 2.2-.7 4.2-2 5.5-3.8 1.3-1.8 2-3.9 2-6-.1-2.6-1.3-5.1-3.4-6.9-2.1-1.8-4.8-2.9-7.7-2.9h-.1c-2.1 0-4.1.6-5.8 1.6-1.7 1-3.1 2.4-4 4.1-.4.7-.4 1.5-.1 2.2.3.7.9 1.3 1.6 1.7.9.4 1.8.4 2.6.2z" opacity=".75" fill="#373c50" enable-background="new"/></svg>
