<svg xmlns="http://www.w3.org/2000/svg" viewBox="0 0 963.1 131" width="963.1" height="131" class="helpdesk-mark">
  <style>.helpdesk-mark-primary{fill:#6c41db}</style>
  <path d="M48 57.3l40.9.2 1.6-7.7-41-.1-1.5 7.6zm-3.5 17.2l30.8.1 1.6-7.6-30.9-.1-1.5 7.6z" class="helpdesk-mark-primary"/>
  <path d="M48.1 57.7l40.9.2 1.6-7.7-41-.1-1.5 7.6zm-3.5 17.2l30.8.1 1.6-7.6-30.9-.1-1.5 7.6z" class="helpdesk-mark-primary"/>
  <path d="M101.9 0H29.7C13.3 0 0 13.2 0 29.6v71.8C0 117.8 13.3 131 29.7 131h72.1c16.4 0 29.7-13.2 29.7-29.6V29.6C131.6 13.2 118.3 0 101.9 0zm5.6 38.6l-9.9 49.1c-1 4.8-5.8 8.6-10.9 8.6l-46.1-.2-12.8 10.1c-1.8 1.4-4.1.4-3.7-1.6l1.7-8.6 2.8-13.9 8.8-43.5c1-4.8 5.8-8.6 10.9-8.6l52.1.2c4.8.1 8 3.8 7.1 8.4zM194.7 96.1l-14.1-21h-11.4v21h-14.4V30.5h30c15.5 0 24.8 8.2 24.8 21.7v.2c0 10.6-5.7 17.3-14.1 20.4l16 23.5h-16.8zm.2-43.2c0-6.2-4.3-9.4-11.4-9.4h-14.4v18.9h14.6c7 0 11.1-3.8 11.1-9.3v-.2zM250.6 96.1v-5.4c-3.5 3.8-8.3 6.4-15.2 6.4-9.5 0-17.3-5.4-17.3-15.4v-.2c0-11 8.4-16 20.3-16 5.1 0 8.7.8 12.3 2.1v-.8c0-5.9-3.7-9.2-10.8-9.2-5.4 0-9.3 1-13.9 2.7l-3.6-10.9c5.5-2.4 11-4 19.5-4 15.6 0 22.4 8.1 22.4 21.7v29.2h-13.7zm.3-20.2c-2.4-1.1-5.6-1.9-9.1-1.9-6.1 0-9.9 2.4-9.9 6.9v.2c0 3.8 3.2 6.1 7.8 6.1 6.7 0 11.2-3.7 11.2-8.8v-2.5zM299.2 111.3c-8.2 0-15.9-1.9-22.2-5.3l4.9-10.7c5.2 2.9 10.3 4.6 17 4.6 9.8 0 14.4-4.7 14.4-13.7v-2.4c-4.2 5.1-8.8 8.2-16.4 8.2-11.7 0-22.3-8.5-22.3-23.5v-.2c0-15 10.8-23.5 22.3-23.5 7.8 0 12.4 3.3 16.2 7.5v-6.6h14.3v38.9c-.2 19.1-9.5 26.7-28.2 26.7zm14-42.9c0-6.8-5.3-11.6-12.3-11.6-6.9 0-12.2 4.8-12.2 11.6v.2c0 6.9 5.3 11.6 12.2 11.6 6.9 0 12.3-4.8 12.3-11.6v-.2zM357 97c-8.7 0-14.6-3.5-14.6-15.1V58h-6V45.8h6V33h14.3v12.9h11.8V58h-11.8v21.5c0 3.3 1.4 4.9 4.6 4.9 2.6 0 5-.7 7-1.8V94c-3.1 1.8-6.5 3-11.3 3zM408.4 96.1v-5.4c-3.5 3.8-8.3 6.4-15.2 6.4-9.5 0-17.3-5.4-17.3-15.4v-.2c0-11 8.4-16 20.3-16 5.1 0 8.7.8 12.3 2.1v-.8c0-5.9-3.7-9.2-10.8-9.2-5.4 0-9.3 1-13.9 2.7l-3.6-10.9c5.5-2.4 11-4 19.5-4 15.6 0 22.4 8.1 22.4 21.7v29.2h-13.7zm.3-20.2c-2.4-1.1-5.6-1.9-9.1-1.9-6.1 0-9.9 2.4-9.9 6.9v.2c0 3.8 3.2 6.1 7.8 6.1 6.7 0 11.2-3.7 11.2-8.8v-2.5zM457 111.3c-8.2 0-15.9-1.9-22.2-5.3l4.9-10.7c5.2 2.9 10.3 4.6 17 4.6 9.8 0 14.4-4.7 14.4-13.7v-2.4c-4.2 5.1-8.8 8.2-16.4 8.2-11.7 0-22.3-8.5-22.3-23.5v-.2c0-15 10.8-23.5 22.3-23.5 7.8 0 12.4 3.3 16.2 7.5v-6.6h14.3v38.9c-.1 19.1-9.5 26.7-28.2 26.7zm14-42.9c0-6.8-5.3-11.6-12.3-11.6-6.9 0-12.2 4.8-12.2 11.6v.2c0 6.9 5.3 11.6 12.2 11.6 6.9 0 12.3-4.8 12.3-11.6v-.2zM568.6 96.1V69.8H542v26.4h-14.4V30.5H542v26h26.6v-26H583v65.7h-14.4zM644 76h-35c1.4 6.5 5.9 9.9 12.3 9.9 4.8 0 8.3-1.5 12.2-5.2l8.2 7.2c-4.7 5.8-11.4 9.4-20.5 9.4-15.1 0-26.3-10.6-26.3-26v-.2c0-14.4 10.2-26.2 24.9-26.2 16.8 0 24.5 13 24.5 27.3v.2c-.1 1.4-.2 2.2-.3 3.6zm-24.3-19.7c-5.9 0-9.8 4.2-10.9 10.7h21.5c-.8-6.3-4.6-10.7-10.6-10.7zM655.4 96.1V27.6h14.3v68.5h-14.3zM713.1 97.1c-7.6 0-12.3-3.5-15.7-7.5v21.6h-14.3V45.8h14.3V53c3.5-4.7 8.3-8.2 15.7-8.2 11.7 0 22.9 9.2 22.9 26v.2c-.1 16.9-11 26.1-22.9 26.1zm8.6-26.2c0-8.4-5.6-13.9-12.3-13.9-6.7 0-12.2 5.5-12.2 13.9v.2c0 8.4 5.5 13.9 12.2 13.9 6.7 0 12.3-5.4 12.3-13.9v-.2zM782.8 96.1v-7.2c-3.5 4.7-8.3 8.2-15.7 8.2-11.7 0-22.9-9.2-22.9-26v-.2c0-16.8 11-26 22.9-26 7.6 0 12.3 3.5 15.7 7.5V27.6H797v68.5h-14.2zm.2-25.2c0-8.4-5.5-13.9-12.2-13.9-6.7 0-12.3 5.4-12.3 13.9v.2c0 8.4 5.6 13.9 12.3 13.9 6.7 0 12.2-5.5 12.2-13.9v-.2zM856.5 76h-35c1.4 6.5 5.9 9.9 12.3 9.9 4.8 0 8.3-1.5 12.2-5.2l8.2 7.2c-4.7 5.8-11.4 9.4-20.5 9.4-15.1 0-26.3-10.6-26.3-26v-.2c0-14.4 10.2-26.2 24.9-26.2 16.8 0 24.5 13 24.5 27.3v.2c-.1 1.4-.2 2.2-.3 3.6zm-24.3-19.7c-5.9 0-9.8 4.2-10.9 10.7h21.5c-.8-6.3-4.6-10.7-10.6-10.7zM884.9 97.1c-7 0-14.9-2.3-21.6-7.6l6.1-9.4c5.4 3.9 11.2 6 15.9 6 4.1 0 6-1.5 6-3.8v-.2c0-3.1-4.9-4.1-10.4-5.8-7-2.1-15-5.3-15-15.1V61c0-10.2 8.3-16 18.4-16 6.4 0 13.3 2.2 18.8 5.8l-5.4 9.9c-5-2.9-9.9-4.7-13.6-4.7-3.5 0-5.3 1.5-5.3 3.5v.2c0 2.8 4.8 4.1 10.2 6 7 2.3 15.2 5.7 15.2 14.9v.2c0 11.2-8.4 16.3-19.3 16.3zM946.8 96.1l-13.1-20.5-5 5.3v15.3h-14.3V27.6h14.3v36.5l16.7-18.3h17.1l-19.1 19.8 19.8 30.5h-16.4z" class="helpdesk-mark-primary"/>
</svg>
