<svg xmlns="http://www.w3.org/2000/svg" viewBox="0 0 269.1 98.3" class="empowered-by-ragtag" width="134" height="49">
  <title>Empowered by Ragtag</title>
  <path
    fill="#ffffff"
    stroke="#000000"
    stroke-miterlimit="10"
    d="M19.7 73.2l7 18.5 16.8-1.8-8.7-19.1.3-.2C41.7 66.1 45 61 45 55.4c0-3.9-1.4-7.1-4.1-9.5-5.2-4.5-15.2-5.7-29.8-3.5l-1 .2L.6 90.8h15.7l3.4-17.6zm1.5-7.4l2.1-11h.4c2.8 0 4.2.6 4.8 1.2.6.5.8 1.2.8 2.1 0 1.6-.8 4.1-7.3 7.2l-.8.5zM67.1 81.8h9.6v.5c0 2.2.1 4.9.1 7.5v1.6l16.2-1-.1-1.5c-1-15.6-2.1-30.9-3.4-45.6l-.1-1.4H69.1l-.4.8c-7.5 15.6-14.6 31-21.1 46l-.9 2.1h15.8l1-.1.4-.9c1-2.6 2-5.1 3-7.7l.2-.3zm9.2-13h-4.7l.3-.7c1.1-2.7 2.1-5.2 3.1-7.6l.9-2.1.1 2.2c.1 2.5.2 5 .3 7.6v.6zM117.9 90.8l-1.6 7 14.7-.3 7-29.5-15 .4-2 8.7h-.4c-2.7.2-4.7-.2-6-1.3-1.4-1.2-2.1-3.3-2.1-6.3 0-7.1 3.7-15 8.6-15 1.5 0 2.6.5 2.7 6.8v1.5l14.7-.2.1-1.4c.4-8.2-1-13.9-4.2-17.3-2.5-2.6-6-3.8-10.6-3.8-14.6 0-27.3 14.7-27.3 31.5 0 6.4 2 11.6 5.8 14.9 3.6 3.1 8.8 4.6 15 4.2l.6.1zM148.2 90.8h16.1l6.7-35h12.2l2.7-14h-40.4l-2.7 14H155l-6.8 35zM193.1 81.8h9.6v.5c0 2.4.1 4.9.1 7.5v1.6l16.2-1-.1-1.5c-1-15.6-2.1-30.9-3.4-45.6l-.1-1.4h-20.2l-.4.8c-7.5 15.5-14.6 31-21.1 46l-.9 2.1h16.8l.5-1.3c1-2.4 1.9-4.9 2.9-7.4l.1-.3zm9.1-13h-4.7l.3-.7c1.1-2.7 2.1-5.2 3.1-7.6l.9-2.1.1 2.2c.1 2.5.2 5 .3 7.6v.6zM243.9 90.8l-1.6 7 14.7-.3 7-29.5-15 .4-2 8.7h-.4c-2.7.2-4.7-.2-6-1.3-1.4-1.2-2.1-3.3-2.1-6.3 0-7.1 3.7-15 8.6-15 1.5 0 2.6.5 2.7 6.8v1.5l14.7-.2.1-1.4c.4-8.2-1-13.9-4.2-17.3-2.5-2.6-6-3.8-10.6-3.8-14.6 0-27.3 14.7-27.3 31.5 0 6.4 2 11.6 5.8 14.9 3.6 3.1 8.8 4.6 15 4.2l.6.1z"/>
  <path
    fill="#000000"
    d="M49.1 52.4c0-4.1-1.5-7.4-4.3-9.9-5.3-4.6-15.5-5.8-30.2-3.6l-1.4.2-9.6 49.2h16.7L23.4 72l6.5 17.2 17.9-1.9L39 68c6.7-4.6 10.1-9.8 10.1-15.6zm-17.3.8c.3.3.7.7.7 1.8 0 1.5-.8 3.8-7 6.8l1.9-9.6c2.7-.1 3.9.6 4.4 1zM93 40.1l-.2-1.8h-21l-.5 1.1C63.8 55 56.7 70.5 50.2 85.5L49 88.3h16.5l1.4-.1.5-1.2c1-2.5 2-5.1 3-7.7h8.8c0 2.4.1 5 .1 7.4v2.1l17.2-1.1-.1-2c-1-15.5-2.1-30.8-3.4-45.6zM79 65.3h-3.4c1.1-2.7 2.1-5.2 3.1-7.6.1 2.5.2 5.1.3 7.6zM127.7 37.6c-14.8 0-27.8 15-27.8 32 0 6.6 2.1 11.9 6 15.3 3.7 3.2 9 4.7 15.4 4.4l-1.6 7 15.7-.3 7.2-30.5-16 .5-2 8.7c-2.5.2-4.4-.2-5.6-1.2-1.3-1.1-2-3.1-2-6 0-6.7 3.5-14.5 8.1-14.5 1 0 2.1 0 2.2 6.3v2l15.7-.2.1-1.9c.4-8.4-1.1-14.2-4.4-17.6-2.6-2.7-6.2-4-11-4zM189.8 38.3h-41.4l-2.9 15h12.2l-6.8 35H168l6.8-35h12.1zM219 40.1l-.2-1.8h-21l-.5 1.1c-7.5 15.6-14.6 31.1-21.1 46.1l-1.2 2.8h17.9l.6-1.5c1-2.5 1.9-5 3-7.5h8.8c0 2.5.1 5 .1 7.4v2.1l17.2-1.1-.1-2c-1.1-15.5-2.2-30.8-3.5-45.6zm-14.1 25.2h-3.4c1.1-2.7 2.1-5.2 3.1-7.6.1 2.6.3 5.1.3 7.6zM264.7 41.6c-2.6-2.7-6.2-4-11-4-14.8 0-27.8 15-27.8 32 0 6.6 2.1 11.9 6 15.3 3.7 3.2 9 4.7 15.4 4.4l-1.6 7 15.7-.3 7.3-30.5-16 .5-2 8.7c-2.5.2-4.4-.2-5.6-1.2-1.3-1.1-2-3.1-2-6 0-6.7 3.5-14.5 8.1-14.5 1 0 2.1 0 2.2 6.3v2l15.7-.2.1-1.9c.2-8.4-1.2-14.1-4.5-17.6z"/>
  <path
    fill="#000000"
    d="M34.9 17.2c0-5.1 3.8-10.6 8.6-10.6 2.5 0 3.9 1.4 3.9 3.6 0 3.7-4 5.9-10.7 6.4v.4c0 4.1 2.8 5.3 9.5 2.8l.3 1.1c-7.7 4.1-11.6 1.3-11.6-3.7zm2-1.8c5.2-.4 8.7-2 8.7-4.8 0-1.4-.9-2.3-2.5-2.3-3.3 0-5.7 3.4-6.2 7.1zM68.2 21c0-2.5 2.2-7.9 2.2-10.6 0-1.2-.4-1.9-1.7-1.9-1.5 0-3.5 1.2-5.7 3.8l-2 10.3h-1.9l2.1-10.4c.5-2.6.2-3.6-1.3-3.6-1.6 0-3.6 1.2-5.6 3.9-.4 2.2-1.5 7.6-2 10.2h-1.9c1.4-7.4 2.1-10.8 2.8-15.5l1.8-.3c-.1.7-.4 2.4-.5 3.6 2.2-2.6 4.4-3.8 6.3-3.8 2 0 2.8 1.3 2.5 3.9 2.3-2.6 4.6-3.9 6.5-3.9 2 0 2.7 1.3 2.7 2.9 0 3.2-2.3 8.8-2.3 10.8 0 .9.5 1.2 3.3.1l.3 1c-3.9 2.1-5.6 1.4-5.6-.5zM75.7 28.1c2-10.4 3.1-15.8 3.9-21.1l1.9-.1c-.1.6-.3 2-.5 3.1 1.8-1.8 4.2-3.4 6-3.4 2 0 3.5 1.7 3.5 5.2 0 5.8-3.9 11-9.4 11-.7 0-1.6-.1-2.5-.2-.4 2-.8 3.9-1.1 5.3l-1.8.2zm12.9-15.9c0-2.6-1.1-3.8-2.4-3.8-1.6 0-3.8 1.5-5.4 3.2-.3 1.6-1 5.3-1.7 9 1.3.4 2.5.6 3.4.6 3.4 0 6.1-4.4 6.1-9zM102 6.6c3.2 0 5.4 2.3 5.4 6.3 0 5.4-3.8 10-8.2 10-3.3 0-5.4-2.3-5.4-6.3-.1-5.5 3.7-10 8.2-10zm-.5 1.7c-3.4 0-5.8 3.6-5.8 7.9 0 3.2 1.5 5.1 3.9 5.1 3.4 0 5.8-3.6 5.8-7.9 0-3.3-1.5-5.1-3.9-5.1zM118.7 13.5l-5.3 9h-1.9c0-3.8.4-9.7 1-15.5h2c-.5 4.6-.9 8.6-1.2 12.9h.1l5.3-9h1.3l1.9 9.1h.2c1.4-4.4 2.6-8.4 3.7-12.9h2.1c-1.4 5.2-3.1 9.9-5.3 15.5h-1.8l-2.1-9.1zM130 17.2c0-5.1 3.8-10.6 8.6-10.6 2.5 0 3.9 1.4 3.9 3.6 0 3.7-4 5.9-10.7 6.4v.4c0 4.1 2.8 5.3 9.5 2.8l.3 1.1c-7.7 4.1-11.6 1.3-11.6-3.7zm2-1.8c5.2-.4 8.7-2 8.7-4.8 0-1.4-.9-2.3-2.5-2.3-3.3 0-5.7 3.4-6.2 7.1zM155.9 9.2c-1.9.6-3.8 1-5.3 1-1.1 2.3-2.9 5.1-4.8 7.3l-.8-.8c2-2.5 3.4-4.5 4.2-6.6-.8-.2-1.3-.6-1.3-1.3 0-1.2 1.4-2.9 2.7-2.9.6 0 1 .4 1 1.2 0 .4-.1 1-.3 1.6 1.9-.2 4.3-.9 6.4-1.8l.8.6c-5.5 13.9-4.4 14.9.4 13.2l.2 1.1c-6.6 2.7-8.6.4-3.2-12.6zM161.9 17.2c0-5.1 3.8-10.6 8.6-10.6 2.5 0 3.9 1.4 3.9 3.6 0 3.7-4 5.9-10.7 6.4v.4c0 4.1 2.8 5.3 9.5 2.8l.3 1.1c-7.7 4.1-11.6 1.3-11.6-3.7zm1.9-1.8c5.2-.4 8.7-2 8.7-4.8 0-1.4-.9-2.3-2.5-2.3-3.2 0-5.6 3.4-6.2 7.1zM186.6 19.6c-1.8 1.8-4.1 3.2-5.9 3.2-2 0-3.6-1.7-3.6-5.2 0-5.8 3.9-11 9.3-11 .8 0 1.6.1 2.6.2l1.3-6.7 2-.2-3.6 18.5c-.5 2.6-.3 3.1 3.1 1.8l.3 1c-4.6 2.8-5.9 1.5-5.5-1.6zm.3-1.7l1.8-9c-1.3-.4-2.6-.6-3.5-.6-3.5 0-6.2 4.4-6.2 9 0 2.5 1.1 3.8 2.5 3.8 1.5-.1 3.8-1.5 5.4-3.2zM203.2 22.1L207.5.2l1.9-.2-1.9 9.9c1.8-1.8 4.1-3.3 5.9-3.3 2 0 3.5 1.7 3.5 5.2 0 5.7-3.9 11-9.3 11-1.3 0-2.9-.3-4.4-.7zm11.8-9.9c0-2.6-1.1-3.8-2.4-3.8-1.6 0-3.8 1.6-5.5 3.3l-1.7 8.9c1.3.4 2.6.6 3.4.6 3.5 0 6.2-4.4 6.2-9zM220.2 28l.3-2c6.3.5 8.8-.1 9.4-.8.8-.8.5-3.3.4-7.2-1.9 2.1-4.4 3.8-6.7 3.8-2.9 0-4.7-2.8-.3-14.7l1.9-.1c-3.9 10.8-2.8 13-.7 13 1.5 0 3.8-1.5 5.8-3.7.3-4.2 2.3-9.5 3.2-9.5.6 0 1.3.3 1.3.8 0 1.1-1.2 5.4-2.8 8.5v1.2c0 3.7.5 6.5-.4 8.1-.9 1.8-4.1 3-11.4 2.6z"/>
</svg>
