<svg xmlns="http://www.w3.org/2000/svg" class="empowered-by-ragtag" width="134" height="49">
  <title>Empoderado de Ragtag</title>
  <path d="M9.8 36.5l3.5 9.2 8.4-.9-4.3-9.5.1-.1c3.3-2.2 4.9-4.8 4.9-7.6 0-1.9-.7-3.5-2-4.7-2.6-2.2-7.6-2.8-14.8-1.7H5l-4.7 24h7.8l1.7-8.7zm.8-3.7l1-5.5h.2c1.4 0 2.1.3 2.4.6.3.2.4.6.4 1 0 .8-.4 2-3.6 3.6l-.4.3zm22.8 8h4.8v4.7l8.1-.5v-.7c-.5-7.8-1-15.4-1.7-22.7v-.7H34.4l-.2.4c-3.7 7.8-7.3 15.4-10.5 22.9l-.4 1h8.4l.2-.4c.5-1.3 1-2.5 1.5-3.8-.1-.1 0-.2 0-.2zm4.6-6.5h-2.3l.1-.3c.5-1.3 1-2.6 1.5-3.8l.4-1v1.1c0 1.2.1 2.5.1 3.8.2-.1.2.2.2.2zm20.7 10.9l-.8 3.5 7.3-.1 3.5-14.7-7.5.2-1 4.3H60c-1.3.1-2.3-.1-3-.6-.7-.6-1-1.6-1-3.1 0-3.5 1.8-7.5 4.3-7.5.7 0 1.3.2 1.3 3.4v.7l7.3-.1v-.7c.2-4.1-.5-6.9-2.1-8.6-1.2-1.3-3-1.9-5.3-1.9-7.3 0-13.6 7.3-13.6 15.7 0 3.2 1 5.8 2.9 7.4 1.8 1.5 4.4 2.3 7.5 2.1h.4zm15.1 0h8l3.3-17.4h6.1l1.3-7h-20l-1.3 7h6.1l-3.5 17.4zm22.4-4.4h4.8v4.7l8.1-.5v-.7c-.5-7.8-1-15.4-1.7-22.7v-.7H97.2l-.2.4c-3.7 7.7-7.3 15.4-10.5 22.9l-.4 1h8.4l.2-.6c.5-1.2.9-2.4 1.4-3.7l.1-.1zm4.5-6.5h-2.3l.1-.3c.5-1.3 1-2.6 1.5-3.8l.4-1v1.1c0 1.2.1 2.5.1 3.8.2-.1.2.2.2.2zm20.8 10.9l-.8 3.5 7.3-.1 3.5-14.7-7.5.2-1 4.3h-.2c-1.3.1-2.3-.1-3-.6-.7-.6-1-1.6-1-3.1 0-3.5 1.8-7.5 4.3-7.5.7 0 1.3.2 1.3 3.4v.7l7.3-.1v-.7c.2-4.1-.5-6.9-2.1-8.6-1.2-1.3-3-1.9-5.3-1.9-7.3 0-13.6 7.3-13.6 15.7 0 3.2 1 5.8 2.9 7.4 1.8 1.5 4.4 2.3 7.5 2.1h.4z" stroke="#000" stroke-width=".498" stroke-miterlimit="4.98"/>
  <path d="M24.4 26.1c0-2-.7-3.7-2.1-4.9-2.6-2.3-7.7-2.9-15-1.8l-.7.1L1.8 44h8.3l1.5-8.1 3.2 8.6 8.9-.9-4.4-9.6c3.5-2.4 5.1-5 5.1-7.9zm-8.6.4c.1.1.3.3.3.9 0 .7-.4 1.9-3.5 3.4l.9-4.8c1.5 0 2.1.3 2.3.5zM46.3 20l-.1-.9H35.8l-.2.5c-3.7 7.8-7.3 15.5-10.5 23l-.7 1.4h8.9l.2-.6c.5-1.2 1-2.5 1.5-3.8h4.4v4.7l8.6-.5v-1c-.5-7.8-1-15.4-1.7-22.8zm-7 12.5h-1.7c.5-1.3 1-2.6 1.5-3.8.1 1.3.2 2.6.2 3.8zm24.3-13.8c-7.4 0-13.8 7.5-13.8 15.9 0 3.3 1 5.9 3 7.6 1.8 1.6 4.5 2.3 7.7 2.2l-.9 3.6 7.8-.1L71 32.6l-8 .2-1 4.3c-1.2.1-2.2-.1-2.8-.6-.6-.5-1-1.5-1-3 0-3.3 1.7-7.2 4-7.2.5 0 1 0 1.1 3.1v1l7.8-.1v-.9c.2-4.2-.5-7.1-2.2-8.8-1.1-1.2-2.9-1.9-5.3-1.9zm30.9.4H73.9l-1.4 7.5h6.1L75.1 44h8.5L87 26.6h6l1.5-7.5zm14.6.9l-.1-.9H98.5l-.2.5c-3.7 7.8-7.3 15.5-10.5 23l-.7 1.4H96l.3-.7c.5-1.2.9-2.5 1.5-3.7h4.4v4.7l8.6-.5v-1c-.6-7.8-1.1-15.4-1.7-22.8zM102 32.5h-1.7c.5-1.3 1-2.6 1.5-3.8.1 1.4.2 2.6.2 3.8zm29.8-11.8c-1.3-1.3-3.1-2-5.5-2-7.4 0-13.8 7.5-13.8 15.9 0 3.3 1 5.9 3 7.6 1.8 1.6 4.5 2.3 7.7 2.2l-.8 3.5 7.8-.1 3.6-15.2-8 .2-1 4.3c-1.2.1-2.2-.1-2.8-.6-.6-.5-1-1.5-1-3 0-3.3 1.7-7.2 4-7.2.5 0 1 0 1.1 3.1v1l7.8-.1v-.9c.2-4.1-.4-6.9-2.1-8.7zM12.2 9.6c0-2.6 2-5.4 4.5-5.4 1.3 0 2 .7 2 1.9 0 1.9-2 3-5.3 3.3 0 1.9 1.2 2.4 4.7 1.3l.1.7c-4.1 2.2-6 .7-6-1.8zm1.3-1.1c2.3-.2 3.9-.8 3.9-2.1 0-.6-.4-1.1-1.2-1.1-1.4.1-2.4 1.6-2.7 3.2zm15.4 3c0-1.3 1.1-3.9 1.1-5.1 0-.6-.2-.9-.8-.9-.7 0-1.5.5-2.5 1.6l-1.1 5.2h-1.3l1-5.2c.2-1.2.1-1.7-.6-1.7s-1.6.6-2.5 1.7c-.2 1.1-.9 4.4-1 5.1h-1.3c.7-3.7 1.1-5.5 1.4-7.8l1.3-.1c0 .2-.1 1-.2 1.7 1.1-1.2 2.1-1.8 3-1.8 1 0 1.4.6 1.3 1.8 1.1-1.2 2.2-1.8 3.2-1.8 1.1 0 1.4.7 1.4 1.5 0 1.6-1.1 4.3-1.1 5.2 0 .4.2.5 1.6 0l.2.7c-2.1 1.3-3.1.9-3.1-.1zm3.9 3.6c1-5.2 1.6-8.1 1.9-10.6l1.3-.1c0 .2-.1.9-.2 1.5.9-.9 2-1.6 2.9-1.6 1 0 1.8.9 1.8 2.6 0 2.9-2 5.6-4.9 5.6-.3 0-.6 0-1-.1-.2 1.1-.4 2.1-.5 2.6l-1.3.1zm6.4-8c0-1.2-.5-1.7-1.1-1.7-.7 0-1.7.6-2.5 1.4-.1.6-.5 2.4-.8 4.2.6.2 1.2.3 1.6.3 1.6.1 2.8-2.1 2.8-4.2zm7-2.9c1.7 0 2.8 1.2 2.8 3.2 0 2.8-2 5.1-4.3 5.1-1.7 0-2.8-1.2-2.8-3.2 0-2.8 2.1-5.1 4.3-5.1zm-.3 1.1c-1.6 0-2.6 1.7-2.6 3.7 0 1.5.7 2.4 1.8 2.4 1.6 0 2.6-1.7 2.6-3.7 0-1.5-.7-2.4-1.8-2.4zm9.2 5.6c-.9.9-2 1.6-2.9 1.6-1 0-1.8-.9-1.8-2.6 0-2.9 2-5.6 4.9-5.6.3 0 .6 0 1 .1l.7-3.3 1.3-.1-1.8 9.3c-.2 1-.1 1.2 1.5.7l.2.7c-2.5 1.3-3.3.7-3.1-.8zm.2-1.1l.8-4.2c-.7-.2-1.3-.3-1.7-.3-1.5 0-2.7 2.2-2.7 4.2 0 1.1.5 1.7 1.1 1.7.7 0 1.7-.6 2.5-1.4zm4-.2c0-2.6 2-5.4 4.5-5.4 1.3 0 2 .7 2 1.9 0 1.9-2 3-5.2 3.3 0 1.9 1.2 2.4 4.7 1.3l.1.7c-4.2 2.2-6.1.7-6.1-1.8zm1.3-1.1c2.3-.2 3.9-.8 3.9-2.1 0-.6-.4-1.1-1.2-1.1-1.3.1-2.4 1.6-2.7 3.2zm11.6-2.6c-.8.2-1.6.4-2.2.4-.6 1.1-1.5 2.4-2.6 3.6l-.5-.5c1-1.2 1.7-2.2 2.1-3.2-.5-.1-.8-.4-.8-.8 0-.7.8-1.6 1.6-1.6.4 0 .6.3.6.7 0 .2 0 .4-.1.7 1-.1 2.1-.5 3-.9l.5.3c-2.7 6.8-2.3 7.2.1 6.4l.1.7c-3.5 1.7-4.4.4-1.8-5.8zm7.7 4.9c-.9.9-2.1 1.6-2.9 1.6-.9 0-1.7-.8-1.7-2.4 0-2.9 2-5.8 4.9-5.8.6 0 1.3.1 2.1.3l-1.1 5.7c-.2 1-.1 1.2 1.5.7l.2.7c-2.5 1.5-3.2.8-3-.8zm.2-1l.8-4.1c-.6-.2-1.2-.3-1.6-.3-1.5 0-2.7 2.2-2.7 4.3 0 1.1.4 1.6 1 1.6.6-.1 1.6-.7 2.5-1.5zm8.6 1.1c-.9.9-2 1.6-2.9 1.6-1 0-1.8-.9-1.8-2.6 0-2.9 2-5.6 4.9-5.6.3 0 .6 0 1 .1l.6-3.2 1.3-.2-1.8 9.3c-.2 1-.1 1.2 1.5.7l.2.7c-2.4 1.3-3.2.7-3-.8zm.2-1.1l.8-4.2c-.7-.2-1.3-.3-1.7-.3-1.5 0-2.7 2.2-2.7 4.2 0 1.1.5 1.7 1.1 1.7.7 0 1.7-.6 2.5-1.4zm8.3-5.6c1.7 0 2.8 1.2 2.8 3.2 0 2.8-2 5.1-4.3 5.1-1.7 0-2.8-1.2-2.8-3.2 0-2.8 2-5.1 4.3-5.1zm-.4 1.1c-1.6 0-2.6 1.7-2.6 3.7 0 1.5.7 2.4 1.8 2.4 1.6 0 2.6-1.7 2.6-3.7 0-1.5-.7-2.4-1.8-2.4zm13.5 5.6c-.9.9-2 1.6-2.9 1.6-1 0-1.8-.9-1.8-2.6 0-2.9 2-5.6 4.9-5.6.3 0 .6 0 1 .1l.6-3.2 1.3-.1-1.8 9.3c-.2 1-.1 1.2 1.5.7l.2.7c-2.4 1.2-3.1.6-3-.9zm.2-1.1l.8-4.2c-.7-.2-1.3-.3-1.7-.3-1.5 0-2.7 2.2-2.7 4.2 0 1.1.5 1.7 1.1 1.7.7 0 1.7-.6 2.5-1.4zm4-.2c0-2.6 2-5.4 4.5-5.4 1.3 0 2 .7 2 1.9 0 1.9-2 3-5.2 3.3 0 1.9 1.2 2.4 4.7 1.3l.1.7c-4.1 2.2-6.1.7-6.1-1.8zm1.3-1.1c2.3-.2 3.9-.8 3.9-2.1 0-.6-.4-1.1-1.2-1.1-1.3.1-2.4 1.6-2.7 3.2z" fill="#fff"/>
</svg>
