<?xml version="1.0" encoding="utf-8"?>
<!-- Generator: Adobe Illustrator 22.1.0, SVG Export Plug-In . SVG Version: 6.00 Build 0)  -->
<svg version="1.1" id="Layer_1" xmlns="http://www.w3.org/2000/svg" xmlns:xlink="http://www.w3.org/1999/xlink" x="0px" y="0px"
	 viewBox="0 0 268 60.7" style="enable-background:new 0 0 268 60.7;" xml:space="preserve">
<style type="text/css">
	.st0{fill:#FFFFFF;}
</style>
<title>Ragtag</title>
<path class="st0" d="M19.1,35.4l7,18.5l16.8-1.8L34.2,33l0.3-0.2c6.5-4.4,9.8-9.5,9.8-15.1c0-3.9-1.4-7.1-4.1-9.5
	C35,3.6,25,2.4,10.4,4.6l-1,0.2L0,53h15.7L19.1,35.4z M20.6,27.9l2.1-11h0.4c2.8,0,4.2,0.6,4.8,1.2c0.6,0.5,0.8,1.2,0.8,2.1
	c0,1.6-0.8,4.1-7.3,7.2C21.4,27.4,20.6,27.9,20.6,27.9z M66.1,43.8H76v0.5c0,2.3,0.1,5,0.1,7.7v1.6l16.2-1L92.2,51
	c-1-15.5-2.1-30.9-3.4-45.5l-0.1-1.4H68.5L68,5c-7.5,15.5-14.6,31-21,46l-0.9,2h15.3l1-0.1l0.4-1c1-2.7,2.1-5.3,3.1-7.9L66.1,43.8z
	 M75.7,31.6H71l0.3-0.7c1.1-2.7,2.1-5.2,3.1-7.6l0.9-2.1l0.1,2.2c0.1,2.5,0.2,5,0.3,7.6C75.7,31,75.7,31.6,75.7,31.6z M117.6,53.7
	l-1.6,7l14.6-0.3l7-29.5l-14.9,0.4l-2,8.7h-0.4c-2.7,0.2-4.7-0.2-6-1.3c-1.4-1.2-2.1-3.3-2.1-6.3c0-7.1,3.7-15,8.6-15
	c1.5,0,2.6,0.5,2.7,6.8v1.5l14.7-0.2l0.1-1.4c0.4-8.2-1-13.9-4.2-17.2c-2.5-2.6-5.9-3.8-10.6-3.8c-14.5,0-27.3,14.7-27.3,31.5
	c0,6.4,2,11.6,5.8,14.9c3.6,3.1,8.7,4.6,15,4.2H117.6L117.6,53.7z M147.5,53h16.3l6.8-35.3h11.5l2.7-13.6h-39.3l-2.7,13.6h11.5
	L147.5,53z M192,43.8h9.9v0.5c0,2.4,0.1,5.1,0.1,7.7v1.6l16.2-1l-0.1-1.5c-1-15.5-2.1-30.9-3.4-45.5l-0.1-1.4h-20.2L194,5
	c-7.5,15.5-14.6,31-21,46l-1,2h16.3l0.5-1.4c1-2.5,2-5,3-7.6L192,43.8z M201.6,31.6h-4.7l0.3-0.7c1.1-2.7,2.1-5.2,3.1-7.6l0.9-2.1
	l0.1,2.2c0.1,2.5,0.2,5,0.3,7.6L201.6,31.6L201.6,31.6z M243.5,53.7l-1.6,7l14.6-0.3l7-29.5l-14.9,0.4l-2,8.7h-0.4
	c-2.7,0.2-4.7-0.2-6-1.3c-1.4-1.2-2.1-3.3-2.1-6.3c0-7.1,3.7-15,8.6-15c1.5,0,2.6,0.5,2.7,6.8v1.5l14.7-0.2l0.1-1.4
	c0.4-8.2-1-13.9-4.2-17.2c-2.5-2.6-5.9-3.8-10.6-3.8c-14.5,0-27.3,14.7-27.3,31.5c0,6.4,2,11.6,5.8,14.9c3.6,3.1,8.7,4.6,15,4.2
	H243.5z"/>
<path d="M48.4,14.9c0-4.1-1.5-7.4-4.3-9.9c-5.3-4.6-15.5-5.8-30.2-3.6l-1.4,0.2L3,50.8h16.7l3.2-16.3l6.5,17.2l17.9-1.9l-8.8-19.3
	C45.1,26,48.4,20.7,48.4,14.9z M31.2,15.8c0.3,0.3,0.7,0.7,0.7,1.8c0,1.5-0.8,3.8-7,6.8l1.9-9.6C29.5,14.7,30.7,15.3,31.2,15.8z
	 M92.5,2.8L92.3,1h-21l-0.5,1.1c-7.5,15.5-14.6,31-21,46l-1.2,2.8h16.1l1.4-0.1l0.5-1.3c1-2.6,2.1-5.2,3.1-7.9h9.1
	c0,2.5,0.1,5.1,0.1,7.7v2.1L96,50.3l-0.1-2C94.9,32.8,93.8,17.5,92.5,2.8z M78.4,28.4H75c1.1-2.7,2.1-5.2,3.1-7.6
	C78.2,23.3,78.3,25.8,78.4,28.4z M126.6,0c-14.8,0-27.8,14.9-27.8,32c0,6.6,2.1,11.8,6,15.3c3.7,3.2,8.9,4.7,15.3,4.3l-1.6,7
	l15.7-0.3l7.2-30.5l-16,0.5l-2,8.7c-2.5,0.2-4.4-0.2-5.6-1.2c-1.3-1.1-1.9-3.1-1.9-5.9c0-6.7,3.5-14.5,8.1-14.5c1,0,2.1,0,2.2,6.3v2
	l15.6-0.2l0.1-1.9c0.4-8.4-1.1-14.1-4.4-17.6C135,1.3,131.5,0,126.6,0L126.6,0z M188.6,0.9h-40.3l-2.8,14.6H157l-6.8,35.3h17.2
	l6.8-35.3h11.6L188.6,0.9z M218.4,2.8L218.2,1h-21l-0.5,1.1c-7.5,15.5-14.6,31-21,46l-1.2,2.8h17.4l0.6-1.6c1-2.6,2-5.1,3-7.7h9.1
	c0.1,2.5,0.1,5.1,0.1,7.7v2.1l17.2-1.1l-0.1-2C220.8,32.8,219.7,17.4,218.4,2.8L218.4,2.8z M204.3,28.4h-3.4
	c1.1-2.7,2.1-5.2,3.1-7.6C204.1,23.3,204.2,25.8,204.3,28.4L204.3,28.4z M263.6,4c-2.6-2.7-6.2-4-11-4c-14.8,0-27.8,14.9-27.8,32
	c0,6.6,2.1,11.8,6,15.3c3.7,3.2,8.9,4.7,15.3,4.3l-1.6,7l15.7-0.3l7.2-30.5l-16,0.5l-2,8.7c-2.5,0.2-4.4-0.2-5.6-1.2
	c-1.3-1.1-1.9-3.1-1.9-5.9c0-6.7,3.5-14.5,8.1-14.5c1,0,2.1,0,2.2,6.3v2l15.6-0.2l0.1-1.9C268.3,13.2,266.9,7.4,263.6,4L263.6,4z"/>
</svg>
