<svg xmlns="http://www.w3.org/2000/svg" viewBox="0 0 495.51 106.03"><title>Ragtag</title><g id="Layer_2" data-name="Layer 2"><g id="Layer_1-2" data-name="Layer 1"><path style="fill:#fff;" d="M38.64,64.31,33,93.15H0L16.52,7.89c55.86-9.1,69.86,6,69.86,23.52,0,10.92-6.44,19.18-17.08,26.32l12.32,34-35.7,2.8Zm6.3-32.76L41.58,49.47c8.26-3.08,12-6.58,12-11.34C53.62,34.21,50.68,31.55,44.94,31.55Z"></path><path style="fill:#fff;" d="M133.69,83.77H119.27c-.84,3.22-1.82,6.3-2.66,9.38H82c11.06-28.84,23.24-58,35.7-86.8h47.6c.7,26.6,1.54,55.44,2.24,86.1l-34.72,1.4Zm-7.56-23.38h9.1c.56-9.66,1.12-19.18,1.4-28.14h-2.1C131.87,41.21,128.93,50.73,126.13,60.39Z"></path><path style="fill:#fff;" d="M211.64,106,214,94.69c-27.16,1.68-38.64-12.32-38.64-33.32,0-29.68,21.84-56.7,50.26-56.7,20.3,0,30.66,11.06,28.28,40.18l-30.24.28c.28-7.56-.84-10.64-3.36-10.64-5,0-10.22,11.62-10.22,22.12,0,6.72,2.24,11.2,9.66,11.34l2.52-11.62,30.1-.56-11.2,50Z"></path><path style="fill:#fff;" d="M301.78,93.15H266.64l11.62-59.92H258.94l5.18-26.88H337.9l-5.18,26.88H313.4Z"></path><path style="fill:#fff;" d="M368.94,83.77H354.52c-.84,3.22-1.82,6.3-2.66,9.38H317.28c11.06-28.84,23.24-58,35.7-86.8h47.6c.7,26.6,1.54,55.44,2.24,86.1l-34.72,1.4Zm-7.56-23.38h9.1c.56-9.66,1.12-19.18,1.4-28.14h-2.1C367.12,41.21,364.18,50.73,361.38,60.39Z"></path><path style="fill:#fff;" d="M446.89,106l2.38-11.34c-27.16,1.68-38.64-12.32-38.64-33.32,0-29.68,21.84-56.7,50.26-56.7,20.3,0,30.66,11.06,28.28,40.18l-30.24.28c.28-7.56-.84-10.64-3.36-10.64-5,0-10.22,11.62-10.22,22.12,0,6.72,2.24,11.2,9.66,11.34l2.52-11.62,30.1-.56-11.2,50Z"></path><path style="fill:#231f20;" d="M44.64,59.64,39,88.48H6L22.52,3.22c55.86-9.1,69.86,6,69.86,23.52,0,10.92-6.44,19.18-17.08,26.32l12.32,34-35.7,2.8Zm6.3-32.76L47.58,44.8c8.26-3.08,12-6.58,12-11.34C59.62,29.54,56.68,26.88,50.94,26.88Z"></path><path style="fill:#231f20;" d="M139.69,79.1H125.27c-.84,3.22-1.82,6.3-2.66,9.38H88c11.06-28.84,23.24-58,35.7-86.8h47.6c.7,26.6,1.54,55.44,2.24,86.1l-34.72,1.4Zm-7.56-23.38h9.1c.56-9.66,1.12-19.18,1.4-28.14h-2.1C137.87,36.54,134.93,46.06,132.13,55.72Z"></path><path style="fill:#231f20;" d="M217.64,101.36,220,90C192.86,91.7,181.38,77.7,181.38,56.7,181.38,27,203.22,0,231.64,0c20.3,0,30.66,11.06,28.28,40.18l-30.24.28c.28-7.56-.84-10.64-3.36-10.64-5,0-10.22,11.62-10.22,22.12,0,6.72,2.24,11.2,9.66,11.34l2.52-11.62,30.1-.56-11.2,50Z"></path><path style="fill:#231f20;" d="M307.78,88.48H272.64l11.62-59.92H264.94l5.18-26.88H343.9l-5.18,26.88H319.4Z"></path><path style="fill:#231f20;" d="M374.94,79.1H360.52c-.84,3.22-1.82,6.3-2.66,9.38H323.28c11.06-28.84,23.24-58,35.7-86.8h47.6c.7,26.6,1.54,55.44,2.24,86.1l-34.72,1.4Zm-7.56-23.38h9.1c.56-9.66,1.12-19.18,1.4-28.14h-2.1C373.12,36.54,370.18,46.06,367.38,55.72Z"></path><path style="fill:#231f20;" d="M452.89,101.36,455.27,90C428.11,91.7,416.63,77.7,416.63,56.7,416.63,27,438.47,0,466.89,0c20.3,0,30.66,11.06,28.28,40.18l-30.24.28c.28-7.56-.84-10.64-3.36-10.64-5,0-10.22,11.62-10.22,22.12,0,6.72,2.24,11.2,9.66,11.34l2.52-11.62,30.1-.56-11.2,50Z"></path></g></g></svg>