<svg xmlns="http://www.w3.org/2000/svg" viewBox="0 0 489.51 101.36"><title>Ragtag</title><g style="fill:#231f20;" id="Layer_2" data-name="Layer 2"><g id="Layer_1-2" data-name="Layer 1"><path d="M38.64,59.64,33,88.48H0L16.52,3.22c55.86-9.1,69.86,6,69.86,23.52,0,10.92-6.44,19.18-17.08,26.32l12.32,34-35.7,2.8Zm6.3-32.76L41.58,44.8c8.26-3.08,12-6.58,12-11.34C53.62,29.54,50.68,26.88,44.94,26.88Z"></path><path d="M133.69,79.1H119.27c-.84,3.22-1.82,6.3-2.66,9.38H82c11.06-28.84,23.24-58,35.7-86.8h47.6c.7,26.6,1.54,55.44,2.24,86.1l-34.72,1.4Zm-7.56-23.38h9.1c.56-9.66,1.12-19.18,1.4-28.14h-2.1C131.87,36.54,128.93,46.06,126.13,55.72Z"></path><path d="M211.64,101.36,214,90C186.86,91.7,175.38,77.7,175.38,56.7,175.38,27,197.22,0,225.64,0c20.3,0,30.66,11.06,28.28,40.18l-30.24.28c.28-7.56-.84-10.64-3.36-10.64-5,0-10.22,11.62-10.22,22.12,0,6.72,2.24,11.2,9.66,11.34l2.52-11.62,30.1-.56-11.2,50Z"></path><path d="M301.78,88.48H266.64l11.62-59.92H258.94l5.18-26.88H337.9l-5.18,26.88H313.4Z"></path><path d="M368.94,79.1H354.52c-.84,3.22-1.82,6.3-2.66,9.38H317.28c11.06-28.84,23.24-58,35.7-86.8h47.6c.7,26.6,1.54,55.44,2.24,86.1l-34.72,1.4Zm-7.56-23.38h9.1c.56-9.66,1.12-19.18,1.4-28.14h-2.1C367.12,36.54,364.18,46.06,361.38,55.72Z"></path><path d="M446.89,101.36,449.27,90C422.11,91.7,410.63,77.7,410.63,56.7,410.63,27,432.47,0,460.89,0c20.3,0,30.66,11.06,28.28,40.18l-30.24.28c.28-7.56-.84-10.64-3.36-10.64-5,0-10.22,11.62-10.22,22.12,0,6.72,2.24,11.2,9.66,11.34l2.52-11.62,30.1-.56-11.2,50Z"></path></g></g></svg>