<svg xmlns="http://www.w3.org/2000/svg" viewBox="0 0 499 260" width="499" height="260"><style></style><path d="M154.1 170.4h-16.7v-9.3h16.7v9.3zm-15.7-1h14.7v-7.3h-14.7v7.3z"/><path d="M138.4 161.6h14.7v8.8h-14.7v-8.8z" fill="#d89556"/><path d="M138.2 165c5.3 1.2 10.4 1.2 15.2 0v-2.6h-15.2"/><path d="M170.5 110.3v31.9h-.1c-.5 12.8-11.4 20.4-24.7 20.4-13.4 0-24.3-7.6-24.8-20.4v-31.9h.1c.7-13.6 7.6-20.4 20.7-20.4 10.2 0 7.5 6.2 15.3 6.2s5.2-4 9 .9c3.6 4.5 4.4 10.2 4.5 13.3z" fill="#d89556"/><path d="M145.7 163.2c-14.2 0-24.6-8.4-25.3-20.4v-32.9h.1c.9-13.5 8-20.4 21.1-20.4 5.6 0 7.5 1.9 9.2 3.5 1.4 1.4 2.7 2.6 6.1 2.6 3.3 0 4.6-.7 5.4-1.1 1.5-.8 1.9-.4 4 2.2 3.7 4.6 4.5 10.4 4.6 13.1v32.9h.1c-.7 12.1-11 20.5-25.3 20.5zm-24.3-21.1v.2c.4 11.9 10.2 19.9 24.3 19.9 14.1 0 23.8-8 24.2-19.9l.1-.5v-31.4c-.1-2.4-.7-8.3-4.4-13-1.9-2.4-1.9-2.4-2.8-2-.9.5-2.4 1.3-5.9 1.3-3.8 0-5.4-1.5-6.8-2.9-1.6-1.6-3.3-3.2-8.5-3.2-12.9 0-19.5 6.5-20.2 19.9l-.1.5.1 31.1z"/><path d="M145.8 141.7v-.2c21 0 21-6 21-8 0-1.3 1-2 3.1-2V147c-2.5 9.2-10.5 14.4-24.1 15.5v.2c-13.5-1.1-21.6-6.2-24.1-15.5v-15.5c2.1 0 3.1.7 3.1 2 0 1.9 0 8 21 8z" fill="#825059" opacity=".153"/><path d="M122.7 114.6c.8-11.3 4.4-18.2 10.7-20.6 6.3-2.4 11-2.4 14.1 0 4.1 2.6 7.5 3.8 10.3 3.7 4.2-.2 6.5-3.2 7.5-1.2-.9-1.6-1.5-2.4-1.8-2.4-.4 0-3.2 1.9-6.2 1.7-3-.2-6.5-2.3-9.8-5.3-2.2-2-7.5-1.7-15.8.8-5.3 3.1-8.5 7.3-9.7 12.4s-2 10.7-1 12.8l1.7-1.9z"/><path d="M145.7 150.3c-6.2 0-10.6-1.6-13.2-4.8-.3-.4-.3-1.1.2-1.4.4-.3 1.1-.3 1.4.2 2.2 2.7 6.1 4.1 11.6 4.1s9.4-1.4 11.6-4.1c.3-.4 1-.5 1.4-.2s.5 1 .2 1.4c-2.6 3.2-7 4.8-13.2 4.8zm0-11.2c-1.6 0-2.8-.4-3.7-1.3-.8-.8-1.2-2.1-1.2-3.7 0-.3.2-.5.5-.5s.5.2.5.5c0 1.3.3 2.3 1 3 .6.6 1.6 1 3 1 2.7 0 3.9-1.3 3.9-4 0-.3.2-.5.5-.5s.5.2.5.5c-.1 3.3-1.8 5-5 5z" fill="#7f4953"/><path d="M117.2 118.1c-2.3-7.9-3.4-13.4-3.4-16.3 0-4.4 2.2-24.8 30.1-28.1 5.4 2 11.3 2 17.6 0 9.4-3 11.6 6.5 5.8 8.8 5.1 3 7.1 18.6 6.3 36.9 0 .4-.5.5-.7.1l-1.9-.1c-.3-6.9-.8-14.9-1.2-16.2-.4-1.3-2.1-4-5.1-8.2-.8-.5-1.6-.5-2.2 0-1 .8-6.2 2.3-9.5 0s-5.4-5.9-13-5.2c-7.6.7-17.6 3.7-18.9 18.1l-.2 8.9-3.7 1.3z" fill="#703424"/><path d="M134.2 116.3h4.4l-4.4 10.7h-4.4l4.4-10.7zm-4.7 0h2l-4.4 10.7h-2l4.4-10.7zm35.7 0h4.4l-4.4 10.7h-4.4l4.4-10.7zm-4.4 0h2l-4.4 10.7h-2l4.4-10.7z" fill="#f7f9f9" opacity=".2"/><path d="M120.9 130.6v-13.4c-3.4 0-6.2 3.2-6.2 6.7 0 1.4.4 2.7 1.2 3.8 1.1 1.7 3 2.9 5 2.9z" fill="#d89556"/><path d="M120.4 117.7c-2.8.3-5.2 3-5.2 6.2 0 1.2.4 2.5 1.1 3.6 1 1.5 2.5 2.4 4.1 2.6v-12.4zm1 13.4h-.5c-2.1 0-4.1-1.2-5.4-3.1-.8-1.2-1.3-2.7-1.3-4.1 0-3.8 3.1-7.2 6.7-7.2h.5v14.4z"/><ellipse cx="131.6" cy="121.6" rx="2.7" ry="2.7" fill="#373c50"/><ellipse cx="159.9" cy="121.6" rx="2.7" ry="2.7" fill="#373c50"/><path d="M169.1 129.7h-17.2v-1h17.2v1zm-29.3 0h-17.2v-1h17.2v1zm10.6-7.1h-9.2v-1h9.2v1z" fill="#707482"/><path d="M173.8 118.6s-.1 0 0 0c-.3 0-.5-.2-.5-.5.5-18.2-1.2-30.3-4.7-34-.8-.8-1.6-1.2-2.5-1.2-.2 0-.4-.2-.5-.4s.1-.5.3-.6c3.4-1.3 5.2-3.4 4.6-5.2-.7-2.3-5-3.8-11.4-2.1-6.3 1.7-8.9 1.2-11.3.7-2-.4-4-.8-8.3.3-11.2 2.8-18.7 7.7-22.4 14.6-3.8 7-3.6 16.4.5 27.7.1.3 0 .5-.3.6s-.5 0-.6-.3c-4.2-11.6-4.3-21.2-.4-28.5 3.8-7.1 11.6-12.2 23-15.1 4.5-1.1 6.6-.7 8.7-.3 2.3.5 4.7 1 10.8-.7 7.1-1.8 11.7 0 12.6 2.8.5 1.7-.2 4-3.7 5.8.6.2 1.1.6 1.6 1.2 4.8 5 5.4 21.6 5 34.7-.1.3-.3.5-.5.5z"/><path d="M123.8 115.4h14.6c1.1 0 2 .9 2 2v8.5c0 1.1-.9 2-2 2h-14.6c-1.1 0-2-.9-2-2v-8.5c0-1.1.9-2 2-2z" fill="#f7f9f9" opacity=".05"/><path d="M138.4 128.9h-14.6c-1.7 0-3-1.3-3-3v-8.5c0-1.7 1.3-3 3-3h14.6c1.7 0 3 1.3 3 3v8.5c0 1.6-1.3 3-3 3zm-14.6-12.5c-.6 0-1 .4-1 1v8.5c0 .6.4 1 1 1h14.6c.6 0 1-.4 1-1v-8.5c0-.6-.4-1-1-1h-14.6z" fill="#373c50"/><path d="M170.7 130.2c3.4 0 6.2-3.3 6.2-6.7 0-3.5-2.8-6.7-6.2-6.7v13.4z" fill="#d89556"/><path d="M170.7 130.7h-.5v-14.4h.5c3.6 0 6.7 3.4 6.7 7.2 0 3.9-3.1 7.2-6.7 7.2zm.5-13.3v12.3c2.8-.3 5.2-3.1 5.2-6.2s-2.4-5.8-5.2-6.1z"/><path d="M153.1 115.4h14.6c1.1 0 2 .9 2 2v8.5c0 1.1-.9 2-2 2h-14.6c-1.1 0-2-.9-2-2v-8.5c0-1.1.8-2 2-2z" fill="#f7f9f9" opacity=".05"/><path d="M167.7 128.9h-14.6c-1.7 0-3-1.3-3-3v-8.5c0-1.7 1.3-3 3-3h14.6c1.7 0 3 1.3 3 3v8.5c0 1.6-1.4 3-3 3zm-14.6-12.5c-.6 0-1 .4-1 1v8.5c0 .6.4 1 1 1h14.6c.6 0 1-.4 1-1v-8.5c0-.6-.4-1-1-1h-14.6z" fill="#373c50"/><path d="M140.4 119.8H151v1.8h-10.6v-1.8z" fill="#373c50"/><path d="M164 111l-9.7-3.6.7-1.9 9.7 3.6-.7 1.9zm-35.8-1.8l-.3-2 10.6-1.8.3 2-10.6 1.8z" fill="#7f4953"/><path d="M346.1 86.9s-21.8.6-20.4 22.2c1.3 21.7 8.3 41.7 4 48.3-4.3 6.7 7.4 12.5 7.4 12.5l-1-12.5" fill="#ff2f00"/><path d="M337.6 170.8l-.8-.4c-.3-.1-7.1-3.6-8.4-8.4-.5-1.7-.2-3.3.8-4.9 2.5-3.9 1-12.6-.9-23.7-1.3-7.4-2.7-15.7-3.2-24.3-.4-6.5 1.2-11.8 4.8-15.7 6.1-6.7 15.7-7 16.1-7v1c-.1 0-9.6.3-15.4 6.7-3.4 3.7-4.9 8.8-4.6 15 .5 8.6 1.9 16.9 3.2 24.2 1.9 11.3 3.5 20.2.7 24.4-.8 1.3-1.1 2.7-.7 4.1.9 3.4 5.3 6.3 7.1 7.3l-1-11.6 1-.1 1.3 13.4z"/><path d="M355.5 88.3s27.5-1.9 26.1 19.8c-1.3 21.7-8.3 41.7-4 48.3 4.3 6.7-8.7 15-8.7 15l2.3-15" fill="#ff2f00"/><path d="M368.3 172.5l2.5-16.1 1 .2-2.2 13.9c2.2-1.6 7.4-5.7 8.2-9.8.3-1.4.1-2.7-.7-3.8-2.7-4.2-1.2-13.1.7-24.4 1.2-7.3 2.7-15.6 3.2-24.2.3-5.4-1.1-9.7-4.4-12.9-7.3-7.2-21.1-6.3-21.2-6.3l-.1-1c.6 0 14.4-.9 22 6.6 3.4 3.4 5 8 4.7 13.7-.5 8.6-2 17-3.2 24.3-1.9 11.1-3.4 19.9-.9 23.7.9 1.4 1.2 2.9.8 4.6-1.2 5.6-9.3 10.9-9.6 11.1l-.8.4z"/><path d="M352.5 51.4c-1-.1-3.9 10.9-3 11.8.8.8 5.4-1.3 5.6-2.4.2-1.1-1.6-9.3-2.6-9.4z" fill="#ffd110"/><path d="M350.1 63.9c-.4 0-.7-.1-.9-.3-1.1-1 1.1-8.9 2-11.1.5-1.1.9-1.6 1.3-1.5.2 0 .5.2.7.4 1.1 1.4 2.6 8.4 2.4 9.6-.2 1.1-2.9 2.3-3.8 2.6-.7.2-1.3.3-1.7.3zm2.4-11.8c-1.1 1.5-3.1 9.8-2.6 10.8.1 0 .7 0 2-.4 1.6-.6 2.7-1.4 2.8-1.7.1-1.1-1.4-7.5-2.2-8.7z"/><path d="M349.4 65.2c-1.6 0-2.6 7.8-1.8 8.1.8.3 6.2-1.5 9.2-4.1 1.1-1-1-6.7-1.2-6.5-.5.6-3.3 2.6-6.2 2.5z" fill="#ffd110"/><path d="M347.8 73.8c-.2 0-.3 0-.4-.1-1.1-.4-.4-4.3-.3-5.1.5-2.7 1.2-4 2.2-4 2.7.1 5.3-1.8 5.9-2.3l.2-.2.3.1c.8.2 1.7 3.9 1.7 4 .4 1.8.3 2.9-.3 3.3-2.6 2.4-7.5 4.3-9.3 4.3zm.1-1c1.1 0 5.8-1.6 8.6-4 .6-.5-.4-4.1-1-5.3-1.1.8-3.6 2.3-6.2 2.2 0 0-.2.1-.4.5-.9 1.7-1.3 5.8-1 6.6z"/><path d="M347.6 75c-1.7 0-3 9.2-1.9 9.6s8.3-2 12.4-6c1.4-1.3-.5-7.9-.8-7.6-.8.7-6 3.9-9.7 4z" fill="#ffd110"/><path d="M346 85.1c-.2 0-.3 0-.4-.1-1-.3-.9-2.9-.5-4.9.2-1.7 1-5.6 2.6-5.6 3.6-.1 8.8-3.3 9.3-3.8l.4-.3.4.4c.7.7 2.2 6.8.7 8.3-3.9 3.6-10.4 6-12.5 6zm0-1c1.1.1 7.9-2.1 11.8-5.9.8-.8 0-5.1-.6-6.5-1.6 1.1-6.2 3.7-9.5 3.7 0 0-.3.1-.7 1.2-1.1 2.6-1.4 6.8-1 7.5z"/><path d="M345.4 86.4c-2.1.1-1.7 9.3-.3 9.7 1.4.4 11-1.5 16-6.3 1.7-1.6-1.5-10.4-1.8-10-1.4 1.5-8 6.2-13.9 6.6z" fill="#ffd110"/><path d="M345.7 96.7c-.3 0-.6 0-.7-.1-1.5-.5-1.7-5.3-1.4-7.6.3-2 .9-3.1 1.8-3.1 5.6-.3 12-4.7 13.5-6.4l.2-.2.3.1c.8.2 1.8 3.8 2 4.6.6 2.3 1.1 5.3 0 6.3-4.4 4.1-12.8 6.4-15.7 6.4zm-.2-9.8c-.2 0-.4.3-.7 1.2-.7 2.8-.1 7.2.5 7.6 1.1.3 10.5-1.4 15.5-6.1 1.1-1-.7-7.2-1.5-8.9-2 1.6-8 5.9-13.8 6.2z"/><path d="M333 96.9l9.7-3.6c-.6-1.3.7-7.5-2.1-11.8-3.9-6.1-11.5-11.3-13.3-10.6-1.9.8-3.4 9.9-1.8 17 1 5 7 7.6 7.5 9z" fill="#fff"/><path d="M333 97.4c-.2 0-.4-.1-.5-.3-.1-.3-.9-.9-1.7-1.5-2.1-1.6-5.2-4-6-7.6-1.6-7.2-.1-16.6 2.1-17.5s10 4.6 14 10.7c2 3.1 2 7.1 2 9.7 0 1 0 1.9.1 2.2.1.1.1.3 0 .4l-.3.3-9.7 3.6c.1-.1.1 0 0 0zm-5.3-26.1c-.1 0-.2 0-.3.1-1.5.6-3.1 9.4-1.5 16.4.7 3.3 3.7 5.5 5.6 7.1.8.6 1.4 1.1 1.7 1.5l8.9-3.3c-.1-.5-.1-1.2-.1-2.1 0-2.5 0-6.3-1.9-9.2-3.6-5.8-10.4-10.5-12.4-10.5z"/><path d="M335 95.7l5.4-1.8c-.4-.9-.6-4.8-2.4-7.9-2.5-4.3-6.8-8.2-7.8-7.8-.9.4-1.2 6.3.1 11.1 1 3.4 4.4 5.5 4.7 6.4z" fill="#ff2f00"/><path d="M373.2 96.7c.5-1.3 6.5-4 7.6-9 1.6-7.1 0-16.2-1.8-17-1.9-.8-9.4 4.5-13.3 10.6-2.8 4.4-1.6 10.5-2.1 11.8l9.6 3.6z" fill="#fff"/><path d="M373.2 97.2h-.2l-9.7-3.6c-.1 0-.2-.1-.3-.3-.1-.1-.1-.3 0-.4.1-.3.1-1.2.1-2.2 0-2.6 0-6.6 2-9.7 4-6.2 11.7-11.7 14-10.7 2.2.9 3.7 10.3 2.1 17.5-.8 3.6-3.9 6-6 7.6-.8.6-1.5 1.2-1.7 1.5 0 .2-.1.3-.3.3zm-9.1-4.4l8.9 3.3c.3-.4.9-.9 1.7-1.5 1.9-1.5 4.9-3.8 5.6-7.1 1.6-7-.1-15.8-1.5-16.4-1.5-.6-8.8 4.3-12.7 10.4-1.9 2.9-1.9 6.7-1.9 9.2 0 .9 0 1.6-.1 2.1z"/><path d="M371.1 95.6c.4-.9 3.7-3.1 4.6-6.5 1.3-4.8 1.1-10.7.1-11.1-.9-.4-5.3 3.6-7.8 7.8-1.8 3.1-2 7-2.4 7.9l5.5 1.9z" fill="#ff2f00"/><path d="M334.4 108l39.3.3-.5 64.3-39.3-.3.5-64.3z" fill="#fff"/><path d="M333.7 160.2c13.9 8.1 27 8.1 39.5 0l-.1-17.1h-39.6" opacity=".17"/><path d="M378.4 110.2l-.1-1.4.1 33.6h-.1c-.5 12.9-11.4 20.5-24.7 20.5s-24.3-7.6-24.8-20.5l.1-32.1c.7-13.7 7.6-20.5 20.7-20.5 10.1-.1 27.4-2.8 28.8 20.4z" fill="#fff"/><path d="M353.6 163.4c-14.4 0-24.8-8.6-25.3-20.9v-.1l.1-32.1c.7-14 7.8-21 21.2-21h2.9c10-.2 25.2-.6 26.5 21 0 .1 0 .2-.1.3l.1 31.8c0 .1 0 .2-.1.3-.7 12.2-11 20.7-25.3 20.7zm-24.3-21.2c0 .1 0 .1 0 0 .5 12.1 10.2 20.2 24.3 20.2 14.1 0 23.8-8.1 24.2-20.1 0-.1 0-.2.1-.2l-.1-33.3C376 89.7 362.4 90 352.4 90.2h-2.9c-12.9 0-19.5 6.6-20.2 20v32z"/><path d="M353.8 133.8c21.2-.2 22.6 11.4 24.7 11.4l-.7.8c-2.5 9.9-10.5 15.5-24.1 16.7v.3c-13.5-1.2-21.6-6.7-24.1-16.7l-.8-1c2-.2 4-11.3 25-11.5z" fill="#6c41db" opacity=".09"/><path d="M332.4 97.8s4.9-3.5 12.6-5.8c1.8-.7.6 1.3 2.6 1 4.2-.6 8.6-.4 11.7 0 .6.1 1.3-1.3 1.8-1.2 5.1.9 12.6 4.3 13.6 6.2-4.4-11.9-26.9-9.1-35.2-6.5-5.3 3.1-7.1 6.3-7.1 6.3z" opacity=".17"/><path d="M354.3 159.5c-3.2 0-5.5-1.3-6.9-3.8-.3-.5-.1-1.1.4-1.4.5-.3 1.1-.1 1.4.4 1 1.8 2.7 2.7 5.1 2.7 2.5 0 4.1-.9 5.1-2.7.3-.5.9-.7 1.4-.4s.7.9.4 1.4c-1.4 2.5-3.7 3.8-6.9 3.8zM341.6 147h-1c0-5.1 2.9-6.2 5.4-6.2 1.6 0 2.9.5 3.8 1.4 1 1 1.6 2.7 1.5 4.8h-1c0-1.9-.4-3.3-1.3-4.1-.7-.7-1.7-1.1-3.1-1.1-2.9 0-4.3 1.6-4.3 5.2zM357.2 146.9h-1c0-5.1 2.9-6.2 5.4-6.2 1.6 0 2.9.5 3.8 1.4 1 1 1.6 2.7 1.5 4.8h-1c0-1.9-.4-3.3-1.3-4.1-.7-.7-1.7-1.1-3.1-1.1-2.9 0-4.3 1.7-4.3 5.2z"/><g fill="#373c50"><ellipse cx="338.4" cy="117.8" rx="2.7" ry="2.7"/><ellipse cx="369.7" cy="117.8" rx="2.7" ry="2.7"/></g><path d="M334.8 172.2h-1v-16.4h1v16.4zm38.6-.1h-1v-16.3h1v16.3zM375.4 116.4l-8.7-4.4.9-1.8 8.7 4.4-.9 1.8zm-43.1-1.5l-.5-1.9 9.5-2.2.5 1.9-9.5 2.2z"/><g><path d="M347.6 115.8s-1.6 3.7.5 3.1c4.2-1.3 9.5-5.3 14.1-15.8.7-1.7-2 .7-2 .7l-2.5 5.3m-22.3 4.2s-2.3 2.8-.1 2.7c4.1-.1 12.8-5.1 15.3-7.7 1.3-1.3 0-3.7 0-3.7l-3.7 4.6m-20.6-1.4s-1.5 2.8.7 3 11.5-2.1 13.1-3.1-.5-1.9-.5-1.9l-.9-.9"/><path d="M352.3 97.4c-10.3 12.2-32.1 13-26 9.3 8.8-5.3 8-10.2 15.1-18 2.5-2.7 7.6-3.2 10.3-.7 2.8 2.4 3 6.6.6 9.4z" fill="#ff2f00"/><path d="M327.9 109.1c-.9 0-1.6-.1-2.1-.2-.7-.2-1-.5-1.1-1-.1-.7.7-1.3 1.3-1.7 5.2-3.2 6.9-6 9.1-9.7 1.4-2.4 3-5.1 5.9-8.2 2.7-3 8.2-3.3 11-.7 2.9 2.6 3.2 7 .6 10.1-7.1 8.5-19.2 11.4-24.7 11.4zm-2.2-1.3s.3.3 1.6.3c5.1.3 17.5-2.7 24.5-11 2.2-2.7 2-6.5-.5-8.7-2.5-2.3-7.3-1.9-9.6.7-2.8 3.1-4.4 5.7-5.8 8-2.2 3.6-4.1 6.8-9.4 10-.6.4-.7.7-.8.7z"/><path d="M357.8 96.4c-6.4 14.6-26.8 21.2-22.3 16.2 6.8-7.5 4.9-12.2 9.4-21.5 1.6-3.3 6.4-5.2 9.7-3.6 3.4 1.6 4.7 5.5 3.2 8.9z" fill="#6c41db"/><path d="M335.8 114.8c-.7 0-1.1-.2-1.3-.6-.3-.7.4-1.6.7-1.9 4.1-4.5 5-8 6-12 .7-2.7 1.5-5.7 3.3-9.4 1.7-3.6 6.9-5.5 10.4-3.8s5 5.9 3.4 9.5c-5.1 11.7-18.9 18.2-22.5 18.2zm-.4-1.1c.1 0 .5.1 1.8-.2 4.4-1.1 15.7-7 20.2-17.3 1.4-3.2.1-6.8-2.9-8.2-3.1-1.5-7.5.2-9.1 3.4-1.8 3.6-2.5 6.6-3.2 9.2-1.1 4.2-2 7.8-6.3 12.4-.5.5-.5.7-.5.7 0 .1 0 0 0 0z"/><path d="M364.4 93.5c-1.8 15.8-19.4 28.1-16.5 22 4.3-9.2 1.1-13.1 2.7-23.3.6-3.6 4.6-6.8 8.2-6.3 3.6.6 6 4 5.6 7.6z" fill="#ff2f00"/><path d="M348.1 117.6c-.3 0-.6-.1-.8-.3-.5-.6 0-1.6.1-2 2.6-5.5 2.4-9.1 2.2-13.2-.1-2.8-.2-5.9.4-9.9.6-3.9 5-7.3 8.8-6.7 3.9.6 6.5 4.1 6.1 8.1-1.5 12.7-12.7 22.9-16.2 24h-.6zm9.9-31.2c-3.1 0-6.4 2.7-6.9 5.9-.6 4-.5 7-.4 9.7.2 4.3.3 8-2.3 13.7-.3.6-.3.9-.3.9s.5 0 1.7-.7c3.9-2.4 12.9-11.3 14.2-22.5.4-3.4-1.9-6.5-5.2-7h-.8z"/></g><path d="M159 53.2h168.8M172.3 30.9H350M220.3 96.1h84.4M172.3 74.7H310m-75.5-42v18.5m64-18.5v18.5m-96 3.8v18.5m32 3V95m32-40v18.5m32 3V95" opacity=".1" fill="none" stroke="#373c50" stroke-width="2" stroke-linecap="round" stroke-linejoin="round"/><g transform="translate(452 207)"><path d="M1.9 8v27c4.6 4 10.6 6 18 6S33 39 37 35V8.1c-4.2 3.4-9.6 5.1-16.2 5.1C14.3 13.2 8 11.5 1.9 8z" fill="#f7f9f9"/><ellipse cx="19.6" cy="6.7" rx="17.7" ry="6.7" fill="#d3d7df" stroke="#e2e5ec"/><ellipse cx="19.8" cy="10.6" rx="14.2" ry="2.8" fill="#9e6939"/><path d="M1.9 7.1v27m35.4-27v27" fill="none" stroke="#e2e5ec"/><path d="M38.2 29.5V14.2c3.9 0 7.1 3.7 7.1 7.6 0 4-3.2 7.7-7.1 7.7z" fill="none" stroke="#e2e5ec" stroke-linecap="round" stroke-width="2" stroke-linejoin="round"/><path d="M1.9 34.7C6.1 38.9 12 41 19.6 41c7.7 0 13.6-2.1 17.7-6.2" fill="none" stroke="#e2e5ec" stroke-linecap="round"/><path d="M1.8 7.8v26.5c.9.7 2 1.3 3.1 1.7V10L1.8 7.8z" opacity=".2" fill="#9da5b2"/></g><g transform="translate(276 170.156)"><path id="a" d="M10.2 0h135.1c5.5 0 10 4.5 10 10 0 .7-.1 1.3-.2 1.9l-13.8 69.3c-.9 4.7-5 8.1-9.8 8.1H24c-4.8 0-8.9-3.4-9.8-8.1L.4 11.9C-.6 6.5 2.9 1.3 8.3.2 8.9.1 9.6 0 10.2 0z" fill="#e2e5ec"/><path d="M10.2.5C5 .5.7 4.8.7 10c0 .6.1 1.2.2 1.8l13.8 69.3c.9 4.4 4.8 7.6 9.3 7.7h107.6c4.5 0 8.4-3.2 9.3-7.7l13.8-69.3c1-5.1-2.3-10.1-7.5-11.2-.6-.1-1.2-.2-1.9-.2L10.2.5z" fill="none" stroke="#bac1d3"/><path d="M146.8 1c4.4 2.2 6.6 4.6 6.6 7.1-2-3.4-4.4-5.1-7.1-5.1H8C4.3 4 2 5.7 1 8.1c1.6-4 3.7-6.4 6.2-7.1h139.6z" opacity=".25" fill="#fff"/><path d="M21.5 88.4h112.1c4.4-2.2 6.6-4.6 6.6-7.1-2 2.4-4.4 3.6-7.2 3.6H22.4c-3.8.1-6.2-1.1-7.1-3.6 1 4 2.8 6.4 5.4 7.2l.8-.1z" opacity=".05" fill="#373c50"/><ellipse cx="78" cy="44.6" rx="8.9" ry="8.9" opacity=".497" fill="#9da5b2"/></g><path d="M211.8 236.5h7.1m10.6 0h57.8m133.9 0h8.9m8.7 0h13.3m-406.1 0h7.1m9.8 0h14.2" opacity=".2" fill="none" stroke="#373c50" stroke-width="2" stroke-linecap="round" stroke-linejoin="round"/><g transform="translate(66 170)"><path id="d" d="M10.2 0h135.1c5.5 0 10 4.5 10 10 0 .7-.1 1.3-.2 1.9l-13.8 69.3c-.9 4.7-5 8.1-9.8 8.1H24c-4.8 0-8.9-3.4-9.8-8.1L.4 11.9C-.6 6.5 2.9 1.3 8.3.2 8.9.1 9.6 0 10.2 0z" fill="#e2e5ec"/><path d="M10.2.5C5 .5.7 4.8.7 10c0 .6.1 1.2.2 1.8l13.8 69.3c.9 4.4 4.8 7.6 9.3 7.7h107.6c4.5 0 8.4-3.2 9.3-7.7l13.8-69.3c1-5.1-2.3-10.1-7.5-11.2-.6-.1-1.2-.2-1.9-.2L10.2.5z" fill="none" stroke="#bac1d3"/><path d="M21.5 88.4h112.1c4.4-2.2 6.6-4.6 6.6-7.1-2 2.4-4.4 3.6-7.2 3.6H22.4c-3.8.1-6.2-1.1-7.1-3.6 1 4 2.8 6.4 5.4 7.2l.8-.1z" opacity=".05" fill="#373c50"/><path d="M147.4 1c4.4 2.2 6.6 4.6 6.6 7.1-2-3.4-4.4-5.1-7.1-5.1H8.7C5 4 2.6 5.7 1.7 8.1c1.6-4 3.7-6.4 6.2-7.1h139.5z" opacity=".25" fill="#fff"/><ellipse cx="78" cy="44.6" rx="8.9" ry="8.9" opacity=".497" fill="#9da5b2"/></g><path d="M469.3 6.2L417.2 6c-5.1 0-9.9 3.8-10.9 8.6l-8.8 43.5-2.8 13.9-1.7 8.6c-.4 2 1.9 3 3.7 1.6l12.8-10.1 46.1.2c5 0 9.9-3.8 10.9-8.6l9.9-49.1c1-4.6-2.2-8.3-7.1-8.4zM26.1 14.6L36 63.7c1 4.8 5.9 8.6 10.9 8.6l46.1-.2 12.8 10.1c1.8 1.4 4.1.4 3.7-1.6l-1.7-8.6-2.8-13.9-8.8-43.5C95.2 9.8 90.4 6 85.3 6l-52 .2c-4.9.1-8.1 3.8-7.2 8.4z" fill="#f7f9f9" stroke="#373c50" stroke-opacity=".246"/><path d="M65.1 33.3c1.2-3.2.5-6.8-2-9.2-1.6-1.6-3.8-2.5-6.2-2.5-1 0-2 .2-2.9.5l-.4.1 4.3 4.3-.7 3.5-4.2 1.4-4.2-4.4-.1.4c-1.1 3.1-.3 6.6 2.1 9 1.6 1.6 3.8 2.5 6.2 2.5 1.2 0 2.3-.2 3.4-.7l16 15.5c.6.5 1.3.8 2.1.8s1.5-.3 2.1-.9l.7-.7c1.1-1.1 1.1-2.9 0-4.1L65.1 33.3zm371.5 21c-1.2.5-2.6.2-3.5-.6s-1.2-2.1-.7-3.2 1.7-1.8 3-1.8c.8 0 1.7.3 2.3.9.6.6 1 1.3 1 2.1-.1 1.1-.9 2.1-2.1 2.6zm-7.3-23.9c.8-.3 1.5-.8 1.8-1.5.8-1.4 2.3-2.4 4.1-2.4 2.5 0 4.5 1.8 4.6 4.1.1 1.8-1.2 3.5-3.1 4.1-2.8.8-4.7 3.2-4.7 5.8v2.3c0 1.6 1.4 2.9 3.2 2.9s3.2-1.3 3.2-2.9v-2.3c0-.2.3-.3.3-.3 2.2-.7 4.2-2 5.5-3.8s2-3.9 2-6c-.1-2.6-1.3-5.1-3.4-6.9s-4.8-2.9-7.7-2.9h-.1c-2.1 0-4.1.6-5.8 1.6-1.7 1-3.1 2.4-4 4.1-.4.7-.4 1.5-.1 2.2s.9 1.3 1.6 1.7c.9.4 1.8.4 2.6.2z" opacity=".75" fill="#373c50"/><path d="M44.3 219v27c-4.6 4-10.6 6-18 6s-13.1-2-17-6v-26.8c4.2 3.4 9.6 5 16.1 5 6.5 0 12.8-1.7 18.9-5.2z" fill="#f7f9f9"/><ellipse cx="26.8" cy="217.5" rx="17.5" ry="6.5" fill="#d3d7df" stroke="#e2e5ec"/><ellipse cx="26.3" cy="220.5" rx="15" ry="3.5" fill="#9e6939"/><path d="M44.3 218v27m-35-27v27" fill="none" stroke="#e2e5ec"/><path d="M8.3 240v-15c-3.9 0-7 3.6-7 7.5 0 3.8 3.1 7.5 7 7.5z" fill="none" stroke="#e2e5ec" stroke-linecap="round" stroke-width="2" stroke-linejoin="round"/><path d="M44.3 246c-4.1 4-9.9 6-17.5 6s-13.4-2-17.5-6" fill="none" stroke="#e2e5ec" stroke-linecap="round"/></svg>
