<svg xmlns="http://www.w3.org/2000/svg" viewBox="0 0 340 260" width="340" height="260"><path d="M187.5 87.1s-21.8.6-20.4 22.2 8.3 41.7 4 48.3c-4.3 6.7 7.4 12.5 7.4 12.5l-1-12.5" fill="#ff2f00"/><path d="M179 171l-.8-.4c-.3-.1-7.1-3.6-8.4-8.4-.5-1.7-.2-3.3.8-4.9 2.5-3.9 1-12.6-.9-23.7-1.3-7.4-2.7-15.7-3.2-24.3-.4-6.5 1.2-11.8 4.8-15.7 6.1-6.7 15.7-7 16.1-7v1c-.1 0-9.6.3-15.4 6.7-3.4 3.7-4.9 8.8-4.6 15 .5 8.6 1.9 16.9 3.2 24.2 1.9 11.3 3.5 20.2.7 24.4-.8 1.3-1.1 2.7-.7 4.1.9 3.4 5.3 6.3 7.1 7.3l-1-11.6 1-.1L179 171z"/><path d="M196.9 88.6s27.5-1.9 26.1 19.8-8.3 41.7-4 48.3c4.3 6.7-8.7 15-8.7 15l2.3-15" fill="#ff2f00"/><path d="M209.7 172.7l2.5-16.1 1 .2-2.2 13.9c2.2-1.6 7.4-5.7 8.2-9.8.3-1.4.1-2.7-.7-3.8-2.7-4.2-1.2-13.1.7-24.4 1.2-7.3 2.7-15.6 3.2-24.2.3-5.4-1.1-9.7-4.4-12.9-7.3-7.2-21.1-6.3-21.2-6.3l-.1-1c.6 0 14.4-.9 22 6.6 3.4 3.4 5 8 4.7 13.7-.5 8.6-2 17-3.2 24.3-1.9 11.1-3.4 19.9-.9 23.7.9 1.4 1.2 2.9.8 4.6-1.2 5.6-9.3 10.9-9.6 11.1l-.8.4z"/><path d="M193.9 51.7c-1-.1-3.9 10.9-3 11.8.8.8 5.4-1.3 5.6-2.4.2-1.2-1.6-9.4-2.6-9.4z" fill="#ffd110"/><path d="M191.5 64.1c-.4 0-.7-.1-.9-.3-1.1-1 1.1-8.9 2-11.1.5-1.1.9-1.6 1.3-1.5.2 0 .5.2.7.4 1.1 1.4 2.6 8.4 2.4 9.6-.2 1.1-2.9 2.3-3.8 2.6-.7.2-1.2.3-1.7.3zm2.4-11.8c-1.1 1.5-3.1 9.8-2.6 10.8.1 0 .7 0 2-.4 1.6-.6 2.7-1.4 2.8-1.7.1-1.1-1.4-7.5-2.2-8.7z"/><path d="M190.8 65.4c-1.6 0-2.6 7.8-1.8 8.1.8.3 6.2-1.5 9.2-4.1 1.1-1-1-6.7-1.2-6.5-.5.6-3.3 2.6-6.2 2.5z" fill="#ffd110"/><path d="M189.3 74c-.2 0-.3 0-.4-.1-1.1-.4-.4-4.3-.3-5.1.5-2.7 1.2-4 2.2-4 2.7.1 5.3-1.8 5.9-2.3l.2-.2.3.1c.8.2 1.7 3.9 1.7 4 .4 1.8.3 2.9-.3 3.3-2.7 2.4-7.6 4.3-9.3 4.3zm0-.9c1.1 0 5.8-1.6 8.6-4 .6-.5-.4-4.1-1-5.3-1.1.8-3.6 2.3-6.2 2.2 0 0-.2.1-.4.5-.9 1.6-1.3 5.7-1 6.6z"/><path d="M189 75.2c-1.7 0-3 9.2-1.9 9.6s8.3-2 12.4-6c1.4-1.3-.5-7.9-.8-7.6-.7.7-5.9 3.9-9.7 4z" fill="#ffd110"/><path d="M187.4 85.3c-.2 0-.3 0-.4-.1-1-.3-.9-2.9-.5-4.9.2-1.7 1-5.6 2.6-5.6 3.6-.1 8.8-3.3 9.3-3.8l.4-.3.4.4c.7.7 2.2 6.8.7 8.3-3.9 3.6-10.4 6-12.5 6zm0-1c1.1.1 7.9-2.1 11.8-5.9.8-.8 0-5.1-.6-6.5-1.6 1.1-6.2 3.7-9.5 3.7 0 0-.3.1-.7 1.2-1.1 2.7-1.4 6.8-1 7.5z"/><path d="M186.8 86.6c-2.1.1-1.7 9.3-.3 9.7 1.4.4 11-1.5 16-6.3 1.7-1.6-1.5-10.4-1.8-10-1.4 1.6-7.9 6.3-13.9 6.6z" fill="#ffd110"/><path d="M187.1 96.9c-.3 0-.6 0-.7-.1-1.5-.5-1.7-5.3-1.4-7.6.3-2 .9-3.1 1.8-3.1 5.6-.3 12-4.7 13.5-6.4l.2-.2.3.1c.8.2 1.8 3.8 2 4.6.6 2.3 1.1 5.3 0 6.3-4.4 4.1-12.8 6.4-15.7 6.4zm-.2-9.8c-.2 0-.4.3-.7 1.2-.7 2.8-.1 7.2.5 7.6 1.1.3 10.5-1.4 15.5-6.1 1.1-1-.7-7.2-1.5-8.9-2 1.6-8 5.9-13.8 6.2z"/><path d="M174.4 97.1l9.7-3.6c-.6-1.3.7-7.5-2.1-11.8-3.9-6.1-11.5-11.3-13.3-10.6-1.9.8-3.4 9.9-1.8 17 1 5 7 7.7 7.5 9z" fill="#fff"/><path d="M174.4 97.6c-.2 0-.4-.1-.5-.3-.1-.3-.9-.9-1.7-1.5-2.1-1.6-5.2-4-6-7.6-1.6-7.2-.1-16.6 2.1-17.5 2.2-.9 10 4.6 14 10.7 2 3.1 2 7.1 2 9.7 0 1 0 1.9.1 2.2.1.1.1.3 0 .4l-.3.3-9.7 3.6c.1 0 .1 0 0 0zm-5.3-26.1c-.1 0-.2 0-.3.1-1.5.6-3.1 9.4-1.5 16.4.7 3.3 3.7 5.5 5.6 7.1.8.6 1.4 1.1 1.7 1.5l8.9-3.3c-.1-.5-.1-1.2-.1-2.1 0-2.5 0-6.3-1.9-9.2-3.6-5.7-10.4-10.5-12.4-10.5z"/><path d="M176.5 96l5.4-1.8c-.4-.9-.6-4.8-2.4-7.9-2.5-4.3-6.8-8.2-7.8-7.8-.9.4-1.2 6.3.1 11.1 1 3.3 4.3 5.5 4.7 6.4z" fill="#ff2f00"/><path d="M214.6 97c.5-1.3 6.5-4 7.6-9 1.6-7.1 0-16.2-1.8-17-1.9-.8-9.4 4.5-13.3 10.6-2.8 4.4-1.6 10.5-2.1 11.8l9.6 3.6z" fill="#fff"/><path d="M214.6 97.5h-.2l-9.7-3.6c-.1 0-.2-.1-.3-.3-.1-.1-.1-.3 0-.4.1-.3.1-1.2.1-2.2 0-2.6 0-6.6 2-9.7 4-6.2 11.7-11.7 14-10.7 2.2.9 3.7 10.3 2.1 17.5-.8 3.6-3.9 6-6 7.6-.8.6-1.5 1.2-1.7 1.5.1.1-.1.3-.3.3zm-9.1-4.5l8.9 3.3c.3-.4.9-.9 1.7-1.5 1.9-1.5 4.9-3.8 5.6-7.1 1.6-7-.1-15.8-1.5-16.4-1.5-.6-8.8 4.3-12.7 10.4-1.9 2.9-1.9 6.7-1.9 9.2 0 .9 0 1.6-.1 2.1z"/><path d="M212.5 95.8c.4-.9 3.7-3.1 4.6-6.5 1.3-4.8 1.1-10.7.1-11.1-.9-.4-5.3 3.6-7.8 7.8-1.8 3.1-2 7-2.4 7.9l5.5 1.9z" fill="#ff2f00"/><path d="M175.8 108.2l39.3.3-.5 64.3-39.3-.3.5-64.3z" fill="#fff"/><path d="M175.2 160.5c13.9 8.1 27 8.1 39.5 0l-.1-17.1H175" opacity=".17"/><path d="M219.8 110.4l-.1-1.4.1 33.6h-.1c-.5 12.9-11.4 20.5-24.7 20.5s-24.3-7.6-24.8-20.5l.1-32.1C171 96.8 177.9 90 191 90c10.1-.1 27.4-2.8 28.8 20.4z" fill="#fff"/><path d="M195 163.6c-14.4 0-24.8-8.6-25.3-20.9v-.1l.1-32.1c.7-14 7.8-21 21.2-21h2.9c10-.2 25.2-.6 26.5 21 0 .1 0 .2-.1.3l.1 31.8c0 .1 0 .2-.1.3-.7 12.2-11 20.7-25.3 20.7zm-24.3-21.1c.5 12.1 10.2 20.2 24.3 20.2 14.1 0 23.8-8.1 24.2-20.1 0-.1 0-.2.1-.2l-.1-33.3c-1.8-19.1-15.4-18.8-25.4-18.6h-2.9c-12.9 0-19.5 6.6-20.2 20v32z"/><path d="M195.2 134c21.2-.2 22.6 11.4 24.7 11.4l-.7.8c-2.5 9.9-10.5 15.5-24.1 16.7v.3c-13.5-1.2-21.6-6.7-24.1-16.7l-.8-1c2-.1 4-11.3 25-11.5z" fill="#6c41db" opacity=".09"/><path d="M173.8 98s4.9-3.5 12.6-5.8c1.8-.7.6 1.3 2.6 1 4.2-.6 8.6-.4 11.7 0 .6.1 1.3-1.3 1.8-1.2 5.1.9 12.6 4.3 13.6 6.2-4.4-11.9-26.9-9.1-35.2-6.5-5.3 3.1-7.1 6.3-7.1 6.3z" opacity=".17"/><path d="M195.7 159.7c-3.2 0-5.5-1.3-6.9-3.8-.3-.5-.1-1.1.4-1.4.5-.3 1.1-.1 1.4.4 1 1.8 2.7 2.7 5.1 2.7 2.5 0 4.1-.9 5.1-2.7.3-.5.9-.7 1.4-.4.5.3.7.9.4 1.4-1.4 2.6-3.7 3.8-6.9 3.8zM183 147.2h-1c0-5.1 2.9-6.2 5.4-6.2 1.6 0 2.9.5 3.8 1.4 1 1 1.6 2.7 1.5 4.8h-1c0-1.9-.4-3.3-1.3-4.1-.7-.7-1.7-1.1-3.1-1.1-2.9 0-4.3 1.7-4.3 5.2zM198.6 147.2h-1c0-5.1 2.9-6.2 5.4-6.2 1.6 0 2.9.5 3.8 1.4 1 1 1.6 2.7 1.5 4.8h-1c0-1.9-.4-3.3-1.3-4.1-.7-.7-1.7-1.1-3.1-1.1-2.9-.1-4.3 1.6-4.3 5.2z"/><g fill="#373c50"><ellipse cx="179.8" cy="118.1" rx="2.7" ry="2.7"/><ellipse cx="211.2" cy="118.1" rx="2.7" ry="2.7"/></g><path d="M176.2 172.5h-1v-16.4h1v16.4zm38.6-.2h-1V156h1v16.3zM216.8 116.7l-8.7-4.4.9-1.8 8.7 4.4-.9 1.8zm-43.1-1.6l-.5-1.9 9.5-2.2.5 1.9-9.5 2.2z"/><path d="M189 116s-1.6 3.7.5 3.1c4.2-1.3 9.5-5.3 14.1-15.8.7-1.7-2 .7-2 .7l-2.5 5.3m-22.3 4.2s-2.3 2.8-.1 2.7c4.1-.1 12.8-5.1 15.3-7.7 1.3-1.3 0-3.7 0-3.7l-3.7 4.6m-20.5-1.3s-1.5 2.8.7 3c2.1.2 11.5-2.1 13.1-3.1 1.6-1-.5-1.9-.5-1.9l-.9-.9"/><path d="M193.7 97.6c-10.3 12.2-32.1 13-26 9.3 8.8-5.3 8-10.2 15.1-18 2.5-2.7 7.6-3.2 10.3-.7 2.8 2.5 3 6.6.6 9.4z" fill="#ff2f00"/><path d="M169.3 109.3c-.9 0-1.6-.1-2.1-.2-.7-.2-1-.5-1.1-1-.1-.7.7-1.3 1.3-1.7 5.2-3.2 6.9-6 9.1-9.7 1.4-2.4 3-5.1 5.9-8.2 2.7-3 8.2-3.3 11-.7 2.9 2.6 3.2 7 .6 10.1-7.1 8.5-19.2 11.4-24.7 11.4zm-2.1-1.3s.3.3 1.6.3c5.1.3 17.5-2.7 24.5-11 2.2-2.7 2-6.5-.5-8.7-2.5-2.3-7.3-1.9-9.6.7-2.8 3.1-4.4 5.7-5.8 8-2.2 3.6-4.1 6.8-9.4 10-.7.4-.8.7-.8.7z"/><path d="M199.2 96.6c-6.4 14.6-26.8 21.2-22.3 16.2 6.8-7.5 4.9-12.2 9.4-21.5 1.6-3.3 6.4-5.2 9.7-3.6 3.4 1.6 4.7 5.6 3.2 8.9z" fill="#6c41db"/><path d="M177.2 115c-.7 0-1.1-.2-1.3-.6-.3-.7.4-1.6.7-1.9 4.1-4.5 5-8 6-12 .7-2.7 1.5-5.7 3.3-9.4 1.7-3.6 6.9-5.5 10.4-3.8 3.5 1.7 5 5.9 3.4 9.5-5.1 11.7-18.9 18.2-22.5 18.2zm-.4-1c.1 0 .5.1 1.8-.2 4.4-1.1 15.7-7 20.2-17.3 1.4-3.2.1-6.8-2.9-8.2-3.1-1.5-7.5.2-9.1 3.4-1.8 3.6-2.5 6.6-3.2 9.2-1.1 4.2-2 7.8-6.3 12.4-.4.4-.5.6-.5.7z"/><path d="M205.8 93.7c-1.8 15.8-19.4 28.1-16.5 22 4.3-9.2 1.1-13.1 2.7-23.3.6-3.6 4.6-6.8 8.2-6.3 3.7.6 6.1 4 5.6 7.6z" fill="#ff2f00"/><path d="M189.5 117.9c-.3 0-.6-.1-.8-.3-.5-.6 0-1.6.1-2 2.6-5.5 2.4-9.1 2.2-13.2-.1-2.8-.2-5.9.4-9.9.6-3.9 5-7.3 8.8-6.7 3.9.6 6.5 4.1 6.1 8.1-1.5 12.7-12.7 22.9-16.2 24-.2-.1-.4 0-.6 0zm9.9-31.3c-3.1 0-6.4 2.7-6.9 5.9-.6 4-.5 7-.4 9.7.2 4.3.3 8-2.3 13.7-.3.6-.3.9-.3.9s.5 0 1.7-.7c3.9-2.4 12.9-11.3 14.2-22.5.4-3.4-1.9-6.5-5.2-7h-.8z"/><g><path d="M1 53.2h168.8M14.3 30.9H192M62.3 96.1h84.4M14.3 74.7H152m-75.5-42v18.5m64-18.5v18.5m-96 3.8v18.5m32 3V95m32-40v18.5m32 3V95" opacity=".1" fill="none" stroke="#373c50" stroke-width="2" stroke-linecap="round" stroke-linejoin="round"/><g transform="translate(295 207)"><path d="M1 8v27c4.6 4 10.6 6 18 6s13.1-2 17-6V8.2c-4.2 3.4-9.6 5-16.1 5C13.4 13.2 7.1 11.5 1 8z" fill="#f7f9f9"/><ellipse cx="18.5" cy="6.5" rx="17.5" ry="6.5" fill="#d3d7df" stroke="#e2e5ec"/><ellipse cx="18.8" cy="8.8" rx="14.2" ry="2.8" fill="#9e6939"/><path d="M1 7v27M36 7v27" fill="none" stroke="#e2e5ec"/><path d="M37 29V14c3.9 0 7 3.6 7 7.5S40.9 29 37 29z" fill="none" stroke="#e2e5ec" stroke-width="2" stroke-linecap="round" stroke-linejoin="round"/><path d="M1 35c4.1 4 9.9 6 17.5 6s13.4-2 17.5-6" fill="none" stroke="#e2e5ec" stroke-linecap="round"/><path d="M1 8v26.3c.9.7 1.9 1.3 3 1.7V10.2L1 8z" opacity=".1" fill="#9da5b2"/></g><g transform="translate(118 170.156)"><path d="M10.2 0h135.1c5.5 0 10 4.5 10 10 0 .7-.1 1.3-.2 1.9l-13.8 69.3c-.9 4.7-5 8.1-9.8 8.1H24c-4.8 0-8.9-3.4-9.8-8.1L.4 11.9C-.6 6.5 2.9 1.3 8.3.2 8.9.1 9.6 0 10.2 0z" fill="#e2e5ec"/><path d="M10.2.5C5 .5.7 4.8.7 10c0 .6.1 1.2.2 1.8l13.8 69.3c.9 4.4 4.8 7.6 9.3 7.7h107.6c4.5 0 8.4-3.2 9.3-7.7l13.8-69.3c1-5.1-2.3-10.1-7.5-11.2-.6-.1-1.2-.2-1.9-.2H10.2z" fill="none" stroke="#bac1d3"/><path d="M146.8 1c4.4 2.2 6.6 4.6 6.6 7.1-2-3.4-4.4-5.1-7.1-5.1H8C4.3 4 2 5.7 1 8.1c1.6-4 3.7-6.4 6.2-7.1h139.6z" opacity=".25" fill="#fff"/><path d="M21.5 88.4h112.1c4.4-2.2 6.6-4.6 6.6-7.1-2 2.4-4.4 3.6-7.2 3.6H22.4c-3.8.1-6.2-1.1-7.1-3.6 1 4 2.8 6.4 5.4 7.2l.8-.1z" opacity=".05" fill="#373c50"/><ellipse cx="78" cy="44.6" rx="8.9" ry="8.9" opacity=".497" fill="#9da5b2"/></g><path d="M53.8 236.5h7.1m10.6 0h57.8m133.9 0h8.9m8.7 0h13.3" opacity=".1" fill="none" stroke="#373c50" stroke-width="2" stroke-linecap="round" stroke-linejoin="round"/></g><path d="M309.3 6.2L257.2 6c-5.1 0-9.9 3.8-10.9 8.6l-8.8 43.5-2.8 13.9-1.7 8.6c-.4 2 1.9 3 3.7 1.6l12.8-10.1 46.1.2c5 0 9.9-3.8 10.9-8.6l9.9-49.1c1-4.6-2.2-8.3-7.1-8.4z" fill="#f7f9f9" stroke="#373c50" stroke-opacity=".246"/><path d="M276.6 54.3c-1.2.5-2.6.2-3.5-.6-.9-.8-1.2-2.1-.7-3.2s1.7-1.8 3-1.8c.8 0 1.7.3 2.3.9.6.6 1 1.3 1 2.1-.1 1.1-.9 2.1-2.1 2.6zm-7.3-23.9c.8-.3 1.5-.8 1.8-1.5.8-1.4 2.3-2.4 4.1-2.4 2.5 0 4.5 1.8 4.6 4.1.1 1.8-1.2 3.5-3.1 4.1-2.8.8-4.7 3.2-4.7 5.8v2.3c0 1.6 1.4 2.9 3.2 2.9s3.2-1.3 3.2-2.9v-2.3c0-.2.3-.3.3-.3 2.2-.7 4.2-2 5.5-3.8 1.3-1.8 2-3.9 2-6-.1-2.6-1.3-5.1-3.4-6.9-2.1-1.8-4.8-2.9-7.7-2.9h-.1c-2.1 0-4.1.6-5.8 1.6-1.7 1-3.1 2.4-4 4.1-.4.7-.4 1.5-.1 2.2.3.7.9 1.3 1.6 1.7.9.4 1.8.4 2.6.2z" opacity=".75" fill="#373c50"/></svg>
