<svg xmlns="http://www.w3.org/2000/svg" viewBox="0 0 340 260" width="340" height="260"><style></style><path d="M203.3 170.8h-16.7v-9.3h16.7v9.3zm-15.6-1h14.7v-7.3h-14.7v7.3z"/><path d="M187.6 162h14.7v8.8h-14.7V162z" fill="#d89556"/><path d="M187.4 165.4c5.3 1.2 10.4 1.2 15.2 0v-2.6h-15.2"/><path d="M219.8 110.8v31.9h-.1c-.5 12.8-11.4 20.4-24.7 20.4-13.4 0-24.3-7.6-24.8-20.4v-31.9h.1c.7-13.6 7.6-20.4 20.7-20.4 10.2 0 7.5 6.2 15.3 6.2 7.8 0 5.1-4 9 .9 3.5 4.4 4.4 10.2 4.5 13.3z" fill="#d89556"/><path d="M195 163.6c-14.2 0-24.6-8.4-25.3-20.4v-32.9h.1c.9-13.5 8-20.4 21.1-20.4 5.6 0 7.5 1.9 9.2 3.5 1.4 1.4 2.7 2.6 6.1 2.6 3.3 0 4.6-.7 5.4-1.1 1.5-.8 1.9-.4 4 2.2 3.7 4.6 4.5 10.4 4.6 13.1v32.9h-.1c-.6 12.2-10.9 20.5-25.1 20.5zm-24.3-21.1v.2c.4 11.9 10.2 19.9 24.3 19.9 14.1 0 23.8-8 24.2-19.9l.1-.5v-31.4c-.1-2.4-.7-8.3-4.4-13-1.9-2.4-1.9-2.4-2.8-2-.9.5-2.4 1.3-5.9 1.3-3.8 0-5.4-1.5-6.8-2.9-1.6-1.6-3.3-3.2-8.5-3.2-12.9 0-19.5 6.5-20.2 19.9l-.1.5v31.1z"/><path d="M195 142.1v-.2c21 0 21-6 21-8 0-1.3 1-2 3.1-2v15.5c-2.5 9.2-10.5 14.4-24.1 15.5v.2c-13.5-1.1-21.6-6.2-24.1-15.5v-15.5c2.1 0 3.1.7 3.1 2 0 2 0 8 21 8z" fill="#825059" opacity=".153"/><path d="M172 115c.8-11.3 4.4-18.2 10.7-20.6 6.3-2.4 11-2.4 14.1 0 4 2.6 7.5 3.8 10.3 3.7 4.2-.2 6.5-3.2 7.5-1.2-.9-1.6-1.5-2.4-1.8-2.4-.4 0-3.2 1.9-6.2 1.7-3-.2-6.5-2.3-9.8-5.3-2.2-2-7.5-1.7-15.8.8-5.3 3.1-8.5 7.3-9.7 12.4-1.2 5.2-2 10.7-1 12.8-.1 0 1.7-1.9 1.7-1.9z"/><path d="M195 150.7c-6.2 0-10.6-1.6-13.2-4.8-.3-.4-.3-1.1.2-1.4.4-.3 1.1-.3 1.4.2 2.2 2.7 6.1 4.1 11.6 4.1s9.4-1.4 11.6-4.1c.3-.4 1-.5 1.4-.2.4.3.5 1 .2 1.4-2.6 3.2-7.1 4.8-13.2 4.8zm0-11.2c-1.6 0-2.8-.4-3.7-1.3-.8-.8-1.2-2.1-1.2-3.7 0-.3.2-.5.5-.5s.5.2.5.5c0 1.3.3 2.3 1 3 .6.6 1.6 1 3 1 2.7 0 3.9-1.3 3.9-4 0-.3.2-.5.5-.5s.5.2.5.5c-.1 3.3-1.8 5-5 5z" fill="#7f4953"/><path d="M166.5 118.5c-2.3-7.9-3.4-13.4-3.4-16.3 0-4.4 2.2-24.8 30.1-28.1 5.4 2 11.3 2 17.6 0 9.4-3 11.6 6.5 5.8 8.8 5.1 3 7.1 18.6 6.3 36.9 0 .4-.5.5-.7.1l-1.9-.1c-.3-6.9-.8-14.9-1.2-16.2-.4-1.3-2.1-4-5.1-8.2-.8-.5-1.6-.5-2.2 0-1 .8-6.2 2.3-9.5 0s-5.4-5.9-13-5.2c-7.6.7-17.6 3.7-18.9 18.1l-.2 8.9-3.7 1.3z" fill="#703424"/><path d="M183.5 116.7h4.4l-4.4 10.7H179l4.5-10.7zm-4.7 0h2l-4.4 10.7h-2l4.4-10.7zm35.7 0h4.4l-4.4 10.7H210l4.5-10.7zm-4.5 0h2l-4.4 10.7h-2l4.4-10.7z" fill="#f7f9f9" opacity=".2"/><path d="M170.2 131v-13.4c-3.4 0-6.2 3.2-6.2 6.7 0 1.4.4 2.7 1.2 3.8 1.1 1.7 2.9 2.9 5 2.9z" fill="#d89556"/><path d="M169.7 118.1c-2.8.3-5.2 3-5.2 6.2 0 1.2.4 2.5 1.1 3.6 1 1.5 2.5 2.4 4.1 2.6v-12.4zm1 13.4h-.5c-2.1 0-4.1-1.2-5.4-3.1-.8-1.2-1.3-2.7-1.3-4.1 0-3.8 3.1-7.2 6.7-7.2h.5v14.4z"/><ellipse cx="180.8" cy="122.1" rx="2.7" ry="2.7" fill="#373c50"/><ellipse cx="209.2" cy="122.1" rx="2.7" ry="2.7" fill="#373c50"/><path d="M218.3 130.1h-17.2v-1h17.2v1zm-29.2 0h-17.2v-1h17.2v1zm10.6-7.1h-9.2v-1h9.2v1z" fill="#707482"/><path d="M223 119c-.3 0-.5-.2-.5-.5.5-18.2-1.2-30.3-4.7-34-.8-.8-1.6-1.2-2.5-1.2-.2 0-.4-.2-.5-.4s.1-.5.3-.6c3.4-1.3 5.2-3.4 4.6-5.2-.7-2.3-5-3.8-11.4-2.1-6.3 1.7-8.9 1.2-11.3.7-2-.4-4-.8-8.3.3-11.2 2.8-18.7 7.7-22.4 14.6-3.8 7-3.6 16.4.5 27.7.1.3 0 .5-.3.6-.3.1-.5 0-.6-.3-4.2-11.6-4.3-21.2-.4-28.5 3.8-7.1 11.6-12.2 23-15.1 4.5-1.1 6.6-.7 8.7-.3 2.3.5 4.7 1 10.8-.7 7.1-1.8 11.7 0 12.6 2.8.5 1.7-.2 4-3.7 5.8.6.2 1.1.6 1.6 1.2 4.8 5 5.4 21.6 5 34.7 0 .3-.2.5-.5.5z"/><path d="M173.1 115.8h14.6c1.1 0 2 .9 2 2v8.5c0 1.1-.9 2-2 2h-14.6c-1.1 0-2-.9-2-2v-8.5c0-1.1.8-2 2-2z" fill="#f7f9f9" opacity=".05"/><path d="M187.7 129.3h-14.6c-1.7 0-3-1.3-3-3v-8.5c0-1.7 1.3-3 3-3h14.6c1.7 0 3 1.3 3 3v8.5c0 1.7-1.4 3-3 3zm-14.6-12.5c-.6 0-1 .4-1 1v8.5c0 .6.4 1 1 1h14.6c.6 0 1-.4 1-1v-8.5c0-.6-.4-1-1-1h-14.6z" fill="#373c50"/><path d="M220 130.6c3.4 0 6.2-3.3 6.2-6.7 0-3.5-2.8-6.7-6.2-6.7v13.4z" fill="#d89556"/><path d="M220 131.1h-.5v-14.4h.5c3.6 0 6.7 3.4 6.7 7.2 0 3.9-3.2 7.2-6.7 7.2zm.5-13.3v12.3c2.8-.3 5.2-3.1 5.2-6.2s-2.4-5.8-5.2-6.1z"/><path d="M202.3 115.8h14.6c1.1 0 2 .9 2 2v8.5c0 1.1-.9 2-2 2h-14.6c-1.1 0-2-.9-2-2v-8.5c0-1.1.9-2 2-2z" fill="#f7f9f9" opacity=".05"/><path d="M216.9 129.3h-14.6c-1.7 0-3-1.3-3-3v-8.5c0-1.7 1.3-3 3-3h14.6c1.7 0 3 1.3 3 3v8.5c0 1.7-1.3 3-3 3zm-14.6-12.5c-.6 0-1 .4-1 1v8.5c0 .6.4 1 1 1h14.6c.6 0 1-.4 1-1v-8.5c0-.6-.4-1-1-1h-14.6z" fill="#373c50"/><path d="M189.7 120.3h10.6v1.8h-10.6v-1.8z" fill="#373c50"/><path d="M213.2 111.4l-9.7-3.6.7-1.9 9.7 3.6-.7 1.9zm-35.8-1.7l-.3-2 10.6-1.8.3 2-10.6 1.8z" fill="#7f4953"/><path d="M1 53.2h168.8M14.3 30.9H192M62.3 96.1h84.4M14.3 74.7H152m-75.5-42v18.5m64-18.5v18.5m-96 3.8v18.5m32 3V95m32-40v18.5m32 3V95" opacity=".1" fill="none" stroke="#373c50" stroke-width="2" stroke-linecap="round" stroke-linejoin="round"/><g transform="translate(295 207)"><path d="M1 8v27c4.6 4 10.6 6 18 6s13.1-2 17-6V8.2c-4.2 3.4-9.6 5-16.1 5C13.4 13.2 7.1 11.5 1 8z" fill="#f7f9f9"/><ellipse cx="18.5" cy="6.5" rx="17.5" ry="6.5" fill="#d3d7df" stroke="#e2e5ec"/><ellipse cx="18.8" cy="8.8" rx="14.2" ry="2.8" fill="#9e6939"/><path d="M1 7v27M36 7v27" fill="none" stroke="#e2e5ec"/><path d="M37 29V14c3.9 0 7 3.6 7 7.5S40.9 29 37 29z" fill="none" stroke="#e2e5ec" stroke-width="2" stroke-linecap="round" stroke-linejoin="round"/><path d="M1 35c4.1 4 9.9 6 17.5 6s13.4-2 17.5-6" fill="none" stroke="#e2e5ec" stroke-linecap="round"/><path d="M1 8v26.3c.9.7 1.9 1.3 3 1.7V10.2L1 8z" opacity=".1" fill="#9da5b2"/></g><g transform="translate(118 170.156)"><path id="a" d="M10.2 0h135.1c5.5 0 10 4.5 10 10 0 .7-.1 1.3-.2 1.9l-13.8 69.3c-.9 4.7-5 8.1-9.8 8.1H24c-4.8 0-8.9-3.4-9.8-8.1L.4 11.9C-.6 6.5 2.9 1.3 8.3.2 8.9.1 9.6 0 10.2 0z" fill="#e2e5ec"/><path d="M10.2.5C5 .5.7 4.8.7 10c0 .6.1 1.2.2 1.8l13.8 69.3c.9 4.4 4.8 7.6 9.3 7.7h107.6c4.5 0 8.4-3.2 9.3-7.7l13.8-69.3c1-5.1-2.3-10.1-7.5-11.2-.6-.1-1.2-.2-1.9-.2H10.2z" fill="none" stroke="#bac1d3"/><path d="M146.8 1c4.4 2.2 6.6 4.6 6.6 7.1-2-3.4-4.4-5.1-7.1-5.1H8C4.3 4 2 5.7 1 8.1c1.6-4 3.7-6.4 6.2-7.1h139.6z" opacity=".25" fill="#fff"/><path d="M21.5 88.4h112.1c4.4-2.2 6.6-4.6 6.6-7.1-2 2.4-4.4 3.6-7.2 3.6H22.4c-3.8.1-6.2-1.1-7.1-3.6 1 4 2.8 6.4 5.4 7.2l.8-.1z" opacity=".05" fill="#373c50"/><ellipse cx="78" cy="44.6" rx="8.9" ry="8.9" opacity=".497" fill="#9da5b2"/></g><path d="M53.8 236.5h7.1m10.6 0h57.8m133.9 0h8.9m8.7 0h13.3" opacity=".1" fill="none" stroke="#373c50" stroke-width="2" stroke-linecap="round" stroke-linejoin="round"/><path d="M309.3 6.2L257.2 6c-5.1 0-9.9 3.8-10.9 8.6l-8.8 43.5-2.8 13.9-1.7 8.6c-.4 2 1.9 3 3.7 1.6l12.8-10.1 46.1.2c5 0 9.9-3.8 10.9-8.6l9.9-49.1c1-4.6-2.2-8.3-7.1-8.4z" fill="#f7f9f9" stroke="#373c50" stroke-opacity=".246"/><path d="M276.6 54.3c-1.2.5-2.6.2-3.5-.6-.9-.8-1.2-2.1-.7-3.2s1.7-1.8 3-1.8c.8 0 1.7.3 2.3.9.6.6 1 1.3 1 2.1-.1 1.1-.9 2.1-2.1 2.6zm-7.3-23.9c.8-.3 1.5-.8 1.8-1.5.8-1.4 2.3-2.4 4.1-2.4 2.5 0 4.5 1.8 4.6 4.1.1 1.8-1.2 3.5-3.1 4.1-2.8.8-4.7 3.2-4.7 5.8v2.3c0 1.6 1.4 2.9 3.2 2.9s3.2-1.3 3.2-2.9v-2.3c0-.2.3-.3.3-.3 2.2-.7 4.2-2 5.5-3.8 1.3-1.8 2-3.9 2-6-.1-2.6-1.3-5.1-3.4-6.9-2.1-1.8-4.8-2.9-7.7-2.9h-.1c-2.1 0-4.1.6-5.8 1.6-1.7 1-3.1 2.4-4 4.1-.4.7-.4 1.5-.1 2.2.3.7.9 1.3 1.6 1.7.9.4 1.8.4 2.6.2z" opacity=".75" fill="#373c50"/></svg>
