<svg xmlns="http://www.w3.org/2000/svg" viewBox="0 0 340 260" width="340" height="260"><style></style><path d="M168.3 129.2c-1.8 5.8-7.8 11.8-4.5 11.3 2.8-.4 13.7-2.3 15.8-5" fill="#6c41db"/><path d="M163.5 141c-.3 0-.7-.1-1-.4-.5-.8.3-2.2 1.8-4.6 1.2-2 2.8-4.5 3.6-7l1 .3c-.8 2.6-2.4 5.2-3.7 7.2-.8 1.4-1.9 3-1.8 3.5h.4c4.6-.7 13.7-2.6 15.5-4.8l.8.6c-2.5 3.1-14.8 5-16.1 5.2h-.5z"/><path d="M224.2 129.2c1.8 5.8 7.8 11.8 4.5 11.3-2.8-.4-13.7-2.3-15.8-5" fill="#6c41db" stroke="#000" stroke-miterlimit="10"/><path d="M203.8 170.8h-15.7c-.3 0-.5-.2-.5-.5V162c0-.3.2-.5.5-.5h15.7c.3 0 .5.2.5.5v8.3c0 .3-.2.5-.5.5zm-15.1-1h14.7v-7.3h-14.7v7.3z"/><path d="M188.6 162h14.7v8.9h-14.7V162z" fill="#ffdbc3"/><path d="M188.4 165.3c5.3 1.2 10.3 1.2 15 0v-2.6h-15"/><path d="M220.8 110.4v32.1h-.1c-.5 12.9-11.4 20.5-24.7 20.5-13.4 0-24.3-7.6-24.8-20.5v-32.1h.1c.7-13.7 7.6-20.5 20.7-20.5 10.2 0 7.5 6.2 15.3 6.2 7.8 0 5.1-4 9 .9 3.5 4.6 4.4 10.3 4.5 13.4z" fill="#ffdbc3"/><path d="M196 163.6c-14.4 0-24.8-8.6-25.3-20.9v-32.2c0-.1 0-.2.1-.3.8-13.8 7.9-20.7 21.1-20.7 5.6 0 7.5 1.9 9.2 3.6 1.4 1.4 2.7 2.6 6.1 2.6 3.3 0 4.6-.7 5.4-1.1 1.5-.8 1.9-.4 4 2.2 3.9 4.9 4.5 11.1 4.6 13.6v32.2c0 .1 0 .2-.1.3-.5 12.2-10.8 20.7-25.1 20.7zm-24.3-21.1c.5 12.1 10.2 20.2 24.3 20.2 14.1 0 23.8-8.1 24.2-20.1 0-.1 0-.2.1-.2V110.5c-.1-2.4-.7-8.4-4.4-13.1-1.9-2.4-1.9-2.4-2.8-2-.9.5-2.4 1.3-5.9 1.3-3.8 0-5.4-1.5-6.8-2.9-1.6-1.6-3.3-3.3-8.5-3.3-12.9 0-19.5 6.6-20.2 20 0 .1 0 .2-.1.2v31.8z"/><path d="M169 121.4c-2.2-7.7-1.7-10.8-1.7-13.6 0-4.2 3.2-26.5 27.7-26.6 33.6-.1 28.3 26.1 28.7 41.4 0 .4-.5.5-.7.1 0 0-1.6-.9-4.5-5-.8-.5-27-7.4-34.3-22.5-5 3.1-6.9 9.2-9 16.2-.7 2.3-3.8 9-3.8 9l-2.4 1z"/><path d="M196 150.7c-6.2 0-10.6-1.6-13.2-4.8-.3-.4-.3-1.1.2-1.4.4-.3 1.1-.3 1.4.2 2.2 2.7 6.1 4.1 11.6 4.1s9.4-1.4 11.6-4.1c.3-.4 1-.5 1.4-.2.4.3.5 1 .2 1.4-2.6 3.2-7.1 4.8-13.2 4.8zm0-11.2c-1.6 0-2.8-.4-3.7-1.3-.8-.8-1.2-2.1-1.2-3.7 0-.3.2-.5.5-.5s.5.2.5.5c0 1.3.3 2.3 1 3 .6.6 1.6 1 3 1 2.7 0 3.9-1.3 3.9-4 0-.3.2-.5.5-.5s.5.2.5.5c-.1 3.3-1.8 5-5 5z" fill="#7f4953"/><path d="M183.6 118.7c-1.7 0-3.2 1.4-3.2 3.2s1.4 3.2 3.2 3.2 3.2-1.4 3.2-3.2-1.5-3.2-3.2-3.2zm24.9 0c-1.7 0-3.2 1.4-3.2 3.2s1.4 3.2 3.2 3.2 3.2-1.4 3.2-3.2-1.4-3.2-3.2-3.2z" fill="#373c50"/><path transform="rotate(-9.556 183.55 112.761)" d="M178.2 111.8H189v2h-10.8z" fill="#7f4953"/><path transform="rotate(-69.88 208.377 113.971)" d="M207.4 108.8h2v10.4h-2z" fill="#7f4953"/><path d="M171.2 131v-13.4c-3.4 0-6.2 3.2-6.2 6.7 0 1.4.4 2.7 1.2 3.8 1.1 1.7 2.9 2.9 5 2.9z" fill="#ffdbc3"/><path d="M171.2 131.5c-2.1 0-4.1-1.2-5.4-3.1-.8-1.2-1.3-2.7-1.3-4.1 0-3.8 3.1-7.2 6.7-7.2.3 0 .5.2.5.5V131c0 .1-.1.3-.1.4s-.3.1-.4.1zm-.5-13.4c-2.8.3-5.2 3-5.2 6.2 0 1.2.4 2.5 1.1 3.6 1 1.5 2.5 2.4 4.1 2.6v-12.4z"/><path d="M167.5 118.5c-2.3-7.9-1.8-11.1-1.8-14 0-4.4 3.3-27.3 28.5-27.4 34.6-.1 29.1 26.9 29.6 42.7 0 .4-.5.5-.7.1 0 0-1.6-.9-4.6-5.1-.8-.5-26-6.5-33.5-22-5.3 2.3-9.8 8.4-11.2 15.8l-2.7 8.6-3.6 1.3z" fill="#6c41db"/><path d="M223.5 120.7c-.3 0-.5-.1-.7-.3-.4-.3-2-1.5-4.6-5.1-.2-.1-.7-.2-1.2-.4-16.8-5.3-27.6-12.4-32.2-21.4-5.1 2.5-9.2 8.4-10.4 15.3l-2.8 8.9-4.4 1.5-.1-.5c-2-6.9-1.9-10.2-1.8-12.9v-1.2c0-7.2 5.3-27.8 29-27.9h.2c10.5 0 18 2.4 22.9 7.4 7.4 7.5 7.2 19.6 7.1 29.3 0 2.3-.1 4.5 0 6.5 0 .4-.2.7-.6.8-.3-.1-.4 0-.4 0zm.1-1zm-38.4-27.5l.2.4c4.3 8.9 15 16 31.8 21.3 1 .3 1.4.4 1.5.5l.1.1c2.6 3.6 4.1 4.7 4.4 4.9v-6.2c.2-10 .3-21.3-6.8-28.6-4.7-4.8-12-7.1-22.2-7.1h-.2c-22.9.1-28 19.9-28 26.9v1.3c-.1 2.5-.1 5.7 1.6 12.1l2.9-1 2.6-8.3c1.3-7.3 5.8-13.7 11.4-16.1l.7-.2z"/><path d="M221 130.6c3.4 0 6.2-3.3 6.2-6.7 0-3.5-2.8-6.7-6.2-6.7v13.4z" fill="#ffdbc3" stroke="#000" stroke-linecap="round" stroke-linejoin="round"/><path d="M1 53.2h168.8M14.3 30.9H192M62.3 96.1h84.4M14.3 74.7H152m-75.5-42v18.5m64-18.5v18.5m-96 3.8v18.5m32 3V95m32-40v18.5m32 3V95" opacity=".1" fill="none" stroke="#373c50" stroke-width="2" stroke-linecap="round" stroke-linejoin="round"/><g transform="translate(295 207)"><path d="M1 8v27c4.6 4 10.6 6 18 6s13.1-2 17-6V8.2c-4.2 3.4-9.6 5-16.1 5C13.4 13.2 7.1 11.5 1 8z" fill="#f7f9f9"/><ellipse cx="18.5" cy="6.5" rx="17.5" ry="6.5" fill="#d3d7df" stroke="#e2e5ec"/><ellipse cx="18.8" cy="8.8" rx="14.2" ry="2.8" fill="#9e6939"/><path d="M1 7v27M36 7v27" fill="none" stroke="#e2e5ec"/><path d="M37 29V14c3.9 0 7 3.6 7 7.5S40.9 29 37 29z" fill="none" stroke="#e2e5ec" stroke-width="2" stroke-linecap="round" stroke-linejoin="round"/><path d="M1 35c4.1 4 9.9 6 17.5 6s13.4-2 17.5-6" fill="none" stroke="#e2e5ec" stroke-linecap="round"/><path d="M1 8v26.3c.9.7 1.9 1.3 3 1.7V10.2L1 8z" opacity=".1" fill="#9da5b2"/></g><g transform="translate(118 170.156)"><path id="a" d="M10.2 0h135.1c5.5 0 10 4.5 10 10 0 .7-.1 1.3-.2 1.9l-13.8 69.3c-.9 4.7-5 8.1-9.8 8.1H24c-4.8 0-8.9-3.4-9.8-8.1L.4 11.9C-.6 6.5 2.9 1.3 8.3.2 8.9.1 9.6 0 10.2 0z" fill="#e2e5ec"/><path d="M10.2.5C5 .5.7 4.8.7 10c0 .6.1 1.2.2 1.8l13.8 69.3c.9 4.4 4.8 7.6 9.3 7.7h107.6c4.5 0 8.4-3.2 9.3-7.7l13.8-69.3c1-5.1-2.3-10.1-7.5-11.2-.6-.1-1.2-.2-1.9-.2H10.2z" fill="none" stroke="#bac1d3"/><path d="M146.8 1c4.4 2.2 6.6 4.6 6.6 7.1-2-3.4-4.4-5.1-7.1-5.1H8C4.3 4 2 5.7 1 8.1c1.6-4 3.7-6.4 6.2-7.1h139.6z" opacity=".25" fill="#fff"/><path d="M21.5 88.4h112.1c4.4-2.2 6.6-4.6 6.6-7.1-2 2.4-4.4 3.6-7.2 3.6H22.4c-3.8.1-6.2-1.1-7.1-3.6 1 4 2.8 6.4 5.4 7.2l.8-.1z" opacity=".05" fill="#373c50"/><ellipse cx="78" cy="44.6" rx="8.9" ry="8.9" opacity=".497" fill="#9da5b2"/></g><path d="M53.8 236.5h7.1m10.6 0h57.8m133.9 0h8.9m8.7 0h13.3" opacity=".1" fill="none" stroke="#373c50" stroke-width="2" stroke-linecap="round" stroke-linejoin="round"/><path d="M309.3 6.2L257.2 6c-5.1 0-9.9 3.8-10.9 8.6l-8.8 43.5-2.8 13.9-1.7 8.6c-.4 2 1.9 3 3.7 1.6l12.8-10.1 46.1.2c5 0 9.9-3.8 10.9-8.6l9.9-49.1c1-4.6-2.2-8.3-7.1-8.4z" fill="#f7f9f9" stroke="#373c50" stroke-opacity=".246"/><path d="M276.6 54.3c-1.2.5-2.6.2-3.5-.6-.9-.8-1.2-2.1-.7-3.2s1.7-1.8 3-1.8c.8 0 1.7.3 2.3.9.6.6 1 1.3 1 2.1-.1 1.1-.9 2.1-2.1 2.6zm-7.3-23.9c.8-.3 1.5-.8 1.8-1.5.8-1.4 2.3-2.4 4.1-2.4 2.5 0 4.5 1.8 4.6 4.1.1 1.8-1.2 3.5-3.1 4.1-2.8.8-4.7 3.2-4.7 5.8v2.3c0 1.6 1.4 2.9 3.2 2.9s3.2-1.3 3.2-2.9v-2.3c0-.2.3-.3.3-.3 2.2-.7 4.2-2 5.5-3.8 1.3-1.8 2-3.9 2-6-.1-2.6-1.3-5.1-3.4-6.9-2.1-1.8-4.8-2.9-7.7-2.9h-.1c-2.1 0-4.1.6-5.8 1.6-1.7 1-3.1 2.4-4 4.1-.4.7-.4 1.5-.1 2.2.3.7.9 1.3 1.6 1.7.9.4 1.8.4 2.6.2z" opacity=".75" fill="#373c50"/></svg>
