<svg xmlns="http://www.w3.org/2000/svg" viewBox="0 0 1000 131" class="chd-mark" width="1000" height="131"><path class="chd-mark-primary" d="M48.1 57.7l40.9.2 1.6-7.7-41-.1zM44.6 74.9l30.8.1 1.6-7.6-30.9-.1z"/><path class="chd-mark-primary" d="M101.9 0H29.7C13.3 0 0 13.2 0 29.6v71.8C0 117.8 13.3 131 29.7 131h72.1c16.4 0 29.7-13.2 29.7-29.6V29.6C131.6 13.2 118.3 0 101.9 0zm5.6 38.6l-9.9 49.1c-1 4.8-5.8 8.6-10.9 8.6l-46.1-.2-12.8 10.1c-1.8 1.4-4.1.4-3.7-1.6l1.7-8.6 2.8-13.9 8.8-43.5c1-4.8 5.8-8.6 10.9-8.6l52.1.2c4.8.1 8 3.8 7.1 8.4zM165.5 55.1v-.2c0-16.2 12.2-29.4 29.7-29.4 10.8 0 17.2 3.5 22.5 8.7L210 43c-4.5-4.1-9-6.6-14.9-6.6-9.9 0-17 8.2-17 18.2v.2c0 10 7 18.4 17 18.4 6.7 0 10.8-2.7 15.3-6.8l7.7 7.7c-5.9 6.2-12.4 10.1-23.4 10.1-15.9.3-29-12.3-29.3-28.2.1-.3.1-.6.1-.9zM225 70.8v-.2c0-9.5 7.3-13.8 17.7-13.8 3.7 0 7.4.5 10.9 1.7v-.8c0-5.3-3.3-8.2-9.7-8.2-4.2 0-8.3.8-12.2 2.4l-3-9.1c5.3-2.4 11.1-3.6 16.9-3.5 6.7 0 11.5 1.8 14.7 4.8 3.2 3.2 4.7 8 4.7 13.8v25.3h-11.5v-4.8c-3.4 3.8-8.3 5.9-13.3 5.7-8.3.1-15.2-4.7-15.2-13.3zm28.7-2.8v-2.4c-2.6-1.1-5.5-1.6-8.3-1.6-5.5 0-8.9 2.3-8.9 6.2v.2c0 3.5 3 5.6 7.1 5.6 6-.1 10.1-3.4 10.1-8zM276.6 39.9h11.9v6.2c2.8-3.7 6.6-7 12.9-7 5.8 0 10.1 2.6 12.4 7 3.8-4.5 8.4-7 14.4-7 9.3 0 14.8 5.5 14.8 16.1v28.1h-11.9V59c0-6-2.7-9.2-7.5-9.2s-7.9 3.2-7.9 9.2v24.3h-11.9V59c0-6-2.8-9.2-7.5-9.2s-7.8 3.3-7.8 9.2v24.3h-11.9V39.9zM354.7 39.9h11.9v6.5c3.1-4.1 7.3-7.3 13.8-7.3 10.2 0 19.9 8 19.9 22.4v.2c0 14.4-9.6 22.5-19.9 22.5-5.4.1-10.5-2.4-13.8-6.7v18.8h-11.9V39.9zm33.8 21.8v-.2c0-7.4-5-12.3-11-12.3s-11 4.9-11 12.3v.2c0 7.4 5 12.3 11 12.3s11-4.7 11-12.3zM407.7 70.8v-.2c0-9.5 7.3-13.8 17.6-13.8 3.7 0 7.4.5 10.9 1.7v-.8c0-5.3-3.3-8.2-9.6-8.2-4.2 0-8.3.8-12.2 2.4l-3-9.1c5.3-2.4 11.1-3.6 16.9-3.5 6.7 0 11.5 1.8 14.7 4.8 3.2 3.2 4.7 8 4.7 13.8v25.3h-11.5v-4.8c-3.4 3.8-8.3 5.9-13.3 5.7-8.3.1-15.2-4.7-15.2-13.3zm28.7-2.8v-2.4c-2.6-1.1-5.5-1.6-8.3-1.6-5.5 0-8.9 2.3-8.9 6.2v.2c0 3.5 3 5.6 7.1 5.6 6-.1 10.1-3.4 10.1-8zM459.5 24.1H472v10.6h-12.5V24.1zm.4 15.8h11.9v43.4h-11.9V39.9zM484.5 91.8l4.1-8.9c4.5 2.7 9.7 4.1 14.9 4.1 8.5 0 12.7-4.1 12.7-12.1v-2.3c-3.7 4.4-7.8 7.3-14.4 7.3-10.2 0-19.5-7.4-19.5-20.3v-.2c0-12.9 9.4-20.2 19.5-20.2 6.8 0 10.9 2.9 14.3 6.6v-5.9H528v33.8c0 7.7-1.9 13.3-5.6 17-4 4-10.3 5.8-18.6 5.8-6.7.1-13.3-1.5-19.3-4.7zm31.7-32.3v-.2c0-6.2-4.9-10.4-11.1-10.4s-10.9 4.2-10.9 10.4v.2c0 6.3 4.8 10.5 10.9 10.5s11.1-4.3 11.1-10.5zM539.9 39.9h11.9v6.2c2.8-3.7 6.6-7 13-7 9.4 0 15 6.2 15 16.2v28h-11.9V59c0-6-2.9-9.2-7.8-9.2s-8.2 3.2-8.2 9.2v24.3H540V39.9zM617.8 26.5h12v22.7h24V26.5h12.1v56.9h-12.1v-23h-24v23h-12V26.5zM676.9 61.9v-.2c0-12.4 8.9-22.6 21.5-22.6 14.4 0 21.2 11.2 21.2 23.5 0 .9-.1 2-.2 3.1h-30.7c1.2 5.9 5.3 9 11 9 4.3 0 7.4-1.3 10.8-4.5l6.8 6c-4.1 5-9.9 8-17.8 8-12.9.1-22.6-9.1-22.6-22.3zm31.1-3.6c-.8-5.7-4.1-9.7-9.6-9.7-5.3 0-8.9 3.8-9.8 9.7H708zM730.2 24H742v59.3h-11.8V24zM754.6 39.9h11.9v6.5c3.1-4.1 7.3-7.3 13.8-7.3 10.2 0 19.9 8 19.9 22.4v.2c0 14.4-9.6 22.5-19.9 22.5-5.4.1-10.5-2.4-13.8-6.7v18.8h-11.9V39.9zm33.8 21.8v-.2c0-7.4-5-12.3-11-12.3s-11 4.9-11 12.3v.2c0 7.4 5 12.3 11 12.3s11-4.7 11-12.3zM808.3 61.7v-.2c0-14.5 9.6-22.4 19.9-22.4 5.4-.1 10.5 2.4 13.8 6.6V24h12v59.3h-12v-6.4c-3.1 4.1-7.3 7.3-13.8 7.3-10.2 0-19.9-8-19.9-22.5zm33.9 0v-.2c0-7.4-5-12.3-11-12.3s-11 4.8-11 12.3v.2c0 7.4 5 12.3 11 12.3s11-4.9 11-12.3zM863.8 61.9v-.2c0-12.4 8.9-22.6 21.5-22.6 14.4 0 21.2 11.2 21.2 23.5 0 .9-.1 2-.2 3.1h-30.7c1.2 5.9 5.3 9 11 9 4.3 0 7.4-1.3 10.8-4.5l6.8 6c-4.1 5-9.9 8-17.8 8-13 .1-22.6-9.1-22.6-22.3zm31.1-3.6c-.8-5.7-4.1-9.7-9.6-9.7-5.3 0-8.9 3.8-9.8 9.7h19.4zM913 77.6l5.2-7.9c4.7 3.4 9.7 5.3 13.8 5.3 3.8 0 5.6-1.4 5.6-3.5v-.2c0-2.8-4.3-3.8-9.2-5.2-6.2-1.8-13.2-4.6-13.2-13V53c0-8.8 7.2-13.7 15.9-13.7 5.8.1 11.4 1.8 16.2 5l-4.5 8.2c-4.3-2.5-8.6-4.1-11.9-4.1-3.1 0-4.9 1.4-4.9 3.3v.2c0 2.6 4.3 3.8 9.1 5.4 6.1 2 13.3 4.8 13.3 12.8v.2c0 9.5-7.2 13.9-16.6 13.9-6.9-.1-13.5-2.4-18.8-6.6zM958 24h12v32.3l15.2-16.5h14.3l-16.8 17.3 17.3 26.2h-13.8l-11.5-18-4.7 5v13h-12V24zM171.4 125.8l3.9-20.3c8.7-1.3 12.2 1 12.2 4.2 0 2.3-1.7 4.3-4.7 5.5 2.2.6 3.6 2.2 3.6 4.2 0 3.9-4.1 7.7-15 6.4zm5.4-9l-1.2 6.2c4.9.7 7.3-1.1 7.3-3.3 0-2.1-1.9-3.3-6.1-2.9zm1.6-8.7l-1.3 6.5c4.7-.3 6.7-2.1 6.7-4.1.1-1.7-1.7-2.8-5.4-2.4zM189.8 131.4l.5-3.4c5.7.4 8.5 0 9.2-.6s.4-2.8.2-5.7c-1.8 1.7-4.1 3-6.3 3-3.2 0-5-3-.5-15.3l3.4-.1c-3.7 10.4-2.9 12.3-1.1 12.3 1.1 0 2.8-.8 4.4-2.4.2-4.9 2.4-10.2 3.6-10.2.9 0 2.4.4 2.4 1.1 0 1.5-1.3 5.7-3.1 9v.2c0 3.2.7 6.7-.3 8.7-.9 2.4-4.5 3.8-12.4 3.4zM232.6 116.6c4.2-1.9 5.8-3.6 5.8-5.7s-1.8-3-5.5-2.6l-3.4 17.5h-3.6l3.9-20.3c9.2-1.2 12.2 1.3 12.2 4.7 0 2.9-2.1 5.2-5.4 6.9l4.3 8.4-4 .5-4.3-9.4zM254.8 120.2h-6.2c-.8 1.9-1.6 3.8-2.4 5.6h-3.7c3-6.8 6.2-13.7 9.5-20.5h5.1c.6 6.7 1.2 13.5 1.6 20.3l-3.6.3-.3-5.7zm-5-2.8h4.8l-.6-9h-.3c-1.2 3-2.5 6-3.9 9zM271.5 129.4l.8-3.6c-5.9 1.4-9.2-1.4-9.2-7.2 0-7.2 4.6-13.6 10.3-13.6 3.8 0 5.2 2.5 4.9 7.9l-3.4.1c.1-3.2-.3-4.7-2.1-4.7-3.5 0-5.9 5.2-5.9 9.9 0 4.2 2.1 5.8 6.3 4.5l1.1-4.8 3.5-.1-2.8 11.6h-3.5zM288.7 125.8H285l3.3-17.3h-5.9l.6-3.1h15.5l-.6 3.1H292l-3.3 17.3zM309.5 120.2h-6.1c-.8 1.9-1.6 3.8-2.4 5.6h-3.7c3-6.8 6.2-13.7 9.5-20.5h5.1c.6 6.7 1.2 13.5 1.6 20.3l-3.6.3c-.2-1.9-.3-3.8-.4-5.7zm-5-2.8h4.8l-.6-9h-.3c-1.2 3-2.6 6-3.9 9zM326.1 129.4l.8-3.6c-5.9 1.4-9.2-1.4-9.2-7.2 0-7.2 4.6-13.6 10.3-13.6 3.8 0 5.2 2.5 4.9 7.9l-3.5.1c.1-3.2-.3-4.7-2.1-4.7-3.4 0-5.9 5.2-5.9 9.9 0 4.2 2 5.8 6.3 4.5l1.1-4.8 3.4-.1-2.8 11.6h-3.3z"/></svg>
